<svg width="30" height="30" viewBox="0 0 30 30" fill="none" xmlns="http://www.w3.org/2000/svg">
<path fill-rule="evenodd" clip-rule="evenodd" d="M18.7919 2.8125C20.5066 2.81249 21.8509 2.81249 22.9313 2.90077C24.0315 2.99065 24.9404 3.17672 25.7631 3.59589C27.1155 4.28498 28.215 5.38453 28.9041 6.73694C29.3233 7.55961 29.5093 8.46849 29.5992 9.56867C29.6875 10.6491 29.6875 11.9933 29.6875 13.7078V13.792C29.6875 15.5066 29.6875 16.851 29.5992 17.9313C29.5093 19.0315 29.3233 19.9404 28.9041 20.7631C28.215 22.1155 27.1155 23.215 25.7631 23.9041C24.9404 24.3233 24.0315 24.5093 22.9313 24.5992C21.8509 24.6875 20.5067 24.6875 18.7922 24.6875H15.9375V26.9799C16.718 27.0345 17.4948 27.1573 18.2591 27.3484L20.2274 27.8405C20.7297 27.9661 21.0351 28.4751 20.9095 28.9774C20.7839 29.4797 20.2749 29.7851 19.7726 29.6595L17.8043 29.1674C16.8837 28.9373 15.9419 28.8222 15 28.8222C14.0581 28.8222 13.1163 28.9373 12.1957 29.1674L10.2274 29.6595C9.72507 29.7851 9.21607 29.4797 9.09049 28.9774C8.96491 28.4751 9.27032 27.9661 9.77262 27.8405L11.7409 27.3484C12.5052 27.1573 13.282 27.0345 14.0625 26.9799V24.6875H11.208C9.49345 24.6875 8.14905 24.6875 7.06867 24.5992C5.96849 24.5093 5.05961 24.3233 4.23694 23.9041C2.88453 23.215 1.78498 22.1155 1.09589 20.7631C0.676723 19.9404 0.490653 19.0315 0.400765 17.9313C0.31249 16.8509 0.312494 15.5066 0.3125 13.7919V13.7081C0.312494 11.9934 0.31249 10.6491 0.400765 9.56867C0.490653 8.46849 0.676723 7.55961 1.09589 6.73694C1.78498 5.38453 2.88453 4.28498 4.23694 3.59589C5.05961 3.17672 5.96849 2.99065 7.06867 2.90077C8.14911 2.81249 9.4934 2.81249 11.2081 2.8125H18.7919ZM14.0625 20C14.0625 20.5178 14.4822 20.9375 15 20.9375L22.5 20.9375C23.0178 20.9375 23.4375 20.5178 23.4375 20C23.4375 19.4822 23.0178 19.0625 22.5 19.0625L15 19.0625C14.4822 19.0625 14.0625 19.4822 14.0625 20ZM10 20C10 20.6904 9.44036 21.25 8.75 21.25C8.05964 21.25 7.5 20.6904 7.5 20C7.5 19.3096 8.05964 18.75 8.75 18.75C9.44036 18.75 10 19.3096 10 20Z" fill="#FFD700"/>
</svg>
