<svg width="30" height="30" viewBox="0 0 30 30" fill="none" xmlns="http://www.w3.org/2000/svg">
<path fill-rule="evenodd" clip-rule="evenodd" d="M6.32634 3.69364C6.45777 3.59816 6.59368 3.51031 6.73492 3.42949C6.78028 3.53053 6.84446 3.62519 6.92743 3.70816C8.54063 5.32129 9.80687 6.58552 10.9231 7.47889C12.0531 8.38332 13.1114 8.97698 14.3306 9.1701C15.0756 9.28808 15.8344 9.28808 16.5794 9.1701C17.7646 8.98238 18.7975 8.41627 19.8922 7.55417C20.9729 6.70306 22.1861 5.50347 23.7133 3.97734C23.7623 3.92838 23.8048 3.87534 23.8407 3.81931C24.3025 4.17907 24.7118 4.60215 25.0564 5.07634C26.25 6.71925 26.25 9.06283 26.25 13.75V16.25C26.25 20.9372 26.25 23.2808 25.0564 24.9237C24.6709 25.4543 24.2043 25.9209 23.6737 26.3064C22.0307 27.5 19.6872 27.5 15 27.5C10.3128 27.5 7.96925 27.5 6.32634 26.3064C5.79575 25.9209 5.32914 25.4543 4.94364 24.9237C3.75 23.2808 3.75 20.9372 3.75 16.25V13.75C3.75 9.06283 3.75 6.71925 4.94364 5.07634C5.32914 4.54575 5.79575 4.07914 6.32634 3.69364ZM10 14.0625C9.48223 14.0625 9.0625 14.4822 9.0625 15C9.0625 15.5178 9.48223 15.9375 10 15.9375H13.75C14.2678 15.9375 14.6875 15.5178 14.6875 15C14.6875 14.4822 14.2678 14.0625 13.75 14.0625H10ZM10 19.0625C9.48223 19.0625 9.0625 19.4822 9.0625 20C9.0625 20.5178 9.48223 20.9375 10 20.9375H20C20.5178 20.9375 20.9375 20.5178 20.9375 20C20.9375 19.4822 20.5178 19.0625 20 19.0625H10Z" fill="#FFD700"/>
<path d="M15 2.5C18.3749 2.5 20.5348 2.5 22.093 2.94559C20.6925 4.34236 19.645 5.36218 18.7321 6.08112C17.7701 6.83868 17.0328 7.19991 16.2861 7.31818C15.7355 7.40539 15.1746 7.40539 14.624 7.31818C13.8558 7.19651 13.0977 6.81781 12.0947 6.01502C11.1608 5.26755 10.0863 4.21304 8.64575 2.77459C10.1359 2.5 12.128 2.5 15 2.5Z" fill="#FFD700"/>
</svg>
