<svg width="30" height="30" viewBox="0 0 30 30" fill="none" xmlns="http://www.w3.org/2000/svg">
<path fill-rule="evenodd" clip-rule="evenodd" d="M21.9314 25.9441C20.9899 26.25 19.8266 26.25 17.5 26.25H12.5C10.1734 26.25 9.0101 26.25 8.06864 25.9441C6.16591 25.3259 4.67413 23.8341 4.0559 21.9314C3.75 20.9899 3.75 17.3266 3.75 15V7.11735C3.75 5.97496 3.75 5.40376 3.93006 4.96311C4.10877 4.52573 4.4082 4.17284 4.7793 3.96221C5.15319 3.75 5.63784 3.75 6.60714 3.75C9.03039 3.75 10.242 3.75 11.1767 4.28052C12.1045 4.80709 12.8531 5.68933 13.2999 6.78277L13.3116 6.81156C13.7357 7.84897 14.6295 8.74802 15.7502 8.75406C18.1803 8.76714 21.2128 8.82242 21.9314 9.0559C23.8341 9.67413 25.3259 11.1659 25.9441 13.0686C26.25 14.0101 26.25 15.1734 26.25 17.5C26.25 19.8266 26.25 20.9899 25.9441 21.9314C25.3259 23.8341 23.8341 25.3259 21.9314 25.9441ZM15.9375 13.75C15.9375 13.2322 15.5178 12.8125 15 12.8125C14.4822 12.8125 14.0625 13.2322 14.0625 13.75V16.5625H11.25C10.7322 16.5625 10.3125 16.9822 10.3125 17.5C10.3125 18.0178 10.7322 18.4375 11.25 18.4375H14.0625V21.25C14.0625 21.7678 14.4822 22.1875 15 22.1875C15.5178 22.1875 15.9375 21.7678 15.9375 21.25V18.4375H18.75C19.2678 18.4375 19.6875 18.0178 19.6875 17.5C19.6875 16.9822 19.2678 16.5625 18.75 16.5625H15.9375V13.75Z" fill="#FFD700"/>
</svg>
