<svg width="30" height="30" viewBox="0 0 30 30" fill="none" xmlns="http://www.w3.org/2000/svg">
<path fill-rule="evenodd" clip-rule="evenodd" d="M12.5 1.5625C10.6015 1.5625 9.0625 3.10152 9.0625 5C9.0625 5.56264 9.19767 6.09371 9.43732 6.5625H5.625C3.38134 6.5625 1.5625 8.38134 1.5625 10.625C1.5625 11.7637 2.03162 12.7928 2.78472 13.5295C2.76658 13.9769 2.77726 14.4089 2.79029 14.9358C2.80065 15.3549 2.8125 15.834 2.8125 16.4286V16.462C2.8125 17.9591 2.81249 19.1284 2.87395 20.0721C2.93636 21.0303 3.06501 21.822 3.35393 22.5528C4.07621 24.3795 5.4673 25.8445 7.23503 26.6116C7.94674 26.9205 8.71635 27.0569 9.63844 27.1228C10.5435 27.1875 11.6633 27.1875 13.0885 27.1875H16.9114C18.3366 27.1875 19.4565 27.1875 20.3616 27.1228C21.2837 27.0569 22.0533 26.9205 22.765 26.6116C24.5327 25.8445 25.9238 24.3795 26.6461 22.5528C26.935 21.822 27.0636 21.0303 27.126 20.0721C27.1875 19.1285 27.1875 17.9592 27.1875 16.4622V16.3924C27.1875 15.0323 27.1875 14.3437 27.1407 13.6006C27.9373 12.8598 28.4375 11.8008 28.4375 10.625C28.4375 8.38134 26.6187 6.5625 24.375 6.5625H20.5627C20.8023 6.09371 20.9375 5.56264 20.9375 5C20.9375 3.10152 19.3985 1.5625 17.5 1.5625C16.515 1.5625 15.6267 1.97681 15 2.64067C14.3733 1.97681 13.485 1.5625 12.5 1.5625ZM12.5 3.4375C13.3629 3.4375 14.0625 4.13706 14.0625 5V6.5625H12.5C11.6371 6.5625 10.9375 5.86294 10.9375 5C10.9375 4.13706 11.6371 3.4375 12.5 3.4375ZM19.0625 5C19.0625 5.86294 18.3629 6.5625 17.5 6.5625H15.9375V5C15.9375 4.13706 16.6371 3.4375 17.5 3.4375C18.3629 3.4375 19.0625 4.13706 19.0625 5ZM3.4375 10.625C3.4375 9.41688 4.41688 8.4375 5.625 8.4375H14.0625V12.8125H5.625C5.14786 12.8125 4.70893 12.6608 4.35013 12.4029C3.79558 12.0042 3.4375 11.3564 3.4375 10.625ZM26.5625 10.625C26.5625 9.41688 25.5831 8.4375 24.375 8.4375H15.9375V12.8125H24.375C24.8436 12.8125 25.2752 12.6662 25.6304 12.4168C26.196 12.0194 26.5625 11.365 26.5625 10.625ZM4.65753 14.5714C4.96782 14.6473 5.29191 14.6875 5.625 14.6875H14.0625L14.0625 25.3125H13.125C11.6555 25.3125 10.6026 25.3119 9.77212 25.2526C8.951 25.1939 8.41828 25.0811 7.98142 24.8916C6.6863 24.3296 5.64397 23.2453 5.09758 21.8633C4.91074 21.3908 4.80152 20.8182 4.74499 19.9502C4.68796 19.0746 4.6875 17.9662 4.6875 16.4286C4.6875 15.6804 4.67341 15.1602 4.66216 14.7446L4.65753 14.5714ZM15.9375 14.6875L15.9375 25.3125H16.875C18.3445 25.3125 19.3974 25.3119 20.2279 25.2526C21.049 25.1939 21.5817 25.0811 22.0186 24.8916C23.3137 24.3296 24.356 23.2453 24.9024 21.8633C25.0893 21.3908 25.1985 20.8182 25.255 19.9502C25.312 19.0746 25.3125 17.9662 25.3125 16.4286C25.3125 15.6029 25.3124 15.0416 25.3034 14.5807C25.005 14.6506 24.6941 14.6875 24.375 14.6875H15.9375Z" fill="#0A0A0A"/>
</svg>
