<svg width="30" height="30" viewBox="0 0 30 30" fill="none" xmlns="http://www.w3.org/2000/svg">
<path d="M23.2235 9.81185C19.4801 7.9282 14.8003 8.55065 11.6757 11.6792C8.6284 14.7304 7.96173 19.2625 9.67569 22.9617C9.43771 22.8463 9.20211 22.717 8.96953 22.5731C8.73862 22.4302 8.62316 22.3588 8.53586 22.3241C8.36895 22.258 8.24236 22.2388 8.06337 22.2527C7.96977 22.2599 7.86371 22.2874 7.65162 22.3425C6.31677 22.6889 5.64928 22.8621 5.16845 22.7641C4.3339 22.5941 3.68169 21.941 3.51185 21.1054C3.41399 20.624 3.58698 19.9557 3.93296 18.6192C3.98796 18.4067 4.01545 18.3005 4.02266 18.2065C4.03639 18.0273 4.01688 17.899 3.95046 17.7321C3.91561 17.6444 3.84436 17.5297 3.70187 17.3001C1.12887 13.1546 3.12014 8.12892 5.63362 5.61228C9.7781 1.46257 16.4976 1.46257 20.6421 5.61228C21.8611 6.83282 22.7216 8.27642 23.2235 9.81185Z" fill="#FFD700"/>
<path fill-rule="evenodd" clip-rule="evenodd" d="M22.1728 26.5308C18.7557 28.6451 14.5454 26.9264 12.56 24.9386C9.14693 21.5212 9.14693 15.9805 12.56 12.5631C15.9731 9.14565 21.5069 9.14565 24.92 12.5631C26.9899 14.6356 28.6298 18.7743 26.5108 22.1883C26.3935 22.3774 26.3348 22.4719 26.3061 22.544C26.2514 22.6816 26.2353 22.7872 26.2466 22.9348C26.2526 23.0122 26.2752 23.0997 26.3205 23.2746C26.6054 24.3753 26.7479 24.9256 26.6673 25.3221C26.5274 26.0103 25.9903 26.5481 25.3031 26.6881C24.9071 26.7688 24.3574 26.6262 23.2581 26.3409C23.0835 26.2955 22.9961 26.2729 22.919 26.2669C22.7716 26.2555 22.6673 26.2713 22.5299 26.3258C22.458 26.3543 22.3629 26.4131 22.1728 26.5308ZM16.2502 18.75C16.2502 19.4404 15.6906 20 15.0002 20C14.3098 20 13.7502 19.4404 13.7502 18.75C13.7502 18.0596 14.3098 17.5 15.0002 17.5C15.6906 17.5 16.2502 18.0596 16.2502 18.75ZM20.0002 18.75C20.0002 19.4404 19.4406 20 18.7502 20C18.0598 20 17.5002 19.4404 17.5002 18.75C17.5002 18.0596 18.0598 17.5 18.7502 17.5C19.4406 17.5 20.0002 18.0596 20.0002 18.75ZM22.5002 20C23.1906 20 23.7502 19.4404 23.7502 18.75C23.7502 18.0596 23.1906 17.5 22.5002 17.5C21.8098 17.5 21.2502 18.0596 21.2502 18.75C21.2502 19.4404 21.8098 20 22.5002 20Z" fill="#FFD700"/>
</svg>
