<svg width="30" height="30" viewBox="0 0 30 30" fill="none" xmlns="http://www.w3.org/2000/svg">
<path d="M11.4413 6.76C13.025 3.92 13.8163 2.5 15 2.5C16.1838 2.5 16.975 3.92 18.5588 6.76L18.9688 7.495C19.4188 8.3025 19.6438 8.70625 19.9938 8.9725C20.3438 9.23875 20.7813 9.3375 21.6563 9.535L22.4513 9.715C25.5263 10.4112 27.0625 10.7588 27.4288 11.935C27.7938 13.11 26.7463 14.3363 24.65 16.7875L24.1075 17.4213C23.5125 18.1175 23.2138 18.4662 23.08 18.8962C22.9463 19.3275 22.9913 19.7925 23.0813 20.7212L23.1638 21.5675C23.48 24.8387 23.6388 26.4738 22.6813 27.2C21.7238 27.9275 20.2838 27.2638 17.4063 25.9387L16.66 25.5962C15.8425 25.2188 15.4338 25.0312 15 25.0312C14.5663 25.0312 14.1575 25.2188 13.34 25.5962L12.595 25.9387C9.7163 27.2638 8.2763 27.9263 7.32005 27.2013C6.3613 26.4737 6.52005 24.8387 6.8363 21.5675L6.9188 20.7225C7.0088 19.7925 7.0538 19.3275 6.9188 18.8975C6.7863 18.4663 6.48755 18.1175 5.89255 17.4225L5.35005 16.7875C3.2538 14.3375 2.2063 13.1112 2.5713 11.935C2.93755 10.7588 4.47505 10.41 7.55005 9.715L8.34505 9.535C9.2188 9.3375 9.65505 9.23875 10.0063 8.9725C10.3563 8.70625 10.5813 8.3025 11.0313 7.495L11.4413 6.76Z" fill="#FFD700"/>
</svg>
