<svg width="26" height="26" viewBox="0 0 26 26" fill="none" xmlns="http://www.w3.org/2000/svg">
<path d="M9.44124 4.76C11.025 1.92 11.8162 0.5 13 0.5C14.1837 0.5 14.975 1.92 16.5587 4.76L16.9687 5.495C17.4187 6.3025 17.6437 6.70625 17.9937 6.9725C18.3437 7.23875 18.7812 7.3375 19.6562 7.535L20.4512 7.715C23.5262 8.41125 25.0625 8.75875 25.4287 9.935C25.7937 11.11 24.7462 12.3363 22.65 14.7875L22.1075 15.4213C21.5125 16.1175 21.2137 16.4662 21.08 16.8962C20.9462 17.3275 20.9912 17.7925 21.0812 18.7212L21.1637 19.5675C21.48 22.8387 21.6387 24.4738 20.6812 25.2C19.7237 25.9275 18.2837 25.2638 15.4062 23.9387L14.66 23.5962C13.8425 23.2188 13.4337 23.0312 13 23.0312C12.5662 23.0312 12.1575 23.2188 11.34 23.5962L10.595 23.9387C7.71624 25.2638 6.27624 25.9263 5.31999 25.2013C4.36124 24.4737 4.51999 22.8387 4.83624 19.5675L4.91874 18.7225C5.00874 17.7925 5.05374 17.3275 4.91874 16.8975C4.78624 16.4663 4.48749 16.1175 3.89249 15.4225L3.34999 14.7875C1.25374 12.3375 0.206239 11.1112 0.571239 9.935C0.937489 8.75875 2.47499 8.41 5.54999 7.715L6.34499 7.535C7.21874 7.3375 7.65499 7.23875 8.00624 6.9725C8.35624 6.70625 8.58124 6.3025 9.03124 5.495L9.44124 4.76Z" fill="#858585"/>
</svg>
