<svg width="16" height="16" viewBox="0 0 16 16" fill="none" xmlns="http://www.w3.org/2000/svg">
<path fill-rule="evenodd" clip-rule="evenodd" d="M8 15.5C12.1421 15.5 15.5 12.1421 15.5 8C15.5 3.85786 12.1421 0.5 8 0.5C3.85786 0.5 0.5 3.85786 0.5 8C0.5 12.1421 3.85786 15.5 8 15.5ZM12.1691 6.1252C12.3763 5.89375 12.3567 5.53814 12.1252 5.33092C11.8938 5.1237 11.5381 5.14334 11.3309 5.3748L8.80404 8.19718C8.29202 8.76908 7.9472 9.15221 7.65239 9.39999C7.37155 9.63604 7.2066 9.6875 7.0625 9.6875C6.9184 9.6875 6.75345 9.63604 6.47261 9.39999C6.1778 9.1522 5.83298 8.76908 5.32096 8.19718L4.66908 7.46907C4.46186 7.23762 4.10625 7.21797 3.8748 7.42519C3.64334 7.63241 3.6237 7.98802 3.83092 8.21947L4.51065 8.97869C4.98754 9.51139 5.38531 9.95571 5.74876 10.2612C6.13324 10.5844 6.54794 10.8125 7.0625 10.8125C7.57705 10.8125 7.99176 10.5844 8.37624 10.2612C8.73969 9.95571 9.13746 9.51139 9.61435 8.9787L12.1691 6.1252Z" fill="#0A0A0A"/>
</svg>
