<svg width="30" height="30" viewBox="0 0 30 30" fill="none" xmlns="http://www.w3.org/2000/svg">
<path fill-rule="evenodd" clip-rule="evenodd" d="M15 30C23.2843 30 30 23.2843 30 15C30 6.71574 23.2843 0 15 0C6.71572 0 0 6.71574 0 15C0 23.2843 6.71572 30 15 30ZM19.6795 6.98764C19.9073 6.17854 19.1221 5.7001 18.405 6.21098L8.39485 13.3422C7.61717 13.8962 7.73949 15 8.5786 15H11.2145V14.9796H16.3519L12.1659 16.4566L10.3205 23.0124C10.0928 23.8215 10.8779 24.2999 11.595 23.789L21.6052 16.6579C22.3829 16.1038 22.2605 15 21.4215 15H17.4241L19.6795 6.98764Z" fill="#0EAC3A"/>
</svg>
