<svg width="113" height="6" viewBox="0 0 113 6" fill="none" xmlns="http://www.w3.org/2000/svg">
<path d="M0.333333 3C0.333333 4.47276 1.52724 5.66667 3 5.66667C4.47276 5.66667 5.66667 4.47276 5.66667 3C5.66667 1.52724 4.47276 0.333333 3 0.333333C1.52724 0.333333 0.333333 1.52724 0.333333 3ZM113 3L108 0.113249V5.88675L113 3ZM3 3.5H4.96429V2.5H3V3.5ZM8.89286 3.5H12.8214V2.5H8.89286V3.5ZM16.75 3.5H20.6786V2.5H16.75V3.5ZM24.6071 3.5H28.5357V2.5H24.6071V3.5ZM32.4643 3.5H36.3929V2.5H32.4643V3.5ZM40.3214 3.5H44.25V2.5H40.3214V3.5ZM48.1786 3.5H52.1071V2.5H48.1786V3.5ZM56.0357 3.5H59.9643V2.5H56.0357V3.5ZM63.8928 3.5H67.8214V2.5H63.8928V3.5ZM71.75 3.5H75.6786V2.5H71.75V3.5ZM79.6071 3.5H83.5357V2.5H79.6071V3.5ZM87.4643 3.5H91.3929V2.5H87.4643V3.5ZM95.3214 3.5H99.25V2.5H95.3214V3.5ZM103.179 3.5H107.107V2.5H103.179V3.5Z" fill="#858585"/>
</svg>
