<svg width="10" height="11" viewBox="0 0 10 11" fill="none" xmlns="http://www.w3.org/2000/svg">
<path d="M4.41322 0.618539C4.3767 0.581025 4.33303 0.551208 4.28479 0.530849C4.23655 0.510489 4.18472 0.5 4.13236 0.5C4.08 0.5 4.02817 0.510489 3.97994 0.530849C3.9317 0.551208 3.88803 0.581025 3.8515 0.618539C3.77661 0.695433 3.73471 0.798526 3.73471 0.905861C3.73471 1.0132 3.77661 1.11629 3.8515 1.19318L8.04977 5.49914L3.8515 9.80596C3.81371 9.84465 3.78391 9.89041 3.7638 9.94062C3.74369 9.99083 3.73368 10.0445 3.73431 10.0986C3.73496 10.1527 3.74624 10.2061 3.76753 10.2558C3.78882 10.3055 3.8197 10.3506 3.85839 10.3884C3.89525 10.4244 3.93885 10.4528 3.9867 10.4719C4.03455 10.4911 4.0857 10.5006 4.13724 10.5C4.18877 10.4993 4.23967 10.4885 4.28703 10.4682C4.33439 10.4479 4.37727 10.4184 4.41322 10.3815L8.8777 5.79982C8.95612 5.71937 9 5.61148 9 5.49914C9 5.3868 8.95612 5.27891 8.8777 5.19847L4.41322 0.618539ZM0.967077 0.618539C0.930552 0.581025 0.886881 0.551208 0.838642 0.530849C0.790403 0.510489 0.738576 0.5 0.686216 0.5C0.633858 0.5 0.582029 0.510489 0.533791 0.530849C0.485552 0.551208 0.441881 0.581025 0.405355 0.618539C0.330468 0.695433 0.288562 0.798526 0.288562 0.905861C0.288562 1.0132 0.330468 1.11629 0.405355 1.19318L4.60362 5.49914L0.405355 9.80596C0.367563 9.84465 0.337763 9.89041 0.317657 9.94062C0.297549 9.99083 0.28753 10.0445 0.28817 10.0986C0.28881 10.1527 0.300097 10.2061 0.321386 10.2558C0.342676 10.3055 0.37355 10.3506 0.412248 10.3884C0.449107 10.4244 0.492709 10.4528 0.540557 10.4719C0.588404 10.4911 0.639558 10.5006 0.691092 10.5C0.742625 10.4993 0.793528 10.4885 0.840884 10.4682C0.888241 10.4479 0.931123 10.4184 0.967077 10.3815L5.43156 5.79982C5.50997 5.71937 5.55385 5.61148 5.55385 5.49914C5.55385 5.3868 5.50997 5.27891 5.43156 5.19847L0.967077 0.618539Z" fill="#0A0A0A" stroke="#0A0A0A" stroke-width="0.5"/>
</svg>
