<svg width="28" height="29" viewBox="0 0 28 29" fill="none" xmlns="http://www.w3.org/2000/svg">
<path d="M22.0372 10.9203C22.2957 10.3935 22.0781 9.75689 21.5513 9.49847C21.0244 9.24004 20.3878 9.45763 20.1294 9.98446L18.0606 14.2019C17.4194 15.5092 15.5347 15.4453 14.9834 14.0977C13.7379 11.0532 9.4802 10.909 8.03156 13.8622L5.96275 18.0797C5.70432 18.6065 5.92191 19.2431 6.44874 19.5015C6.97558 19.76 7.61215 19.5424 7.87058 19.0155L9.93939 14.7981C10.5806 13.4908 12.4653 13.5547 13.0166 14.9023C14.2621 17.9468 18.5198 18.091 19.9684 15.1378L22.0372 10.9203Z" fill="#0A0A0A"/>
<path fill-rule="evenodd" clip-rule="evenodd" d="M20.3233 0.862782C18.7053 0.687479 16.6659 0.687489 14.0641 0.6875H13.9359C11.3341 0.687489 9.2947 0.687479 7.67667 0.862782C6.0255 1.04168 4.68762 1.41329 3.54533 2.24322C2.8538 2.74565 2.24565 3.3538 1.74322 4.04533C0.913293 5.18762 0.541676 6.5255 0.362782 8.17667C0.187479 9.7947 0.187489 11.8341 0.1875 14.4359V14.5641C0.187489 17.1659 0.187479 19.2053 0.362782 20.8233C0.541676 22.4745 0.913293 23.8124 1.74322 24.9547C2.24565 25.6462 2.85379 26.2544 3.54533 26.7568C4.68762 27.5867 6.0255 27.9583 7.67667 28.1372C9.29467 28.3125 11.3341 28.3125 13.9358 28.3125H14.0641C16.6658 28.3125 18.7053 28.3125 20.3233 28.1372C21.9745 27.9583 23.3124 27.5867 24.4547 26.7568C25.1462 26.2544 25.7544 25.6462 26.2568 24.9547C27.0867 23.8124 27.4583 22.4745 27.6372 20.8233C27.8125 19.2053 27.8125 17.1659 27.8125 14.5642V14.4359C27.8125 11.8342 27.8125 9.79467 27.6372 8.17667C27.4583 6.5255 27.0867 5.18762 26.2568 4.04533C25.7544 3.35379 25.1462 2.74565 24.4547 2.24322C23.3124 1.41329 21.9745 1.04168 20.3233 0.862782ZM4.79438 3.96238C5.51405 3.4395 6.43519 3.13472 7.90556 2.97542C9.39582 2.81396 11.3203 2.8125 14 2.8125C16.6797 2.8125 18.6042 2.81396 20.0944 2.97542C21.5648 3.13472 22.486 3.4395 23.2056 3.96238C23.7168 4.33374 24.1663 4.78324 24.5376 5.29438C25.0605 6.01405 25.3653 6.93519 25.5246 8.40556C25.686 9.89582 25.6875 11.8203 25.6875 14.5C25.6875 17.1797 25.686 19.1042 25.5246 20.5944C25.3653 22.0648 25.0605 22.986 24.5376 23.7056C24.1663 24.2168 23.7168 24.6663 23.2056 25.0376C22.486 25.5605 21.5648 25.8653 20.0944 26.0246C18.6042 26.186 16.6797 26.1875 14 26.1875C11.3203 26.1875 9.39582 26.186 7.90556 26.0246C6.43519 25.8653 5.51405 25.5605 4.79438 25.0376C4.28324 24.6663 3.83374 24.2168 3.46238 23.7056C2.9395 22.986 2.63472 22.0648 2.47542 20.5944C2.31396 19.1042 2.3125 17.1797 2.3125 14.5C2.3125 11.8203 2.31396 9.89582 2.47542 8.40556C2.63472 6.93519 2.9395 6.01405 3.46238 5.29438C3.83374 4.78324 4.28324 4.33374 4.79438 3.96238Z" fill="#0A0A0A"/>
</svg>
