<svg width="64" height="64" viewBox="0 0 64 64" fill="none" xmlns="http://www.w3.org/2000/svg">
<rect x="0.5" y="0.5" width="63" height="63" rx="31.5" fill="#FFF9D9"/>
<rect x="0.5" y="0.5" width="63" height="63" rx="31.5" stroke="#FFD700"/>
<path d="M31.6217 26.2803C31.7479 25.8791 32.2521 25.8791 32.3783 26.2803C32.7077 27.3275 33.6668 28.0686 34.7837 28.0686C34.8925 28.0686 34.9623 28.1009 35.0142 28.1424C35.0735 28.1898 35.1298 28.2671 35.162 28.3695C35.227 28.5763 35.171 28.7673 35.0061 28.8911C34.124 29.5531 33.7709 30.7078 34.0987 31.7499C34.1708 31.9791 34.0892 32.1616 33.9428 32.2715C33.8679 32.3277 33.7897 32.3522 33.7246 32.3542C33.6683 32.356 33.5931 32.3429 33.498 32.2715C32.6071 31.6029 31.3928 31.6029 30.502 32.2715C30.4069 32.3429 30.3316 32.356 30.2754 32.3542C30.2102 32.3522 30.1321 32.3277 30.0571 32.2715C29.9107 32.1616 29.8291 31.9791 29.9012 31.7499C30.229 30.7078 29.8759 29.5531 28.9938 28.8911C28.8289 28.7673 28.7729 28.5763 28.838 28.3695C28.8702 28.2671 28.9265 28.1898 28.9857 28.1424C29.0377 28.1009 29.1074 28.0686 29.2163 28.0686C30.3331 28.0686 31.2923 27.3275 31.6217 26.2803Z" fill="#FFD700"/>
<path fill-rule="evenodd" clip-rule="evenodd" d="M26.6496 17.1697C27.8786 16.7704 29.3536 16.7706 31.7709 16.771H32.2294C34.6466 16.7706 36.1217 16.7704 37.3507 17.1697C39.8306 17.9755 41.7748 19.9198 42.5806 22.3997L42.5928 22.4377H43.0067C48.2563 22.4377 50.5113 29.099 46.3413 32.2878L46.3262 32.2993L42.8394 34.7734C42.7093 34.8657 42.5748 34.9514 42.4363 35.0301C42.4212 35.0696 42.4058 35.1091 42.3899 35.1485C42.028 36.0475 41.3215 37.1263 40.642 37.8174C39.5347 38.9436 38.3888 39.443 36.559 40.2405L36.4374 40.2935C35.6492 40.6371 34.8522 40.9488 34.1122 41.1762C33.7618 41.2839 33.408 41.3779 33.0626 41.4462V45.1044H37.6668C38.2536 45.1044 38.7293 45.5801 38.7293 46.1669C38.7293 46.7537 38.2536 47.2294 37.6668 47.2294H26.3335C25.7467 47.2294 25.271 46.7537 25.271 46.1669C25.271 45.5801 25.7467 45.1044 26.3335 45.1044H30.9376V41.4462C30.5923 41.3779 30.2385 41.2839 29.888 41.1762C29.148 40.9488 28.3511 40.6371 27.5629 40.2935L27.4413 40.2405C25.6114 39.443 24.4655 38.9436 23.3582 37.8174C22.6788 37.1263 21.9723 36.0475 21.6103 35.1485C21.594 35.108 21.5781 35.0674 21.5627 35.0268C21.4271 34.9516 21.2957 34.8689 21.169 34.779L17.6742 32.2993L17.6591 32.2878C13.4891 29.099 15.7442 22.4377 20.9937 22.4377H21.4074L21.4196 22.3997C22.2254 19.9198 24.1697 17.9755 26.6496 17.1697ZM21.0678 24.5627H20.9937C17.7823 24.5627 16.3993 28.6303 18.9358 30.5889L21.0493 32.0885C21.0208 31.4053 21.0208 30.6417 21.0209 29.7562L21.021 27.6313C21.0209 26.3857 21.0209 25.3916 21.0678 24.5627ZM42.951 32.0886L45.0646 30.5889C47.6011 28.6303 46.2182 24.5627 43.0067 24.5627H42.9325C42.9794 25.3915 42.9793 26.3858 42.9793 27.6311L42.9793 29.7575C42.9794 30.6425 42.9795 31.4057 42.951 32.0886ZM34.4054 25.6427C33.6554 23.2583 30.3446 23.2583 29.5946 25.6427C29.5321 25.8412 29.3675 25.9436 29.2163 25.9436C26.701 25.9436 25.8165 29.1633 27.7183 30.5907C27.862 30.6986 27.9382 30.9086 27.8742 31.1123C27.5082 32.2758 27.9791 33.3689 28.7816 33.9711C29.589 34.577 30.7831 34.7174 31.7775 33.9711C31.9126 33.8697 32.0874 33.8697 32.2224 33.9711C33.2169 34.7174 34.411 34.577 35.2184 33.9711C36.0208 33.3689 36.4918 32.2758 36.1258 31.1123C36.0617 30.9086 36.1379 30.6986 36.2817 30.5907C38.1835 29.1633 37.299 25.9436 34.7837 25.9436C34.6325 25.9436 34.4678 25.8412 34.4054 25.6427Z" fill="#FFD700"/>
</svg>
