<svg width="18" height="14" viewBox="0 0 18 14" fill="none" xmlns="http://www.w3.org/2000/svg">
<path d="M4.47604 10.2676C4.1656 10.2676 3.91393 10.5193 3.91393 10.8298C3.91393 11.1402 4.1656 11.3919 4.47604 11.3919H5.975C6.28544 11.3919 6.53711 11.1402 6.53711 10.8298C6.53711 10.5193 6.28544 10.2676 5.975 10.2676H4.47604Z" fill="white"/>
<path d="M8.22344 10.2676C7.91299 10.2676 7.66133 10.5193 7.66133 10.8298C7.66133 11.1402 7.91299 11.3919 8.22344 11.3919H11.2214C11.5318 11.3919 11.7835 11.1402 11.7835 10.8298C11.7835 10.5193 11.5318 10.2676 11.2214 10.2676H8.22344Z" fill="white"/>
<path fill-rule="evenodd" clip-rule="evenodd" d="M12.9789 0.577336C12.3311 0.524408 11.5251 0.524411 10.497 0.524414H7.44881C6.42073 0.524411 5.61471 0.524408 4.9669 0.577336C4.30725 0.631232 3.7623 0.742796 3.26905 0.994122C2.45816 1.40729 1.79889 2.06656 1.38572 2.87744C1.0239 3.58757 0.946443 4.42124 0.924399 5.57264C0.916016 6.01049 0.916016 6.50919 0.916016 7.07802V7.10751C0.916012 8.13558 0.91601 8.9416 0.968938 9.58941C1.02283 10.2491 1.1344 10.794 1.38572 11.2873C1.79889 12.0982 2.45816 12.7574 3.26905 13.1706C3.7623 13.4219 4.30725 13.5335 4.9669 13.5874C5.6147 13.6403 6.4207 13.6403 7.44875 13.6403H10.497C11.5251 13.6403 12.3311 13.6403 12.9789 13.5874C13.6386 13.5335 14.1835 13.4219 14.6768 13.1706C15.4877 12.7574 16.1469 12.0982 16.5601 11.2873C16.8114 10.794 16.923 10.2491 16.9769 9.58941C17.0298 8.94161 17.0298 8.13561 17.0298 7.10756V7.07801C17.0298 6.50919 17.0298 6.01049 17.0214 5.57264C16.9994 4.42124 16.9219 3.58757 16.5601 2.87744C16.1469 2.06656 15.4877 1.40729 14.6768 0.994122C14.1835 0.742796 13.6386 0.631232 12.9789 0.577336ZM3.77943 1.99581C4.08779 1.83869 4.46833 1.74604 5.05845 1.69782C5.65514 1.64907 6.41531 1.64863 7.47396 1.64863H10.4719C11.5305 1.64863 12.2907 1.64907 12.8874 1.69782C13.4775 1.74604 13.858 1.83869 14.1664 1.99581C14.7658 2.30119 15.253 2.78848 15.5584 3.38783C15.7489 3.76158 15.84 4.22847 15.8789 5.02129H2.06697C2.10583 4.22847 2.19697 3.76158 2.38741 3.38783C2.69279 2.78848 3.18008 2.30119 3.77943 1.99581ZM2.04023 7.08236C2.04023 6.74152 2.04024 6.43086 2.04196 6.14551H15.9039C15.9056 6.43086 15.9056 6.74152 15.9056 7.08236C15.9056 8.141 15.9052 8.90118 15.8564 9.49787C15.8082 10.088 15.7155 10.4685 15.5584 10.7769C15.253 11.3762 14.7658 11.8635 14.1664 12.1689C13.858 12.326 13.4775 12.4187 12.8874 12.4669C12.2907 12.5156 11.5305 12.5161 10.4719 12.5161H7.47396C6.41531 12.5161 5.65514 12.5156 5.05845 12.4669C4.46833 12.4187 4.08779 12.326 3.77943 12.1689C3.18008 11.8635 2.69279 11.3762 2.38741 10.7769C2.23029 10.4685 2.13764 10.088 2.08942 9.49787C2.04067 8.90118 2.04023 8.141 2.04023 7.08236Z" fill="white"/>
</svg>
