<svg width="14" height="18" viewBox="0 0 14 18" fill="none" xmlns="http://www.w3.org/2000/svg">
<path fill-rule="evenodd" clip-rule="evenodd" d="M8.49099 4.37822C8.01696 2.87115 5.92901 2.87115 5.45497 4.37822C5.38738 4.59308 5.20117 4.72163 5.00937 4.72163C3.42868 4.72163 2.85677 6.7555 4.06517 7.66243C4.23169 7.7874 4.30983 8.01885 4.24139 8.23644C4.00914 8.97483 4.30702 9.66555 4.8152 10.0469C5.32601 10.4303 6.07637 10.5177 6.70361 10.0469C6.8655 9.92543 7.08046 9.92543 7.24236 10.0469C7.8696 10.5177 8.61995 10.4303 9.13076 10.0469C9.63894 9.66555 9.93682 8.97483 9.70457 8.23644C9.63613 8.01885 9.71427 7.7874 9.88079 7.66243C11.0892 6.75551 10.5173 4.72163 8.93659 4.72163C8.7448 4.72163 8.55858 4.59308 8.49099 4.37822ZM5.00937 5.84585C5.71205 5.84585 6.31857 5.37943 6.52739 4.71554C6.67141 4.25767 7.27455 4.25767 7.41858 4.71554C7.6274 5.37943 8.23392 5.84585 8.93659 5.84585C9.15399 5.84585 9.31622 5.97955 9.38218 6.18925C9.44855 6.40024 9.39434 6.6219 9.20596 6.76327C8.64884 7.1814 8.42419 7.91261 8.63215 8.57377C8.70893 8.81786 8.61704 9.02687 8.45593 9.14779C8.29745 9.26673 8.09899 9.28424 7.91718 9.14779C7.35544 8.72619 6.59052 8.72619 6.02878 9.14779C5.84697 9.28424 5.64851 9.26673 5.49003 9.14779C5.32892 9.02687 5.23703 8.81786 5.31381 8.57377C5.52177 7.91261 5.29712 7.1814 4.74 6.76327C4.55162 6.6219 4.49742 6.40024 4.56378 6.18925C4.62974 5.97955 4.79198 5.84585 5.00937 5.84585Z" fill="white"/>
<path fill-rule="evenodd" clip-rule="evenodd" d="M6.97298 0.25C3.35113 0.25 0.415039 3.18609 0.415039 6.80794C0.415039 8.39287 0.977948 9.84756 1.91403 10.9812L1.914 15.3812C1.91396 15.9287 1.91392 16.4029 1.96687 16.7586C2.02028 17.1173 2.15714 17.5676 2.62058 17.7749C3.07696 17.979 3.50545 17.7916 3.81547 17.6006C4.12562 17.4095 4.49447 17.102 4.9233 16.7445L5.66058 16.13C6.0706 15.7882 6.33896 15.5659 6.56161 15.4229C6.77077 15.2885 6.88305 15.2626 6.97298 15.2626C7.06292 15.2626 7.1752 15.2885 7.38435 15.4229C7.607 15.5659 7.87536 15.7882 8.28539 16.13L9.02265 16.7445C9.45149 17.102 9.82034 17.4095 10.1305 17.6006C10.4405 17.7916 10.869 17.979 11.3254 17.7749C11.7888 17.5676 11.9257 17.1173 11.9791 16.7586C12.032 16.4029 12.032 15.9287 12.032 15.3812L12.0319 10.9812C12.968 9.84756 13.5309 8.39287 13.5309 6.80794C13.5309 3.18609 10.5948 0.25 6.97298 0.25ZM1.53926 6.80794C1.53926 3.80698 3.97202 1.37422 6.97298 1.37422C9.97394 1.37422 12.4067 3.80698 12.4067 6.80794C12.4067 8.18638 11.8942 9.44374 11.0484 10.402C10.0519 11.531 8.59581 12.2417 6.97298 12.2417C5.3503 12.2417 3.89428 11.5311 2.89781 10.4023C2.05191 9.44401 1.53926 8.18653 1.53926 6.80794ZM3.07884 16.593C3.03974 16.3305 3.03822 15.9418 3.03822 15.336V12.0547C4.13404 12.8777 5.49669 13.3659 6.97298 13.3659C8.44927 13.3659 9.81193 12.8777 10.9077 12.0547V15.336C10.9077 15.9418 10.9062 16.3305 10.8671 16.593C10.8595 16.6442 10.8515 16.6829 10.8442 16.7119C10.8138 16.6977 10.7732 16.6761 10.7203 16.6435C10.4874 16.5 10.1809 16.2464 9.70878 15.8529L8.97913 15.2447C8.60239 14.9306 8.28042 14.6622 7.99187 14.4769C7.6832 14.2787 7.35833 14.1383 6.97298 14.1383C6.58763 14.1383 6.26276 14.2787 5.95409 14.4769C5.66555 14.6622 5.34358 14.9306 4.96683 15.2447L4.23718 15.8529C3.76506 16.2464 3.45859 16.5 3.22566 16.6435C3.1728 16.6761 3.13213 16.6977 3.10172 16.7119C3.09441 16.6829 3.08644 16.6442 3.07884 16.593ZM10.8164 16.789C10.8163 16.7886 10.8177 16.7858 10.821 16.7816C10.8182 16.7872 10.8166 16.7893 10.8164 16.789ZM10.9127 16.7376C10.9173 16.7376 10.9199 16.7382 10.92 16.7385C10.9202 16.7387 10.9179 16.7387 10.9127 16.7376ZM3.02592 16.7385C3.02606 16.7382 3.02866 16.7376 3.03331 16.7376C3.02809 16.7387 3.02577 16.7387 3.02592 16.7385ZM3.12953 16.789C3.12967 16.7886 3.12828 16.7858 3.12495 16.7816C3.1253 16.7823 3.12563 16.783 3.12594 16.7836C3.12812 16.7877 3.12941 16.7893 3.12953 16.789Z" fill="white"/>
</svg>
