<svg width="18" height="17" viewBox="0 0 18 17" fill="none" xmlns="http://www.w3.org/2000/svg">
<path fill-rule="evenodd" clip-rule="evenodd" d="M10.2454 4.70621C9.84865 3.44475 8.09709 3.44475 7.70031 4.70621C7.66728 4.81123 7.58015 4.8654 7.50017 4.8654C6.16948 4.8654 5.70152 6.5688 6.70766 7.32392C6.78373 7.38101 6.82402 7.49213 6.79013 7.59987C6.59651 8.21545 6.84567 8.7937 7.27019 9.1123C7.69734 9.43288 8.32909 9.50716 8.8552 9.1123C8.92664 9.05869 9.01911 9.05869 9.09055 9.11231C9.61666 9.50716 10.2484 9.43289 10.6756 9.1123C11.1001 8.7937 11.3492 8.21545 11.1556 7.59987C11.1217 7.49213 11.162 7.38101 11.2381 7.32392C12.2442 6.5688 11.7763 4.8654 10.4456 4.8654C10.3656 4.8654 10.2785 4.81123 10.2454 4.70621ZM8.77273 5.04353C8.83949 4.83127 9.10625 4.83127 9.17302 5.04353C9.34729 5.59757 9.85472 5.98962 10.4456 5.98962C10.5032 5.98962 10.5401 6.00671 10.5675 6.02867C10.5989 6.05373 10.6287 6.09464 10.6457 6.14881C10.6801 6.2582 10.6505 6.35929 10.5633 6.42477C10.0966 6.775 9.90979 7.38588 10.0832 7.9372C10.1213 8.05848 10.0782 8.15502 10.0007 8.21315C9.96109 8.24291 9.91973 8.25584 9.88525 8.25692C9.85551 8.25784 9.81569 8.25091 9.76538 8.21315C9.29409 7.85945 8.65166 7.85945 8.18037 8.21315C8.13006 8.25091 8.09023 8.25784 8.06049 8.25691C8.02602 8.25584 7.98466 8.24291 7.94501 8.21315C7.86756 8.15502 7.8244 8.05848 7.86255 7.9372C8.03596 7.38588 7.84915 6.775 7.38249 6.42477C7.29525 6.35929 7.26562 6.2582 7.30002 6.14881C7.31706 6.09464 7.34685 6.05373 7.3782 6.02867C7.40569 6.00671 7.44259 5.98962 7.50017 5.98962C8.09103 5.98962 8.59846 5.59757 8.77273 5.04353Z" fill="white"/>
<path fill-rule="evenodd" clip-rule="evenodd" d="M8.85166 0.0127075C7.57284 0.0125063 6.79247 0.0123835 6.14228 0.223642C4.83031 0.649929 3.8017 1.67854 3.37541 2.99052L3.36895 3.01064H3.15008C0.372851 3.01064 -0.820172 6.53474 1.38594 8.22177L1.39392 8.22787L3.24281 9.53973C3.30982 9.58728 3.37935 9.63103 3.45108 9.67082C3.4521 9.67351 3.45313 9.6762 3.45416 9.67888C3.46137 9.69768 3.46874 9.71646 3.47629 9.73521C3.66777 10.2108 4.04154 10.7815 4.401 11.1471C4.98681 11.743 5.59305 12.0072 6.56112 12.4291L6.62546 12.4571C7.04243 12.6389 7.46406 12.8038 7.85555 12.9241C8.04096 12.9811 8.22813 13.0308 8.41084 13.067V15.0023H5.97504C5.66459 15.0023 5.41293 15.254 5.41293 15.5644C5.41293 15.8749 5.66459 16.1265 5.97504 16.1265H11.9709C12.2813 16.1265 12.533 15.8749 12.533 15.5644C12.533 15.254 12.2813 15.0023 11.9709 15.0023H9.53506V13.067C9.71778 13.0308 9.90495 12.9811 10.0904 12.9241C10.4818 12.8038 10.9035 12.6389 11.3205 12.4571L11.3848 12.4291C12.3529 12.0072 12.9591 11.743 13.5449 11.1471C13.9044 10.7815 14.2781 10.2108 14.4696 9.73521C14.478 9.71436 14.4862 9.69348 14.4942 9.67257C14.5674 9.63091 14.6386 9.58558 14.7074 9.53675L16.5521 8.22787L16.5601 8.22177C18.7662 6.53474 17.5732 3.01064 14.7959 3.01064H14.577L14.5705 2.99052C14.1442 1.67854 13.1156 0.649929 11.8036 0.223642C11.1534 0.0123835 10.3731 0.0125063 9.09425 0.0127075H8.85166ZM2.06136 7.32299C0.719436 6.28678 1.45108 4.13486 3.15008 4.13486H3.18927C3.16444 4.57338 3.16446 5.09931 3.16449 5.75827L3.16448 6.88244C3.16443 7.35089 3.16438 7.7549 3.17947 8.11632L2.06136 7.32299ZM15.8847 7.32298L14.7664 8.11639C14.7815 7.75512 14.7815 7.35132 14.7814 6.88313L14.7814 5.75822C14.7814 5.09936 14.7815 4.57334 14.7566 4.13486H14.7959C16.4949 4.13486 17.2266 6.28678 15.8847 7.32298ZM6.48969 1.29284C6.94815 1.14387 7.53421 1.13694 8.97295 1.13694C10.4117 1.13694 10.9978 1.14387 11.4562 1.29284C12.4259 1.60792 13.1862 2.3682 13.5013 3.33792C13.533 3.43548 13.5589 3.54228 13.5798 3.66613C13.6552 4.11402 13.6572 4.71806 13.6572 5.82118V6.7958C13.6572 8.03024 13.6516 8.60728 13.4987 9.11109C13.4778 9.17991 13.454 9.24756 13.4267 9.31536C13.2906 9.65352 12.9988 10.099 12.7433 10.359C12.3239 10.7854 11.9178 10.9703 10.8712 11.4266C10.4768 11.5985 10.0971 11.7459 9.76011 11.8495C9.41485 11.9556 9.14986 12.0044 8.97295 12.0044C8.79605 12.0044 8.53106 11.9556 8.1858 11.8495C7.84877 11.7459 7.46913 11.5985 7.07475 11.4266C6.02814 10.9703 5.62197 10.7854 5.20265 10.359C4.94709 10.099 4.65531 9.65352 4.51917 9.31536C4.49107 9.24555 4.46664 9.17587 4.44531 9.10492C4.29418 8.60223 4.28871 8.02497 4.28871 6.7958V5.82118C4.28871 4.71806 4.29067 4.11402 4.36613 3.66613C4.38699 3.54228 4.41291 3.43548 4.44461 3.33792C4.75969 2.3682 5.51997 1.60792 6.48969 1.29284Z" fill="white"/>
</svg>
