<svg width="16" height="18" viewBox="0 0 16 18" fill="none" xmlns="http://www.w3.org/2000/svg">
<path d="M5.1875 10.5C5.1875 10.1893 5.43934 9.9375 5.75 9.9375H10.25C10.5607 9.9375 10.8125 10.1893 10.8125 10.5C10.8125 10.8107 10.5607 11.0625 10.25 11.0625H5.75C5.43934 11.0625 5.1875 10.8107 5.1875 10.5Z" fill="#0A0A0A"/>
<path fill-rule="evenodd" clip-rule="evenodd" d="M5.75 0.9375C6.06066 0.9375 6.3125 1.18934 6.3125 1.5V2.44545C6.81443 2.4375 7.37213 2.4375 7.99171 2.4375H8.00829C8.62787 2.4375 9.18557 2.4375 9.6875 2.44545V1.5C9.6875 1.18934 9.93934 0.9375 10.25 0.9375C10.5607 0.9375 10.8125 1.18934 10.8125 1.5V2.48519C11.9464 2.55627 12.8176 2.74001 13.5348 3.26111C13.9009 3.52711 14.2229 3.84907 14.4889 4.21518C15.0903 5.04292 15.2423 6.07566 15.2905 7.48074C15.3125 8.12365 15.3125 8.87168 15.3125 9.74174V9.75826C15.3125 10.6283 15.3125 11.3764 15.2905 12.0193C15.2423 13.4243 15.0903 14.4571 14.4889 15.2848C14.2229 15.6509 13.9009 15.9729 13.5348 16.2389C12.7071 16.8403 11.6743 16.9923 10.2693 17.0405C9.62631 17.0625 8.87822 17.0625 8.00809 17.0625H7.96605C6.58865 17.0625 5.50896 17.0625 4.65236 16.9697C3.7782 16.875 3.06992 16.6783 2.46518 16.2389C2.09907 15.9729 1.77711 15.6509 1.51111 15.2848C1.07174 14.6801 0.875005 13.9718 0.780296 13.0976C0.687489 12.241 0.687494 11.1613 0.6875 9.78394L0.6875 9.7417C0.6875 8.87166 0.6875 8.12364 0.709526 7.48074C0.757666 6.07566 0.909722 5.04292 1.51111 4.21518C1.77711 3.84907 2.09907 3.52711 2.46518 3.26111C3.18242 2.74001 4.05356 2.55627 5.1875 2.48519V1.5C5.1875 1.18934 5.43934 0.9375 5.75 0.9375ZM5.1875 3.61294C4.16596 3.68319 3.57633 3.84439 3.12643 4.17126C2.85583 4.36786 2.61786 4.60583 2.42126 4.87643C2.09439 5.32633 1.93319 5.91596 1.86294 6.9375H14.1371C14.0668 5.91596 13.9056 5.32633 13.5787 4.87643C13.3821 4.60583 13.1442 4.36786 12.8736 4.17126C12.4237 3.84439 11.834 3.68319 10.8125 3.61294V3.75C10.8125 4.06066 10.5607 4.3125 10.25 4.3125C9.93934 4.3125 9.6875 4.06066 9.6875 3.75V3.57059C9.19281 3.56254 8.63567 3.5625 8 3.5625C7.36433 3.5625 6.80719 3.56254 6.3125 3.57059V3.75C6.3125 4.06066 6.06066 4.3125 5.75 4.3125C5.43934 4.3125 5.1875 4.06066 5.1875 3.75V3.61294ZM14.1794 8.0625H1.82059C1.81254 8.55719 1.8125 9.11432 1.8125 9.75C1.8125 11.1687 1.81327 12.1875 1.89875 12.9765C1.98309 13.7549 2.14444 14.2426 2.42126 14.6236C2.61786 14.8942 2.85583 15.1321 3.12643 15.3287C3.50744 15.6056 3.9951 15.7669 4.77353 15.8512C5.56249 15.9367 6.58132 15.9375 8 15.9375C8.63626 15.9375 9.19384 15.9375 9.68887 15.9294C9.69214 15.5734 9.70322 15.3113 9.74059 15.0754C10.0329 13.2301 11.4801 11.7829 13.3254 11.4906C13.5613 11.4532 13.8234 11.4421 14.1794 11.4389C14.1875 10.9438 14.1875 10.3863 14.1875 9.75C14.1875 9.11432 14.1875 8.55719 14.1794 8.0625ZM14.1369 12.5646C13.8332 12.5681 13.6551 12.5774 13.5014 12.6017C12.1375 12.8178 11.0678 13.8875 10.8517 15.2514C10.8274 15.4051 10.8181 15.5832 10.8146 15.8869C11.8348 15.8166 12.424 15.6554 12.8736 15.3287C13.1442 15.1321 13.3821 14.8942 13.5787 14.6236C13.9054 14.174 14.0666 13.5848 14.1369 12.5646Z" fill="#0A0A0A"/>
</svg>
