<svg width="18" height="18" viewBox="0 0 18 18" fill="none" xmlns="http://www.w3.org/2000/svg">
<path d="M7.50905 6.1698C7.89298 5.01799 9.41254 4.7714 10.141 5.74269C10.5677 6.31165 10.538 7.10165 10.0696 7.63688L9.3807 8.42422C8.75544 9.1388 8.41081 10.056 8.41081 11.0056V11.2428C8.41081 11.5533 8.66247 11.8049 8.97292 11.8049C9.28336 11.8049 9.53503 11.5533 9.53503 11.2428V11.0056C9.53503 10.3284 9.78082 9.67417 10.2268 9.16453L10.9157 8.37718C11.7338 7.44217 11.7858 6.0621 11.0404 5.06816C9.76779 3.37138 7.11323 3.80216 6.44252 5.81429L6.19122 6.56821C6.09304 6.86272 6.25221 7.18106 6.54672 7.27923C6.84124 7.3774 7.15957 7.21823 7.25774 6.92372L7.50905 6.1698Z" fill="white"/>
<path fill-rule="evenodd" clip-rule="evenodd" d="M8.97292 0.9375C4.52321 0.9375 0.916016 4.5447 0.916016 8.9944C0.916016 13.4441 4.52321 17.0513 8.97292 17.0513C13.4226 17.0513 17.0298 13.4441 17.0298 8.9944C17.0298 4.5447 13.4226 0.9375 8.97292 0.9375ZM2.04023 8.9944C2.04023 5.16559 5.1441 2.06172 8.97292 2.06172C12.8017 2.06172 15.9056 5.16559 15.9056 8.9944C15.9056 12.8232 12.8017 15.9271 8.97292 15.9271C5.1441 15.9271 2.04023 12.8232 2.04023 8.9944Z" fill="white"/>
<path d="M9.7224 13.4913C9.7224 13.9052 9.38684 14.2408 8.97292 14.2408C8.55899 14.2408 8.22344 13.9052 8.22344 13.4913C8.22344 13.0774 8.55899 12.7418 8.97292 12.7418C9.38684 12.7418 9.7224 13.0774 9.7224 13.4913Z" fill="white"/>
</svg>
