<svg width="534" height="300" viewBox="0 0 534 300" fill="none" xmlns="http://www.w3.org/2000/svg">
<mask id="mask0_100_4773" style="mask-type:luminance" maskUnits="userSpaceOnUse" x="99" y="57" width="166" height="233">
<path d="M264.914 57.5H99.2906V289.167H264.914V57.5Z" fill="white"/>
</mask>
<g mask="url(#mask0_100_4773)">
<path d="M127.979 150.595C127.668 151.3 126.112 155.307 124.612 159.343L120.735 174.525C120.028 181.862 120.424 189.989 123.452 190.018C126.225 190.074 126.225 185.22 127.442 176.218C127.753 184.374 127.979 190.243 130.837 189.961C133.667 189.679 133.328 181.411 133.016 175.118C135.054 179.012 137.601 184.374 139.751 183.809C142.836 182.963 140.855 178.307 139.864 175.089C137.657 167.922 140.77 166.059 143.43 162.108C145.184 159.484 144.76 155.787 143.345 151.836L127.979 150.595Z" fill="white"/>
<path d="M123.511 190.865H123.434C123.072 190.856 122.715 190.771 122.388 190.614C122.062 190.458 121.772 190.234 121.538 189.957C118.903 187.038 119.611 177.346 119.891 174.445C119.895 174.402 119.903 174.359 119.913 174.317L123.79 159.135C123.798 159.106 123.807 159.078 123.817 159.05C125.28 155.114 126.866 151.02 127.203 150.255C127.276 150.095 127.395 149.96 127.547 149.871C127.698 149.781 127.873 149.739 128.049 149.752L143.415 150.994C143.578 151.007 143.733 151.067 143.863 151.166C143.992 151.265 144.091 151.4 144.146 151.553C145.874 156.379 145.872 159.986 144.137 162.579C143.644 163.313 143.145 163.962 142.663 164.593C140.533 167.37 138.994 169.378 140.677 174.842C140.794 175.223 140.926 175.624 141.061 176.037C141.882 178.548 142.815 181.396 141.84 183.205C141.647 183.559 141.381 183.868 141.06 184.113C140.739 184.358 140.371 184.534 139.978 184.627C137.825 185.192 135.881 182.303 134.022 178.867C134.217 185.488 133.815 190.517 130.923 190.805C130.578 190.844 130.23 190.811 129.899 190.707C129.568 190.603 129.263 190.431 129.003 190.202C128.009 189.337 127.472 187.567 127.148 185.091C126.55 188.841 125.737 190.865 123.511 190.865ZM121.574 174.671C120.913 181.594 121.404 187.278 122.799 188.824C122.876 188.928 122.975 189.012 123.09 189.073C123.204 189.133 123.33 189.166 123.46 189.171H123.481C124.993 189.171 125.392 185.883 126.051 180.451C126.208 179.153 126.387 177.683 126.6 176.104C126.629 175.894 126.735 175.702 126.898 175.566C127.062 175.43 127.27 175.361 127.482 175.371C127.695 175.381 127.895 175.47 128.045 175.621C128.195 175.772 128.282 175.973 128.29 176.184C128.516 182.114 128.73 187.716 130.12 188.924C130.205 189.001 130.305 189.059 130.415 189.092C130.525 189.126 130.64 189.134 130.754 189.117C131.026 189.089 131.942 188.694 132.258 184.725C132.495 181.756 132.298 177.786 132.169 175.159C132.159 174.966 132.216 174.776 132.33 174.619C132.443 174.463 132.607 174.351 132.794 174.3C132.981 174.25 133.179 174.264 133.357 174.341C133.534 174.419 133.68 174.554 133.769 174.725C133.944 175.06 134.123 175.406 134.305 175.757C135.243 177.569 136.306 179.622 137.335 181.088C138.699 183.03 139.363 183.035 139.535 182.99C139.705 182.956 139.865 182.886 140.004 182.784C140.144 182.682 140.26 182.551 140.343 182.4C140.974 181.23 140.126 178.641 139.446 176.56C139.307 176.137 139.173 175.727 139.053 175.337C137.114 169.039 139.153 166.379 141.313 163.562C141.78 162.953 142.262 162.323 142.725 161.636C144.062 159.635 144.062 156.608 142.725 152.634L128.529 151.486C127.979 152.849 126.699 156.165 125.424 159.593L121.574 174.671Z" fill="#0A0A0A"/>
<path d="M137.8 133.225C137.8 133.225 134.036 147.758 130.584 162.319C130.414 163.025 130.245 163.758 130.075 164.464C127.019 177.417 124.245 190.116 124.359 192.74L124.104 250.195L124.189 261.342H166.89V200.924L166.834 199.513L175.323 211.845L187.661 263.035L229.061 252.058L215.647 196.324C214.944 193.349 213.645 190.546 211.827 188.084L198.216 169.967L182.822 149.507L180.247 146.093L137.8 133.225Z" fill="white"/>
<path d="M187.661 263.882C187.47 263.882 187.285 263.818 187.135 263.7C186.985 263.582 186.88 263.418 186.835 263.233L174.535 212.195L167.739 202.324V261.342C167.739 261.567 167.65 261.782 167.491 261.941C167.331 262.099 167.115 262.189 166.89 262.189H124.189C123.965 262.189 123.75 262.1 123.591 261.943C123.432 261.786 123.342 261.572 123.34 261.348L123.255 250.202L123.51 192.754C123.4 189.782 126.568 175.632 129.248 164.27C129.333 163.915 129.418 163.556 129.503 163.197C129.588 162.839 129.673 162.476 129.758 162.121C133.172 147.721 136.94 133.158 136.977 133.013C137.006 132.902 137.057 132.799 137.127 132.708C137.196 132.618 137.284 132.542 137.384 132.486C137.484 132.43 137.594 132.395 137.707 132.383C137.821 132.371 137.936 132.381 138.046 132.414L180.493 145.283C180.665 145.335 180.816 145.44 180.925 145.584L183.5 148.998L198.894 169.458L212.505 187.575C214.395 190.128 215.744 193.038 216.472 196.128L229.885 251.859C229.937 252.074 229.903 252.3 229.789 252.49C229.676 252.68 229.492 252.818 229.278 252.875L187.878 263.852C187.807 263.871 187.734 263.881 187.661 263.882ZM166.833 198.666C166.971 198.666 167.107 198.699 167.229 198.763C167.351 198.827 167.455 198.92 167.533 199.033L176.023 211.365C176.081 211.45 176.124 211.546 176.148 211.647L188.283 261.994L228.042 251.452L214.822 196.522C214.147 193.655 212.896 190.955 211.143 188.585L197.537 170.474L182.143 150.015L179.735 146.822L138.401 134.292C137.545 137.622 134.347 150.127 131.41 162.514C131.325 162.869 131.24 163.227 131.155 163.587C131.071 163.946 130.986 164.309 130.901 164.662C127.137 180.613 125.115 190.573 125.207 192.705C125.207 192.718 125.207 192.732 125.207 192.745L124.953 250.201L125.031 260.497H166.041V200.941L165.985 199.547C165.98 199.433 165.999 199.319 166.039 199.212C166.08 199.106 166.142 199.008 166.221 198.926C166.3 198.844 166.395 198.778 166.501 198.734C166.606 198.689 166.719 198.666 166.834 198.666L166.833 198.666Z" fill="#0A0A0A"/>
<path d="M164.74 288.292L164.768 261.398H128.66C126.17 268.199 120.029 271.783 112.672 273.42C106.191 274.859 102.06 281.039 102.541 288.01V288.32L144.054 288.292L150.902 276.637L150.76 288.292H164.74Z" fill="white"/>
<path d="M102.541 289.167C102.316 289.167 102.1 289.078 101.941 288.919C101.781 288.76 101.692 288.545 101.692 288.32V288.038C101.191 280.588 105.727 274.095 112.487 272.593C120.556 270.798 125.73 266.934 127.862 261.108C127.922 260.945 128.031 260.804 128.173 260.705C128.316 260.605 128.486 260.552 128.66 260.552H164.768C164.993 260.552 165.209 260.641 165.368 260.8C165.527 260.958 165.617 261.174 165.617 261.398L165.589 288.292C165.589 288.516 165.499 288.732 165.34 288.89C165.181 289.049 164.965 289.138 164.74 289.138H150.761C150.648 289.138 150.537 289.116 150.433 289.073C150.33 289.03 150.236 288.967 150.157 288.887C150.078 288.807 150.015 288.713 149.973 288.609C149.931 288.505 149.91 288.394 149.912 288.282L150.014 279.822L144.786 288.72C144.711 288.847 144.605 288.953 144.476 289.026C144.348 289.1 144.202 289.138 144.054 289.138L102.542 289.167L102.541 289.167ZM129.243 262.245C126.783 268.338 121.274 272.374 112.857 274.247C107.056 275.535 103.125 281.055 103.363 287.473L143.567 287.445L150.17 276.209C150.265 276.048 150.41 275.923 150.584 275.853C150.757 275.783 150.949 275.772 151.13 275.822C151.31 275.872 151.469 275.98 151.581 276.129C151.694 276.278 151.754 276.46 151.751 276.647L151.62 287.445H163.892L163.919 262.245L129.243 262.245Z" fill="#0A0A0A"/>
<path d="M224.703 253.187C225.778 259.226 229.57 262.838 236.333 261.54L248.982 259.564C255.491 258.351 261.66 261.878 263.952 268.425L264.065 268.736L223.203 288.264L203.338 276.609L203.479 288.264H189.5L189.472 262.499L224.703 253.187Z" fill="white"/>
<path d="M223.203 289.111C223.052 289.111 222.903 289.07 222.773 288.994L204.205 278.101L204.328 288.254C204.33 288.367 204.309 288.478 204.267 288.582C204.225 288.685 204.162 288.78 204.083 288.86C204.004 288.939 203.91 289.003 203.807 289.046C203.703 289.089 203.592 289.111 203.479 289.111H189.5C189.275 289.111 189.059 289.022 188.9 288.863C188.741 288.705 188.651 288.489 188.651 288.265L188.623 262.5C188.623 262.313 188.685 262.132 188.799 261.984C188.913 261.836 189.073 261.73 189.254 261.682L224.485 252.369C224.599 252.339 224.717 252.333 224.833 252.351C224.949 252.369 225.06 252.411 225.159 252.474C225.258 252.537 225.343 252.619 225.409 252.717C225.474 252.814 225.518 252.924 225.539 253.039C226.085 256.104 227.361 258.401 229.229 259.683C231.012 260.905 233.349 261.251 236.173 260.709L236.201 260.704L248.85 258.728C255.807 257.432 262.356 261.303 264.754 268.147L264.863 268.447C264.935 268.645 264.931 268.862 264.851 269.056C264.771 269.251 264.622 269.409 264.432 269.5L223.57 289.028C223.456 289.082 223.33 289.111 223.203 289.111ZM190.349 287.417H202.62L202.489 276.62C202.487 276.47 202.525 276.322 202.6 276.191C202.674 276.061 202.782 275.952 202.912 275.877C203.042 275.802 203.19 275.762 203.341 275.763C203.491 275.763 203.639 275.804 203.768 275.88L223.244 287.306L263.003 268.305C260.773 262.515 255.133 259.277 249.137 260.397L236.479 262.374C233.199 263.001 230.435 262.565 228.267 261.076C226.211 259.665 224.764 257.312 224.05 254.234L190.322 263.151L190.349 287.417Z" fill="#0A0A0A"/>
<path d="M127.183 278.588C126.789 278.589 126.399 278.508 126.038 278.35C125.678 278.191 125.354 277.96 125.089 277.67C124.787 277.344 124.563 276.954 124.433 276.53C124.304 276.106 124.271 275.658 124.338 275.219L125.571 266.461L115.43 267.658C114.796 267.72 114.159 267.568 113.621 267.227C113.083 266.885 112.676 266.374 112.465 265.774L112.403 265.59C112.217 265.073 112.177 264.516 112.287 263.978C112.397 263.441 112.653 262.943 113.027 262.541C113.366 262.165 113.803 261.891 114.289 261.749C114.776 261.608 115.292 261.604 115.78 261.739L126.811 264.674C126.957 264.713 127.089 264.789 127.195 264.896C127.301 265.002 127.377 265.135 127.415 265.28L129.905 274.874C130.012 275.304 130.026 275.751 129.943 276.186C129.861 276.621 129.685 277.032 129.428 277.393C129.193 277.727 128.887 278.006 128.533 278.211C128.179 278.417 127.785 278.543 127.377 278.583C127.313 278.586 127.249 278.588 127.183 278.588ZM126.824 269.753L126.021 275.458V275.465C125.992 275.653 126.005 275.847 126.06 276.03C126.116 276.213 126.211 276.381 126.341 276.522C126.448 276.649 126.584 276.749 126.738 276.814C126.891 276.879 127.058 276.907 127.224 276.896C127.391 276.885 127.552 276.836 127.695 276.751C127.839 276.666 127.96 276.549 128.05 276.409C128.165 276.249 128.243 276.065 128.279 275.872C128.316 275.678 128.31 275.479 128.262 275.288L126.824 269.753ZM115.053 263.335C114.905 263.339 114.76 263.372 114.626 263.433C114.492 263.495 114.372 263.583 114.273 263.692C114.109 263.87 113.998 264.09 113.951 264.328C113.905 264.565 113.924 264.811 114.008 265.038L114.07 265.223C114.156 265.461 114.319 265.664 114.532 265.8C114.746 265.936 114.999 265.997 115.251 265.975L122.083 265.168L115.338 263.375C115.245 263.349 115.149 263.336 115.053 263.335Z" fill="#0A0A0A"/>
<path d="M180.728 219.041C180.605 219.041 180.484 219.014 180.372 218.963C180.261 218.912 180.162 218.837 180.082 218.744L174.649 212.394C174.503 212.223 174.431 212.002 174.448 211.778C174.466 211.554 174.572 211.346 174.744 211.201C174.915 211.055 175.137 210.983 175.362 211.001C175.586 211.018 175.794 211.124 175.941 211.295L181.374 217.645C181.479 217.768 181.547 217.918 181.569 218.078C181.591 218.239 181.567 218.402 181.499 218.549C181.431 218.696 181.322 218.82 181.186 218.907C181.049 218.995 180.89 219.041 180.728 219.041Z" fill="#0A0A0A"/>
<path d="M235.365 274.835C234.952 274.835 234.543 274.757 234.158 274.606C233.675 274.413 233.24 274.117 232.882 273.741C232.524 273.364 232.252 272.915 232.084 272.423L228.257 261.22C228.218 261.105 228.204 260.983 228.216 260.861C228.228 260.74 228.267 260.623 228.328 260.518L232.82 252.886C233.092 252.414 233.476 252.017 233.94 251.73C234.403 251.443 234.93 251.274 235.475 251.24C236.035 251.211 236.594 251.319 237.103 251.555C237.612 251.79 238.055 252.145 238.396 252.59C238.72 252.997 238.948 253.47 239.066 253.977C239.183 254.483 239.186 255.009 239.075 255.516C238.972 256.009 238.761 256.474 238.456 256.875C238.151 257.276 237.76 257.605 237.312 257.837L231.419 260.865L238.205 268.812C238.56 269.226 238.816 269.715 238.955 270.241C239.094 270.768 239.113 271.319 239.009 271.853C238.918 272.358 238.714 272.837 238.413 273.252C238.111 273.668 237.72 274.01 237.267 274.254L236.895 274.457C236.423 274.705 235.898 274.835 235.365 274.835ZM230.423 262.311L233.689 271.871C233.777 272.131 233.919 272.369 234.107 272.569C234.295 272.769 234.524 272.927 234.779 273.031C234.989 273.116 235.216 273.154 235.443 273.143C235.67 273.131 235.891 273.071 236.092 272.965L236.461 272.764C236.691 272.639 236.889 272.464 237.042 272.252C237.194 272.039 237.296 271.796 237.341 271.539C237.397 271.253 237.387 270.958 237.313 270.676C237.239 270.394 237.102 270.133 236.913 269.911L230.423 262.311ZM235.682 252.927C235.648 252.927 235.614 252.927 235.58 252.93C235.313 252.949 235.054 253.034 234.827 253.177C234.6 253.32 234.413 253.516 234.281 253.749L231.125 259.111L236.535 256.332C236.76 256.215 236.956 256.049 237.108 255.846C237.26 255.644 237.366 255.41 237.416 255.162C237.474 254.898 237.473 254.624 237.412 254.36C237.351 254.097 237.232 253.85 237.063 253.638C236.904 253.422 236.696 253.245 236.456 253.122C236.217 252.998 235.951 252.932 235.682 252.927Z" fill="#0A0A0A"/>
<path d="M138.338 235.747C139.729 235.747 140.856 234.622 140.856 233.235C140.856 231.848 139.729 230.724 138.338 230.724C136.947 230.724 135.819 231.848 135.819 233.235C135.819 234.622 136.947 235.747 138.338 235.747Z" fill="#0A0A0A"/>
<path d="M128.292 223.189C129.683 223.189 130.81 222.065 130.81 220.678C130.81 219.29 129.683 218.166 128.292 218.166C126.901 218.166 125.773 219.29 125.773 220.678C125.773 222.065 126.901 223.189 128.292 223.189Z" fill="#0A0A0A"/>
<path d="M164.089 231.373C165.48 231.373 166.607 230.248 166.607 228.861C166.607 227.474 165.48 226.35 164.089 226.35C162.698 226.35 161.57 227.474 161.57 228.861C161.57 230.248 162.698 231.373 164.089 231.373Z" fill="#0A0A0A"/>
<path d="M155.769 218.476C157.16 218.476 158.288 217.352 158.288 215.965C158.288 214.578 157.16 213.453 155.769 213.453C154.378 213.453 153.251 214.578 153.251 215.965C153.251 217.352 154.378 218.476 155.769 218.476Z" fill="#0A0A0A"/>
<path d="M153.182 232.03C154.232 231.121 154.345 229.535 153.434 228.487C152.523 227.439 150.932 227.327 149.881 228.235C148.831 229.144 148.718 230.73 149.629 231.778C150.54 232.826 152.131 232.939 153.182 232.03Z" fill="#0A0A0A"/>
<path d="M141.62 221.383C143.011 221.383 144.139 220.259 144.139 218.872C144.139 217.485 143.011 216.36 141.62 216.36C140.229 216.36 139.102 217.485 139.102 218.872C139.102 220.259 140.229 221.383 141.62 221.383Z" fill="#0A0A0A"/>
<path d="M131.829 208.882C133.22 208.882 134.348 207.757 134.348 206.37C134.348 204.983 133.22 203.858 131.829 203.858C130.438 203.858 129.311 204.983 129.311 206.37C129.311 207.757 130.438 208.882 131.829 208.882Z" fill="#0A0A0A"/>
<path d="M146.488 206.68C147.878 206.68 149.006 205.556 149.006 204.169C149.006 202.782 147.878 201.657 146.488 201.657C145.097 201.657 143.969 202.782 143.969 204.169C143.969 205.556 145.097 206.68 146.488 206.68Z" fill="#0A0A0A"/>
<path d="M136.159 194.151C137.55 194.151 138.677 193.027 138.677 191.639C138.677 190.252 137.55 189.128 136.159 189.128C134.768 189.128 133.64 190.252 133.64 191.639C133.64 193.027 134.768 194.151 136.159 194.151Z" fill="#0A0A0A"/>
<path d="M161.344 204.706C162.735 204.706 163.862 203.581 163.862 202.194C163.862 200.807 162.735 199.683 161.344 199.683C159.953 199.683 158.825 200.807 158.825 202.194C158.825 203.581 159.953 204.706 161.344 204.706Z" fill="#0A0A0A"/>
<path d="M153.053 191.639C154.444 191.639 155.571 190.515 155.571 189.128C155.571 187.741 154.444 186.616 153.053 186.616C151.662 186.616 150.534 187.741 150.534 189.128C150.534 190.515 151.662 191.639 153.053 191.639Z" fill="#0A0A0A"/>
<path d="M141.96 178.799C143.351 178.799 144.478 177.675 144.478 176.288C144.478 174.901 143.351 173.776 141.96 173.776C140.569 173.776 139.441 174.901 139.441 176.288C139.441 177.675 140.569 178.799 141.96 178.799Z" fill="#0A0A0A"/>
<path d="M128.292 173.523C128.611 173.375 128.959 173.298 129.311 173.297C129.979 173.297 130.619 173.561 131.092 174.032C131.564 174.504 131.829 175.142 131.829 175.808C131.829 176.475 131.564 177.113 131.092 177.584C130.619 178.055 129.979 178.32 129.311 178.32C128.867 178.321 128.431 178.204 128.048 177.981C127.665 177.758 127.348 177.436 127.132 177.05" fill="#0A0A0A"/>
<path d="M162.759 245.285C164.15 245.285 165.277 244.16 165.277 242.773C165.277 241.386 164.15 240.262 162.759 240.262C161.368 240.262 160.24 241.386 160.24 242.773C160.24 244.16 161.368 245.285 162.759 245.285Z" fill="#0A0A0A"/>
<path d="M151.936 246.226C152.987 245.317 153.1 243.73 152.189 242.683C151.278 241.635 149.687 241.522 148.636 242.431C147.585 243.339 147.472 244.926 148.384 245.974C149.295 247.022 150.886 247.134 151.936 246.226Z" fill="#0A0A0A"/>
<path d="M150.663 258.558C151.714 257.649 151.827 256.063 150.916 255.015C150.004 253.967 148.414 253.854 147.363 254.763C146.312 255.671 146.199 257.258 147.11 258.306C148.021 259.354 149.612 259.466 150.663 258.558Z" fill="#0A0A0A"/>
<path d="M137.206 248.785C138.597 248.785 139.724 247.66 139.724 246.273C139.724 244.886 138.597 243.762 137.206 243.762C135.815 243.762 134.687 244.886 134.687 246.273C134.687 247.66 135.815 248.785 137.206 248.785Z" fill="#0A0A0A"/>
<path d="M135.819 261.822C137.21 261.822 138.338 260.697 138.338 259.31C138.338 257.923 137.21 256.799 135.819 256.799C134.428 256.799 133.301 257.923 133.301 259.31C133.301 260.697 134.428 261.822 135.819 261.822Z" fill="#0A0A0A"/>
<path d="M124.415 247.91C125.083 247.91 125.724 248.175 126.196 248.646C126.668 249.117 126.934 249.756 126.934 250.422C126.934 251.088 126.668 251.727 126.196 252.198C125.724 252.669 125.083 252.933 124.415 252.933" fill="#0A0A0A"/>
<path d="M125.123 232.135C125.791 232.135 126.431 232.399 126.904 232.87C127.376 233.341 127.641 233.98 127.641 234.646C127.641 235.312 127.376 235.951 126.904 236.422C126.431 236.893 125.791 237.158 125.123 237.158" fill="#0A0A0A"/>
<path d="M161.57 259.198C162.961 259.198 164.089 258.073 164.089 256.686C164.089 255.299 162.961 254.175 161.57 254.175C160.179 254.175 159.052 255.299 159.052 256.686C159.052 258.073 160.179 259.198 161.57 259.198Z" fill="#0A0A0A"/>
<path d="M199.065 230.385C200.456 230.385 201.583 229.261 201.583 227.874C201.583 226.487 200.456 225.362 199.065 225.362C197.674 225.362 196.546 226.487 196.546 227.874C196.546 229.261 197.674 230.385 199.065 230.385Z" fill="#0A0A0A"/>
<path d="M189.019 217.828C190.41 217.828 191.538 216.703 191.538 215.316C191.538 213.929 190.41 212.805 189.019 212.805C187.628 212.805 186.501 213.929 186.501 215.316C186.501 216.703 187.628 217.828 189.019 217.828Z" fill="#0A0A0A"/>
<path d="M216.496 213.115C217.887 213.115 219.015 211.99 219.015 210.603C219.015 209.216 217.887 208.092 216.496 208.092C215.105 208.092 213.978 209.216 213.978 210.603C213.978 211.99 215.105 213.115 216.496 213.115Z" fill="#0A0A0A"/>
<path d="M212.223 227.309C213.614 227.309 214.742 226.185 214.742 224.798C214.742 223.411 213.614 222.286 212.223 222.286C210.833 222.286 209.705 223.411 209.705 224.798C209.705 226.185 210.833 227.309 212.223 227.309Z" fill="#0A0A0A"/>
<path d="M202.347 216.021C203.738 216.021 204.866 214.897 204.866 213.51C204.866 212.123 203.738 210.998 202.347 210.998C200.957 210.998 199.829 212.123 199.829 213.51C199.829 214.897 200.957 216.021 202.347 216.021Z" fill="#0A0A0A"/>
<path d="M192.556 203.52C193.947 203.52 195.075 202.396 195.075 201.009C195.075 199.622 193.947 198.497 192.556 198.497C191.166 198.497 190.038 199.622 190.038 201.009C190.038 202.396 191.166 203.52 192.556 203.52Z" fill="#0A0A0A"/>
<path d="M207.186 201.319C208.577 201.319 209.705 200.195 209.705 198.807C209.705 197.42 208.577 196.296 207.186 196.296C205.796 196.296 204.668 197.42 204.668 198.807C204.668 200.195 205.796 201.319 207.186 201.319Z" fill="#0A0A0A"/>
<path d="M196.858 188.79C198.249 188.79 199.376 187.665 199.376 186.278C199.376 184.891 198.249 183.767 196.858 183.767C195.467 183.767 194.339 184.891 194.339 186.278C194.339 187.665 195.467 188.79 196.858 188.79Z" fill="#0A0A0A"/>
<path d="M223.514 239.924C224.905 239.924 226.033 238.799 226.033 237.412C226.033 236.025 224.905 234.9 223.514 234.9C222.123 234.9 220.996 236.025 220.996 237.412C220.996 238.799 222.123 239.924 223.514 239.924Z" fill="#0A0A0A"/>
<path d="M210.978 241.504C212.369 241.504 213.497 240.379 213.497 238.992C213.497 237.605 212.369 236.48 210.978 236.48C209.587 236.48 208.46 237.605 208.46 238.992C208.46 240.379 209.587 241.504 210.978 241.504Z" fill="#0A0A0A"/>
<path d="M209.705 253.836C211.096 253.836 212.223 252.711 212.223 251.324C212.223 249.937 211.096 248.812 209.705 248.812C208.314 248.812 207.186 249.937 207.186 251.324C207.186 252.711 208.314 253.836 209.705 253.836Z" fill="#0A0A0A"/>
<path d="M197.933 243.423C199.324 243.423 200.452 242.298 200.452 240.911C200.452 239.524 199.324 238.399 197.933 238.399C196.542 238.399 195.415 239.524 195.415 240.911C195.415 242.298 196.542 243.423 197.933 243.423Z" fill="#0A0A0A"/>
<path d="M196.546 256.461C197.937 256.461 199.065 255.336 199.065 253.949C199.065 252.562 197.937 251.438 196.546 251.438C195.156 251.438 194.028 252.562 194.028 253.949C194.028 255.336 195.156 256.461 196.546 256.461Z" fill="#0A0A0A"/>
<path d="M185.114 247.599C186.505 247.599 187.633 246.475 187.633 245.088C187.633 243.701 186.505 242.576 185.114 242.576C183.723 242.576 182.596 243.701 182.596 245.088C182.596 246.475 183.723 247.599 185.114 247.599Z" fill="#0A0A0A"/>
<path d="M185.878 231.825C187.269 231.825 188.397 230.7 188.397 229.313C188.397 227.926 187.269 226.802 185.878 226.802C184.487 226.802 183.36 227.926 183.36 229.313C183.36 230.7 184.487 231.825 185.878 231.825Z" fill="#0A0A0A"/>
<path d="M222.297 253.836C223.688 253.836 224.816 252.711 224.816 251.324C224.816 249.937 223.688 248.812 222.297 248.812C220.907 248.812 219.779 249.937 219.779 251.324C219.779 252.711 220.907 253.836 222.297 253.836Z" fill="#0A0A0A"/>
<path d="M160.071 169.515C161.461 169.515 162.589 168.391 162.589 167.004C162.589 165.617 161.461 164.492 160.071 164.492C158.68 164.492 157.552 165.617 157.552 167.004C157.552 168.391 158.68 169.515 160.071 169.515Z" fill="#0A0A0A"/>
<path d="M151.818 156.193C152.745 155.16 152.657 153.572 151.621 152.647C150.585 151.722 148.993 151.809 148.065 152.843C147.137 153.876 147.225 155.464 148.261 156.389C149.298 157.314 150.89 157.227 151.818 156.193Z" fill="#0A0A0A"/>
<path d="M177.474 152.245C178.865 152.245 179.992 151.12 179.992 149.733C179.992 148.346 178.865 147.222 177.474 147.222C176.083 147.222 174.955 148.346 174.955 149.733C174.955 151.12 176.083 152.245 177.474 152.245Z" fill="#0A0A0A"/>
<path d="M173.201 166.439C174.592 166.439 175.719 165.315 175.719 163.928C175.719 162.54 174.592 161.416 173.201 161.416C171.81 161.416 170.682 162.54 170.682 163.928C170.682 165.315 171.81 166.439 173.201 166.439Z" fill="#0A0A0A"/>
<path d="M163.325 155.152C164.716 155.152 165.843 154.028 165.843 152.64C165.843 151.253 164.716 150.129 163.325 150.129C161.934 150.129 160.806 151.253 160.806 152.64C160.806 154.028 161.934 155.152 163.325 155.152Z" fill="#0A0A0A"/>
<path d="M153.562 142.65C154.953 142.65 156.08 141.526 156.08 140.139C156.08 138.751 154.953 137.627 153.562 137.627C152.171 137.627 151.043 138.751 151.043 140.139C151.043 141.526 152.171 142.65 153.562 142.65Z" fill="#0A0A0A"/>
<path d="M184.492 179.053C185.882 179.053 187.01 177.929 187.01 176.542C187.01 175.155 185.882 174.03 184.492 174.03C183.101 174.03 181.973 175.155 181.973 176.542C181.973 177.929 183.101 179.053 184.492 179.053Z" fill="#0A0A0A"/>
<path d="M200.48 171.547C200.48 172.043 200.332 172.529 200.055 172.942C199.779 173.355 199.385 173.677 198.925 173.867C198.465 174.057 197.959 174.107 197.47 174.01C196.982 173.913 196.533 173.674 196.181 173.323C195.828 172.971 195.588 172.524 195.491 172.037C195.394 171.549 195.444 171.045 195.635 170.586C195.825 170.127 196.148 169.734 196.562 169.458C196.976 169.182 197.463 169.035 197.961 169.035" fill="#0A0A0A"/>
<path d="M187.633 161.98C189.024 161.98 190.151 160.856 190.151 159.469C190.151 158.082 189.024 156.957 187.633 156.957C186.242 156.957 185.114 158.082 185.114 159.469C185.114 160.856 186.242 161.98 187.633 161.98Z" fill="#0A0A0A"/>
<path d="M141.054 143.836C142.445 143.836 143.573 142.711 143.573 141.324C143.573 139.937 142.445 138.812 141.054 138.812C139.663 138.812 138.536 139.937 138.536 141.324C138.536 142.711 139.663 143.836 141.054 143.836Z" fill="#0A0A0A"/>
<path d="M171.956 180.633C173.347 180.633 174.474 179.509 174.474 178.122C174.474 176.735 173.347 175.61 171.956 175.61C170.565 175.61 169.437 176.735 169.437 178.122C169.437 179.509 170.565 180.633 171.956 180.633Z" fill="#0A0A0A"/>
<path d="M157.524 180.578C158.915 180.578 160.042 179.453 160.042 178.066C160.042 176.679 158.915 175.555 157.524 175.555C156.133 175.555 155.005 176.679 155.005 178.066C155.005 179.453 156.133 180.578 157.524 180.578Z" fill="#0A0A0A"/>
<path d="M177.474 205.58C178.865 205.58 179.992 204.455 179.992 203.068C179.992 201.681 178.865 200.557 177.474 200.557C176.083 200.557 174.955 201.681 174.955 203.068C174.955 204.455 176.083 205.58 177.474 205.58Z" fill="#0A0A0A"/>
<path d="M168.135 194.151C169.526 194.151 170.654 193.027 170.654 191.639C170.654 190.252 169.526 189.128 168.135 189.128C166.744 189.128 165.617 190.252 165.617 191.639C165.617 193.027 166.744 194.151 168.135 194.151Z" fill="#0A0A0A"/>
<path d="M137.63 163.843C139.021 163.843 140.149 162.719 140.149 161.332C140.149 159.945 139.021 158.82 137.63 158.82C136.239 158.82 135.112 159.945 135.112 161.332C135.112 162.719 136.239 163.843 137.63 163.843Z" fill="#0A0A0A"/>
<path d="M183.275 192.965C184.666 192.965 185.793 191.841 185.793 190.454C185.793 189.067 184.666 187.942 183.275 187.942C181.884 187.942 180.756 189.067 180.756 190.454C180.756 191.841 181.884 192.965 183.275 192.965Z" fill="#0A0A0A"/>
<path d="M187.689 263.854C187.498 263.854 187.313 263.79 187.164 263.672C187.014 263.554 186.908 263.39 186.864 263.205L174.563 212.166L167.767 202.296V261.342C167.767 261.567 167.678 261.782 167.519 261.941C167.36 262.1 167.144 262.189 166.919 262.189H124.217C123.993 262.189 123.778 262.101 123.619 261.943C123.46 261.786 123.37 261.572 123.368 261.349L123.283 250.202L123.538 192.756C123.313 186.866 136.283 135.514 136.835 133.328C136.863 133.218 136.913 133.114 136.983 133.023C137.052 132.932 137.139 132.856 137.238 132.8C137.337 132.743 137.447 132.707 137.56 132.694C137.674 132.681 137.789 132.691 137.899 132.723L180.515 145.253C180.69 145.304 180.844 145.41 180.954 145.556L183.529 148.97L198.923 169.43L212.534 187.547C214.424 190.1 215.773 193.01 216.501 196.1L229.914 251.831C229.966 252.046 229.931 252.272 229.818 252.462C229.704 252.652 229.521 252.79 229.307 252.847L187.907 263.824C187.836 263.843 187.763 263.853 187.689 263.854ZM166.862 198.638C167 198.638 167.135 198.671 167.257 198.735C167.379 198.799 167.484 198.892 167.562 199.005L176.051 211.337C176.11 211.422 176.153 211.518 176.177 211.619L188.311 261.966L228.07 251.424L214.85 196.493C214.175 193.627 212.924 190.927 211.171 188.558L197.564 170.446L182.17 149.987L179.765 146.798L138.266 134.597C133.549 153.287 125.042 188.337 125.235 192.703C125.235 192.716 125.235 192.731 125.235 192.744L124.98 250.199L125.059 260.496H166.07V200.913L166.013 199.519C166.008 199.405 166.027 199.291 166.067 199.185C166.108 199.078 166.17 198.981 166.249 198.898C166.328 198.816 166.424 198.751 166.529 198.706C166.634 198.661 166.747 198.638 166.862 198.639V198.638Z" fill="#0A0A0A"/>
<path d="M131.829 162.206C131.945 163.743 131.643 165.283 130.956 166.663C130.269 168.044 129.222 169.214 127.924 170.051C126.657 170.806 125.536 171.781 124.613 172.93C120.963 177.699 120.001 177.276 118.614 177.078C115.388 176.598 123.595 162.799 126.453 155.151" fill="white"/>
<path d="M119.569 178.024C119.274 178.02 118.979 177.994 118.688 177.945L118.494 177.917C118.238 177.884 117.995 177.79 117.783 177.644C117.572 177.497 117.399 177.302 117.278 177.075C116.3 175.245 118.366 170.703 121.819 163.445C123.259 160.416 124.749 157.285 125.657 154.855C125.736 154.645 125.895 154.474 126.1 154.381C126.305 154.288 126.539 154.28 126.75 154.358C126.961 154.437 127.132 154.596 127.225 154.8C127.319 155.004 127.327 155.237 127.248 155.448C126.315 157.946 124.809 161.11 123.353 164.17C122.018 166.977 120.637 169.879 119.744 172.178C118.555 175.236 118.693 176.066 118.76 176.244L118.945 176.272C119.967 176.429 120.774 176.552 123.939 172.417C124.921 171.192 126.114 170.15 127.461 169.341C128.629 168.584 129.572 167.528 130.191 166.284C130.811 165.039 131.084 163.652 130.983 162.267C130.966 162.043 131.04 161.821 131.188 161.652C131.335 161.482 131.544 161.378 131.769 161.362C131.993 161.345 132.215 161.419 132.385 161.566C132.555 161.713 132.66 161.921 132.676 162.145C132.799 163.833 132.466 165.522 131.712 167.038C130.957 168.553 129.809 169.839 128.386 170.761C127.202 171.465 126.152 172.373 125.287 173.444C122.372 177.253 120.964 178.024 119.569 178.024Z" fill="#0A0A0A"/>
<path d="M100.22 118.014C99.8284 113.852 100.918 109.684 103.298 106.243C105.678 102.801 109.197 100.305 113.237 99.1913L147.365 89.8223C152.356 88.6336 157.576 88.8091 162.476 90.3303L171.39 93.124L201.385 106.133L187.434 136.385L180.19 146.064L140.715 134.184L139.049 133.704L141.337 119.876L134.823 120.949L139.049 133.704L131.852 161.963L105.597 127.157C103.418 124.307 101.069 121.513 100.22 118.014Z" fill="white"/>
<path d="M131.852 162.81C131.72 162.81 131.59 162.779 131.472 162.721C131.355 162.662 131.252 162.577 131.173 162.471L104.919 127.666C104.718 127.403 104.511 127.135 104.305 126.868C102.29 124.257 100.207 121.557 99.3953 118.213C99.386 118.174 99.3794 118.134 99.3755 118.094C98.9603 113.734 100.1 109.366 102.593 105.76C105.087 102.154 108.775 99.5391 113.01 98.3759L147.14 89.0069C147.149 89.0041 147.159 89.0019 147.168 88.9993C152.308 87.7784 157.682 87.9593 162.728 89.5231L171.643 92.3168C171.672 92.3256 171.701 92.336 171.728 92.3479L201.724 105.357C201.828 105.402 201.921 105.467 201.999 105.549C202.077 105.63 202.138 105.726 202.178 105.831C202.218 105.936 202.237 106.048 202.233 106.161C202.23 106.273 202.204 106.384 202.157 106.486L188.206 136.738C188.181 136.791 188.151 136.843 188.115 136.89L180.871 146.57C180.767 146.709 180.622 146.813 180.456 146.867C180.291 146.922 180.112 146.924 179.945 146.874L140.47 134.993L139.656 134.759L132.675 162.17C132.636 162.325 132.553 162.465 132.437 162.575C132.321 162.685 132.176 162.76 132.019 162.791C131.964 162.803 131.908 162.809 131.852 162.81ZM101.06 117.873C101.796 120.841 103.669 123.267 105.65 125.835C105.858 126.105 106.065 126.374 106.273 126.644L131.465 160.043L138.165 133.736L134.016 121.216C133.978 121.1 133.965 120.977 133.979 120.855C133.993 120.734 134.033 120.617 134.096 120.512C134.16 120.408 134.245 120.318 134.346 120.25C134.448 120.181 134.563 120.135 134.684 120.115L141.199 119.042C141.332 119.02 141.469 119.03 141.597 119.071C141.725 119.112 141.842 119.183 141.938 119.278C142.033 119.373 142.104 119.49 142.146 119.618C142.187 119.746 142.197 119.882 142.175 120.015L140.009 133.1L140.95 133.371L179.866 145.082L186.701 135.951L200.252 106.565L171.092 93.9186L162.221 91.1381C157.472 89.667 152.414 89.4959 147.576 90.6428L113.463 100.008C109.623 101.062 106.276 103.43 104.009 106.695C101.742 109.961 100.698 113.918 101.06 117.873ZM135.94 121.624L138.773 130.175L140.307 120.905L135.94 121.624Z" fill="#0A0A0A"/>
<path d="M174.021 82.5421L168.645 91.8546C167.978 93.0138 167.613 94.321 167.584 95.6568C167.554 96.9927 167.86 98.3147 168.475 99.5022L168.786 100.095C169.277 101.021 169.947 101.84 170.758 102.506C171.568 103.173 172.502 103.672 173.507 103.977C174.512 104.281 175.568 104.384 176.613 104.28C177.658 104.175 178.672 103.865 179.596 103.368C180.853 102.684 181.907 101.681 182.652 100.462L186.246 94.5073C189.124 94.5718 191.927 93.5914 194.134 91.7485C196.342 89.9057 197.802 87.3259 198.244 84.4893C198.399 83.5187 198.427 82.5323 198.329 81.5544C198.107 79.0941 197.117 76.7651 195.499 74.8945C195.873 74.0192 196.129 73.099 196.263 72.1572C196.405 70.7875 196.405 69.4069 196.263 68.0371L182.992 66.4004L179.568 70.6616L175.804 70.5205C170.852 70.3512 168.164 76.1926 171.503 79.833L174.021 82.5421Z" fill="white"/>
<path d="M175.824 105.168C174.95 105.167 174.081 105.037 173.246 104.782C172.135 104.448 171.102 103.896 170.208 103.159C169.314 102.422 168.575 101.515 168.036 100.491L167.723 99.8945C167.04 98.582 166.699 97.1192 166.731 95.6408C166.763 94.1624 167.168 92.7158 167.908 91.4343L172.973 82.6599L170.879 80.4082C170.022 79.4788 169.459 78.3172 169.262 77.0696C169.064 75.822 169.242 74.5441 169.771 73.3967C170.3 72.2493 171.158 71.2836 172.236 70.6212C173.315 69.9588 174.566 69.6293 175.831 69.674L179.17 69.7993L182.327 65.8706C182.418 65.7579 182.536 65.6702 182.67 65.6159C182.804 65.5616 182.95 65.5424 183.094 65.5601L196.366 67.1969C196.556 67.2204 196.733 67.3074 196.867 67.4439C197.001 67.5804 197.085 67.7582 197.106 67.9484C197.255 69.3905 197.253 70.8442 197.1 72.286C196.979 73.1249 196.769 73.9487 196.474 74.7434C198.016 76.676 198.955 79.018 199.173 81.4783C199.279 82.528 199.247 83.5869 199.08 84.6285C198.611 87.5789 197.116 90.2707 194.857 92.2321C192.597 94.1935 189.718 95.2993 186.723 95.3557L183.377 100.898C182.552 102.245 181.388 103.353 180.001 104.111C178.717 104.802 177.282 105.165 175.824 105.168ZM175.599 71.3632C174.682 71.3642 173.786 71.6312 173.018 72.1319C172.251 72.6325 171.647 73.345 171.279 74.1825C170.911 75.02 170.795 75.9462 170.946 76.848C171.097 77.7498 171.508 78.5883 172.129 79.2611L174.644 81.9663C174.767 82.0988 174.845 82.2672 174.865 82.4468C174.885 82.6264 174.847 82.8078 174.757 82.9644L169.38 92.2769C168.783 93.3123 168.455 94.481 168.429 95.6754C168.402 96.8699 168.678 98.0519 169.229 99.1126L169.538 99.7018C169.977 100.528 170.576 101.26 171.3 101.855C172.024 102.45 172.859 102.896 173.757 103.167C174.654 103.439 175.597 103.53 176.53 103.437C177.464 103.343 178.369 103.066 179.195 102.622C180.321 102.01 181.264 101.112 181.928 100.019L185.519 94.0705C185.596 93.9422 185.706 93.8365 185.837 93.7645C185.968 93.6924 186.117 93.6565 186.267 93.6605C188.938 93.716 191.538 92.8039 193.586 91.0934C195.634 89.383 196.991 86.9901 197.406 84.3582C197.55 83.4553 197.577 82.5375 197.484 81.6279C197.281 79.3438 196.361 77.1816 194.856 75.4478C194.752 75.3273 194.684 75.18 194.66 75.0228C194.636 74.8656 194.657 74.7048 194.721 74.5589C195.064 73.7517 195.301 72.9032 195.424 72.0349C195.537 70.9581 195.554 69.8733 195.474 68.7936L183.358 67.2979L180.23 71.1905C180.148 71.2942 180.042 71.377 179.921 71.432C179.8 71.487 179.668 71.5128 179.536 71.5072L175.772 71.3661C175.714 71.364 175.657 71.3631 175.599 71.3632Z" fill="#0A0A0A"/>
<path d="M197.367 68.7142C197.049 66.047 195.892 63.5487 194.063 61.5771C192.234 59.6055 189.826 58.2619 187.184 57.7388C184.542 57.2156 181.802 57.5398 179.356 58.6648C176.91 59.7898 174.884 61.6579 173.569 64.0016C173.401 64.2745 173.25 64.5572 173.116 64.8481C172.623 65.9157 172.281 67.0456 172.097 68.2063C172.04 68.5732 172.012 68.9682 171.984 69.3351H172.04C173.314 69.5326 174.672 69.448 175.861 69.9841C176.879 70.4357 177.7 71.2822 178.379 72.1571C179.568 73.6527 180.756 75.8538 179.992 77.7728C180.07 77.7674 180.147 77.7483 180.219 77.7164C180.319 77.6673 180.407 77.596 180.475 77.508C180.544 77.42 180.592 77.3175 180.615 77.2084L181.605 70.859C181.764 69.8922 182.299 69.027 183.094 68.4511C183.888 67.8752 184.879 67.6352 185.85 67.783L196.546 69.4762C196.652 69.4919 196.759 69.485 196.862 69.4558C196.964 69.4266 197.06 69.3758 197.141 69.3069C197.233 69.2417 197.304 69.1506 197.345 69.045C197.385 68.9394 197.393 68.8243 197.367 68.7142Z" fill="#FFD700"/>
<path d="M185.963 75.9951C186.651 75.9951 187.208 75.4391 187.208 74.7534C187.208 74.0676 186.651 73.5117 185.963 73.5117C185.275 73.5117 184.718 74.0676 184.718 74.7534C184.718 75.4391 185.275 75.9951 185.963 75.9951Z" fill="#0A0A0A"/>
<path d="M194.424 76.3906C195.112 76.3906 195.669 75.8347 195.669 75.1489C195.669 74.4631 195.112 73.9072 194.424 73.9072C193.736 73.9072 193.179 74.4631 193.179 75.1489C193.179 75.8347 193.736 76.3906 194.424 76.3906Z" fill="#0A0A0A"/>
<path d="M186.472 95.3816C185.826 95.3768 185.181 95.3269 184.541 95.232C181.899 94.8238 179.453 93.5944 177.552 91.7189C177.397 91.5592 177.312 91.3454 177.314 91.1234C177.315 90.9014 177.405 90.6891 177.562 90.5321C177.72 90.3752 177.932 90.2861 178.155 90.2842C178.378 90.2823 178.592 90.3676 178.752 90.5218C180.398 92.1427 182.513 93.2053 184.799 93.5588C185.353 93.6406 185.912 93.6838 186.472 93.6884C186.697 93.6884 186.913 93.7776 187.072 93.9363C187.231 94.0951 187.32 94.3104 187.32 94.535C187.32 94.7595 187.231 94.9748 187.072 95.1336C186.913 95.2924 186.697 95.3816 186.472 95.3816H186.472Z" fill="#0A0A0A"/>
<path d="M192.528 80.2276C192.5 80.2276 192.472 80.2276 192.442 80.2234L189.131 79.8848C189.02 79.8734 188.913 79.8404 188.814 79.7877C188.716 79.7349 188.63 79.6633 188.559 79.5771C188.489 79.4909 188.436 79.3917 188.404 79.2852C188.372 79.1787 188.362 79.0669 188.373 78.9563C188.384 78.8457 188.417 78.7384 188.47 78.6406C188.523 78.5427 188.595 78.4562 188.681 78.386C188.768 78.3158 188.867 78.2633 188.974 78.2314C189.081 78.1996 189.193 78.189 189.304 78.2003L191.467 78.4216L190.479 73.5678C190.434 73.3477 190.479 73.1189 190.604 72.9317C190.728 72.7445 190.922 72.6143 191.142 72.5696C191.363 72.525 191.593 72.5696 191.78 72.6937C191.968 72.8177 192.099 73.011 192.143 73.2311L193.36 79.2137C193.385 79.3367 193.383 79.4638 193.353 79.5857C193.322 79.7077 193.265 79.8214 193.186 79.9186C193.106 80.0159 193.006 80.0942 192.892 80.148C192.778 80.2018 192.654 80.2297 192.528 80.2296L192.528 80.2276Z" fill="#0A0A0A"/>
<path d="M174.021 82.5423C173.465 82.5936 172.904 82.5746 172.352 82.4859C171.079 82.2877 169.893 81.7175 168.945 80.8473C167.996 79.9771 167.328 78.8461 167.024 77.5972C166.721 76.3483 166.795 75.0376 167.238 73.8309C167.682 72.6243 168.474 71.5758 169.515 70.818C170.555 70.0603 171.798 69.6274 173.086 69.574C174.373 69.5206 175.648 69.8491 176.748 70.5181C177.848 71.187 178.725 72.1663 179.267 73.3321C179.809 74.498 179.993 75.7979 179.794 77.0677" fill="white"/>
<path d="M173.442 83.4181C173.034 83.4166 172.628 83.3848 172.225 83.323C170.786 83.0999 169.445 82.4562 168.372 81.4733C167.3 80.4904 166.544 79.2123 166.2 77.8009C165.856 76.3894 165.939 74.9078 166.439 73.5436C166.94 72.1794 167.834 70.9937 169.01 70.1366C170.186 69.2794 171.591 68.7893 173.046 68.7282C174.501 68.6671 175.942 69.0377 177.186 69.7932C178.43 70.5487 179.422 71.6552 180.035 72.9727C180.649 74.2901 180.857 75.7594 180.633 77.1948C180.618 77.3063 180.581 77.4138 180.524 77.511C180.467 77.6082 180.391 77.693 180.301 77.7606C180.211 77.8282 180.108 77.8772 179.999 77.9047C179.889 77.9322 179.775 77.9377 179.664 77.9208C179.552 77.9039 179.445 77.865 179.349 77.8064C179.253 77.7478 179.169 77.6706 179.103 77.5793C179.037 77.4881 178.99 77.3846 178.964 77.2749C178.939 77.1653 178.935 77.0517 178.955 76.9408C179.128 75.8363 178.969 74.7053 178.498 73.6908C178.027 72.6764 177.265 71.8241 176.308 71.2417C175.351 70.6594 174.242 70.3732 173.122 70.4193C172.002 70.4654 170.921 70.8418 170.015 71.5009C169.11 72.1599 168.42 73.072 168.035 74.1218C167.649 75.1715 167.584 76.3117 167.849 77.3982C168.113 78.4846 168.695 79.4685 169.52 80.2253C170.345 80.9821 171.376 81.4778 172.484 81.6498C172.963 81.7272 173.449 81.7443 173.932 81.7006C174.156 81.6771 174.38 81.7432 174.555 81.8844C174.73 82.0257 174.842 82.2305 174.865 82.4538C174.889 82.6771 174.822 82.9006 174.681 83.0751C174.539 83.2497 174.334 83.3609 174.11 83.3845C173.888 83.4073 173.665 83.4185 173.442 83.4181Z" fill="#0A0A0A"/>
<path d="M172.324 78.676C172.139 78.6762 171.958 78.6159 171.81 78.5042C171.663 78.3925 171.556 78.2356 171.506 78.0574C171.456 77.8792 171.466 77.6897 171.534 77.5177C171.602 77.3457 171.725 77.2007 171.884 77.105L173.742 75.9841L170.583 74.5347C170.482 74.4882 170.391 74.4223 170.315 74.3407C170.24 74.2592 170.181 74.1635 170.142 74.0592C170.103 73.9549 170.086 73.8441 170.09 73.733C170.094 73.6219 170.12 73.5127 170.167 73.4117C170.261 73.2077 170.433 73.0494 170.644 72.9715C170.748 72.9329 170.86 72.9153 170.971 72.9196C171.082 72.9239 171.192 72.95 171.293 72.9964L175.906 75.1129C176.046 75.1772 176.166 75.2783 176.253 75.4053C176.339 75.5324 176.39 75.6806 176.399 75.8342C176.407 75.9877 176.374 76.1407 176.302 76.2767C176.23 76.4127 176.123 76.5267 175.991 76.6063L172.765 78.5535C172.632 78.6338 172.48 78.6762 172.324 78.676Z" fill="#0A0A0A"/>
<path d="M192.868 83.4166H192.858L187.793 83.3602C187.568 83.359 187.352 83.2686 187.194 83.1089C187.036 82.9493 186.947 82.7335 186.948 82.5089C186.95 82.2844 187.04 82.0696 187.2 81.9117C187.361 81.7538 187.577 81.6658 187.802 81.667H187.897L192.877 81.7234C193.102 81.7247 193.318 81.8151 193.476 81.9747C193.634 82.1343 193.723 82.3502 193.721 82.5747C193.72 82.7992 193.629 83.0141 193.469 83.172C193.309 83.3299 193.093 83.4179 192.868 83.4166H192.868Z" fill="#0A0A0A"/>
<path d="M201.951 119.058C193.773 119.933 188.538 110.79 193.745 104.582C193.83 104.497 193.886 104.412 193.971 104.328C196.377 101.675 198.301 98.5709 196.914 93.6325C195.924 90.1332 193.858 85.0537 197.311 84.2353C199.688 83.6709 202.348 89.5124 204.47 93.7453C204.357 86.9444 204.215 78.0269 207.385 77.8012C210.554 77.5472 211.29 84.0095 211.318 92.7859C212.988 83.1065 212.478 77.773 215.563 77.8858C220.628 78.0834 218.449 98.063 215.761 104.807L214.346 109.182C212.62 114.572 207.724 118.438 201.951 119.058Z" fill="white"/>
<path d="M200.908 119.961C199.076 119.973 197.276 119.487 195.7 118.555C194.124 117.623 192.833 116.28 191.966 114.67C191.048 112.994 190.664 111.079 190.866 109.179C191.067 107.28 191.844 105.487 193.093 104.039C193.109 104.02 193.126 104.001 193.143 103.984C193.167 103.96 193.186 103.936 193.205 103.913C193.251 103.857 193.299 103.802 193.353 103.747C195.882 100.953 197.314 98.2016 196.096 93.8609C195.976 93.4356 195.839 92.9844 195.698 92.5204C194.879 89.8277 193.951 86.776 195.042 84.8822C195.263 84.5049 195.562 84.1788 195.919 83.9253C196.277 83.6719 196.684 83.4969 197.114 83.4119C199.503 82.8436 201.591 86.2006 203.583 90.0803C203.576 82.5778 204.138 77.1838 207.323 76.9581C207.72 76.9249 208.119 76.9758 208.495 77.1076C208.87 77.2393 209.214 77.4488 209.502 77.7223C210.59 78.7204 211.306 80.6247 211.719 83.8271C212.303 79.4891 212.944 76.9414 215.592 77.0411C216.247 77.0667 217.185 77.3424 217.948 78.5116C221.012 83.2102 218.897 99.1967 216.558 105.095L215.152 109.442C213.329 115.134 208.183 119.241 202.041 119.901C201.665 119.941 201.287 119.961 200.908 119.961ZM194.376 105.148C193.356 106.339 192.723 107.811 192.56 109.369C192.397 110.927 192.712 112.497 193.464 113.872C195.102 116.931 198.32 118.594 201.86 118.216C207.334 117.628 211.918 113.98 213.537 108.924L214.952 104.547C214.958 104.529 214.964 104.512 214.971 104.494C217.346 98.5372 219.07 83.3341 216.525 79.433C216.129 78.8237 215.766 78.7407 215.528 78.7314H215.482C214.125 78.7314 213.788 80.9469 213.165 85.8936C212.908 87.9308 212.618 90.2394 212.154 92.9299C212.118 93.1388 212.005 93.3268 211.836 93.4565C211.668 93.5863 211.458 93.6484 211.246 93.6307C211.034 93.613 210.837 93.5167 210.692 93.3608C210.548 93.2049 210.468 93.0008 210.468 92.7888C210.451 87.6731 210.213 80.6746 208.353 78.9676C208.237 78.8504 208.095 78.7607 207.939 78.705C207.783 78.6492 207.616 78.6288 207.452 78.6453C206.563 78.7088 205.869 80.4421 205.539 83.4015C205.197 86.4693 205.261 90.3275 205.318 93.7316C205.321 93.9235 205.259 94.1108 205.141 94.2628C205.024 94.4147 204.858 94.5223 204.671 94.5679C204.484 94.6136 204.287 94.5945 204.112 94.5139C203.938 94.4332 203.796 94.2958 203.71 94.1242C203.534 93.774 203.355 93.4125 203.172 93.0445C201.724 90.1271 199.03 84.7002 197.506 85.0583C197.303 85.0915 197.108 85.1683 196.937 85.2834C196.766 85.3984 196.621 85.549 196.514 85.7248C195.789 86.9843 196.639 89.7809 197.322 92.0283C197.467 92.5032 197.607 92.9646 197.73 93.4017C199.249 98.8123 197 102.248 194.6 104.895C194.59 104.906 194.581 104.916 194.571 104.926C194.547 104.949 194.529 104.973 194.509 104.996C194.468 105.048 194.425 105.098 194.377 105.149L194.376 105.148Z" fill="#0A0A0A"/>
<path d="M202.376 164.266C198.039 164.264 193.88 162.545 190.813 159.486C187.746 156.428 186.022 152.28 186.02 147.955V108.476H218.704V147.955C218.708 150.096 218.289 152.217 217.471 154.196C216.652 156.175 215.45 157.974 213.933 159.489C212.416 161.004 210.615 162.206 208.632 163.025C206.649 163.845 204.523 164.267 202.376 164.266Z" fill="white"/>
<path d="M202.376 165.113C197.814 165.107 193.441 163.298 190.216 160.082C186.99 156.865 185.176 152.504 185.171 147.955V108.475C185.171 108.251 185.26 108.036 185.419 107.877C185.579 107.718 185.794 107.629 186.02 107.629H218.704C218.929 107.629 219.145 107.718 219.304 107.877C219.463 108.036 219.553 108.251 219.553 108.475V147.955C219.557 150.207 219.116 152.438 218.255 154.52C217.394 156.602 216.129 158.494 214.534 160.087C212.938 161.681 211.043 162.945 208.957 163.808C206.87 164.67 204.634 165.113 202.376 165.113ZM186.869 109.322V147.955C186.868 151.014 187.777 154.005 189.482 156.549C191.187 159.093 193.61 161.075 196.445 162.244C199.28 163.413 202.399 163.718 205.408 163.118C208.416 162.518 211.179 161.042 213.345 158.876C214.785 157.445 215.925 155.742 216.699 153.868C217.474 151.993 217.866 149.984 217.855 147.956V109.322H186.869Z" fill="#0A0A0A"/>
</g>
<mask id="mask1_100_4773" style="mask-type:luminance" maskUnits="userSpaceOnUse" x="309" y="119" width="75" height="162">
<path d="M339.906 119.047L309.011 127.726L352.208 280.954L383.103 272.275L339.906 119.047Z" fill="white"/>
</mask>
<g mask="url(#mask1_100_4773)">
<path d="M367.653 276.605C367.185 276.737 366.697 276.46 366.564 275.988L330.173 146.841C330.04 146.369 330.312 145.88 330.78 145.748C331.248 145.617 331.735 145.893 331.868 146.365L368.259 275.512C368.392 275.984 368.12 276.474 367.653 276.605Z" fill="#0A0A0A"/>
<path d="M336.838 119.913C335.132 120.39 334.141 122.173 334.624 123.894C334.625 123.895 334.625 123.896 334.625 123.897C334.14 122.176 332.363 121.169 330.658 121.648C330.657 121.648 330.656 121.648 330.655 121.649C328.949 122.128 327.96 123.911 328.445 125.632C327.96 123.911 326.183 122.904 324.477 123.383C324.476 123.383 324.475 123.384 324.474 123.384C322.768 123.861 321.777 125.644 322.261 127.365C322.261 127.366 322.262 127.367 322.262 127.368C321.777 125.649 320.004 124.642 318.3 125.118C316.591 125.585 315.59 127.362 316.065 129.087C316.066 129.093 316.068 129.1 316.07 129.107C315.585 127.386 313.808 126.379 312.103 126.858C310.396 127.335 309.405 129.118 309.889 130.839C309.889 130.84 309.89 130.841 309.89 130.842L313.571 143.892C315.998 152.503 324.883 157.542 333.418 155.147C333.42 155.147 333.422 155.146 333.424 155.146C341.959 152.749 346.909 143.825 344.481 135.213L340.8 122.163C340.315 120.445 338.542 119.437 336.838 119.913Z" fill="#0A0A0A"/>
<path d="M338.272 136.585C337.804 136.716 337.317 136.44 337.184 135.967L333.729 123.712C333.596 123.239 333.868 122.75 334.336 122.618C334.804 122.487 335.291 122.763 335.424 123.235L338.879 135.491C339.012 135.964 338.74 136.453 338.272 136.585Z" fill="#0A0A0A"/>
<path d="M332.053 138.333C331.585 138.464 331.098 138.188 330.964 137.716L327.51 125.46C327.377 124.987 327.648 124.498 328.116 124.366C328.584 124.235 329.071 124.511 329.204 124.983L332.659 137.239C332.792 137.712 332.52 138.201 332.053 138.333Z" fill="#0A0A0A"/>
<path d="M325.833 140.081C325.365 140.212 324.878 139.936 324.745 139.464L321.29 127.208C321.157 126.735 321.429 126.246 321.897 126.115C322.365 125.983 322.852 126.259 322.985 126.732L326.44 138.988C326.573 139.46 326.301 139.949 325.833 140.081Z" fill="#0A0A0A"/>
<path d="M319.614 141.829C319.146 141.96 318.659 141.684 318.526 141.212L315.071 128.956C314.938 128.483 315.209 127.994 315.677 127.863C316.145 127.731 316.632 128.007 316.765 128.48L320.22 140.736C320.353 141.208 320.082 141.697 319.614 141.829Z" fill="#0A0A0A"/>
</g>
<mask id="mask2_100_4773" style="mask-type:luminance" maskUnits="userSpaceOnUse" x="272" y="12" width="189" height="277">
<path d="M460.158 12.5H272.423V288.333H460.158V12.5Z" fill="white"/>
</mask>
<g mask="url(#mask2_100_4773)">
<path d="M387.456 232.246H341.959C341.842 224.887 341.783 220.489 341.783 218.847C341.783 202.399 344.216 188.873 349.083 178.27C353.978 167.598 363.77 155.694 378.368 142.354C392.997 129.072 401.762 120.394 404.547 116.26C408.926 109.953 411.251 102.447 411.201 94.7692C411.201 83.8918 407.312 74.5586 399.534 66.7695C391.736 59 381.271 55.1299 368.05 55.1299C355.327 55.1299 344.666 59.1856 336.067 67.2972C327.536 75.3893 321.644 87.7326 318.39 104.327L272.423 97.9356C273.713 74.1286 282.772 53.9375 299.599 37.3625C316.455 20.768 338.5 12.5 365.939 12.5C394.697 12.5 417.602 20.9048 434.654 37.7144C451.627 54.4848 460.129 74.0406 460.158 96.3817C460.158 108.696 456.992 120.394 450.777 131.389C444.504 142.383 431.146 157.385 410.703 176.393C400.091 186.245 393.554 194.131 390.974 200.142C388.365 206.123 387.192 216.795 387.456 232.246Z" fill="#FFD700"/>
<path d="M387.427 246.524H342.458V288.333H387.427V246.524Z" fill="#FFD700"/>
</g>
<mask id="mask3_100_4773" style="mask-type:luminance" maskUnits="userSpaceOnUse" x="171" y="282" width="11" height="7">
<path d="M181.059 282.083H171.047V288.75H181.059V282.083Z" fill="white"/>
</mask>
<g mask="url(#mask3_100_4773)">
<path d="M173.769 288.75C173.612 288.75 173.458 288.705 173.325 288.619C173.192 288.534 173.086 288.411 173.018 288.266L171.127 284.194C171.032 283.991 171.021 283.759 171.095 283.548C171.169 283.337 171.323 283.164 171.522 283.068C171.721 282.973 171.949 282.961 172.156 283.037C172.363 283.112 172.533 283.268 172.627 283.471L174.519 287.544C174.579 287.672 174.605 287.814 174.597 287.957C174.588 288.099 174.545 288.237 174.47 288.357C174.395 288.477 174.292 288.577 174.169 288.645C174.047 288.714 173.909 288.75 173.769 288.75Z" fill="#0A0A0A"/>
<path d="M178.337 288.75C178.197 288.75 178.06 288.714 177.937 288.645C177.815 288.577 177.711 288.477 177.636 288.357C177.562 288.237 177.518 288.099 177.509 287.957C177.501 287.814 177.528 287.672 177.588 287.544L179.48 283.471C179.526 283.371 179.592 283.281 179.672 283.206C179.753 283.132 179.848 283.074 179.95 283.037C180.053 282.999 180.162 282.983 180.27 282.988C180.379 282.994 180.486 283.021 180.584 283.068C180.683 283.116 180.771 283.183 180.845 283.265C180.918 283.347 180.974 283.443 181.011 283.548C181.048 283.652 181.064 283.763 181.058 283.874C181.053 283.985 181.026 284.093 180.98 284.194L179.088 288.266C179.021 288.411 178.914 288.534 178.781 288.619C178.649 288.705 178.495 288.75 178.337 288.75Z" fill="#0A0A0A"/>
<path d="M176.053 288.75C175.833 288.75 175.622 288.661 175.466 288.502C175.311 288.344 175.223 288.129 175.223 287.905V282.928C175.223 282.704 175.311 282.489 175.466 282.33C175.622 282.172 175.833 282.083 176.053 282.083C176.273 282.083 176.484 282.172 176.64 282.33C176.795 282.489 176.883 282.704 176.883 282.928V287.905C176.883 288.129 176.795 288.344 176.64 288.502C176.484 288.661 176.273 288.75 176.053 288.75Z" fill="#0A0A0A"/>
</g>
<mask id="mask4_100_4773" style="mask-type:luminance" maskUnits="userSpaceOnUse" x="274" y="282" width="11" height="8">
<path d="M284.522 282.083H274.092V289.166H284.522V282.083Z" fill="white"/>
</mask>
<g mask="url(#mask4_100_4773)">
<path d="M276.928 289.167C276.764 289.167 276.603 289.119 276.465 289.028C276.327 288.937 276.216 288.807 276.146 288.653L274.175 284.326C274.077 284.11 274.065 283.864 274.143 283.639C274.22 283.415 274.38 283.232 274.587 283.13C274.794 283.028 275.032 283.016 275.248 283.096C275.464 283.177 275.64 283.343 275.738 283.558L277.709 287.885C277.771 288.022 277.799 288.173 277.79 288.324C277.781 288.475 277.736 288.621 277.658 288.749C277.58 288.877 277.472 288.983 277.345 289.056C277.217 289.129 277.074 289.167 276.928 289.167Z" fill="#0A0A0A"/>
<path d="M281.686 289.167C281.54 289.167 281.397 289.129 281.269 289.056C281.142 288.983 281.034 288.877 280.956 288.749C280.878 288.621 280.833 288.475 280.824 288.324C280.815 288.173 280.843 288.022 280.905 287.885L282.876 283.558C282.925 283.451 282.993 283.356 283.077 283.276C283.161 283.197 283.259 283.136 283.366 283.096C283.473 283.057 283.587 283.039 283.7 283.045C283.813 283.051 283.925 283.08 284.027 283.13C284.13 283.181 284.222 283.252 284.298 283.339C284.374 283.426 284.433 283.528 284.471 283.639C284.51 283.75 284.526 283.868 284.521 283.986C284.515 284.104 284.487 284.219 284.439 284.326L282.468 288.653C282.398 288.807 282.287 288.937 282.149 289.028C282.011 289.119 281.85 289.167 281.686 289.167Z" fill="#0A0A0A"/>
<path d="M279.307 289.166C279.078 289.166 278.858 289.072 278.696 288.903C278.534 288.735 278.443 288.507 278.443 288.269V282.981C278.443 282.743 278.534 282.514 278.696 282.346C278.858 282.178 279.078 282.083 279.307 282.083C279.536 282.083 279.756 282.178 279.918 282.346C280.08 282.514 280.171 282.743 280.171 282.981V288.269C280.171 288.507 280.08 288.735 279.918 288.903C279.756 289.072 279.536 289.166 279.307 289.166Z" fill="#0A0A0A"/>
</g>
<mask id="mask5_100_4773" style="mask-type:luminance" maskUnits="userSpaceOnUse" x="435" y="282" width="12" height="8">
<path d="M446.391 282.083H435.544V289.166H446.391V282.083Z" fill="white"/>
</mask>
<g mask="url(#mask5_100_4773)">
<path d="M438.493 289.167C438.322 289.167 438.155 289.119 438.011 289.028C437.867 288.937 437.752 288.807 437.68 288.653L435.63 284.326C435.528 284.11 435.516 283.864 435.596 283.639C435.677 283.415 435.843 283.232 436.058 283.13C436.274 283.028 436.521 283.016 436.745 283.096C436.97 283.177 437.153 283.343 437.255 283.558L439.305 287.885C439.37 288.022 439.399 288.173 439.39 288.324C439.38 288.475 439.333 288.621 439.252 288.749C439.171 288.877 439.059 288.983 438.926 289.056C438.793 289.129 438.644 289.167 438.493 289.167Z" fill="#0A0A0A"/>
<path d="M443.441 289.167C443.29 289.167 443.141 289.129 443.008 289.056C442.875 288.983 442.763 288.877 442.682 288.749C442.601 288.621 442.554 288.475 442.545 288.324C442.535 288.173 442.565 288.022 442.629 287.885L444.679 283.558C444.729 283.451 444.8 283.356 444.888 283.276C444.975 283.197 445.078 283.136 445.189 283.096C445.3 283.057 445.418 283.039 445.536 283.045C445.654 283.051 445.769 283.08 445.876 283.13C445.983 283.181 446.078 283.252 446.158 283.339C446.237 283.426 446.298 283.528 446.338 283.639C446.378 283.75 446.395 283.868 446.389 283.986C446.384 284.104 446.355 284.219 446.304 284.326L444.255 288.653C444.182 288.807 444.067 288.937 443.923 289.028C443.779 289.119 443.612 289.167 443.441 289.167Z" fill="#0A0A0A"/>
<path d="M440.967 289.166C440.729 289.166 440.5 289.072 440.331 288.903C440.163 288.735 440.068 288.507 440.068 288.269V282.981C440.068 282.743 440.163 282.514 440.331 282.346C440.5 282.178 440.729 282.083 440.967 282.083C441.205 282.083 441.434 282.178 441.603 282.346C441.771 282.514 441.866 282.743 441.866 282.981V288.269C441.866 288.507 441.771 288.735 441.603 288.903C441.434 289.072 441.205 289.166 440.967 289.166Z" fill="#0A0A0A"/>
</g>
<mask id="mask6_100_4773" style="mask-type:luminance" maskUnits="userSpaceOnUse" x="280" y="203" width="80" height="93">
<path d="M313.768 203.27L280.478 224.724L326.184 295.452L359.474 273.998L313.768 203.27Z" fill="white"/>
</mask>
<g mask="url(#mask6_100_4773)">
<mask id="mask7_100_4773" style="mask-type:luminance" maskUnits="userSpaceOnUse" x="280" y="203" width="110" height="139">
<path d="M313.766 203.269L280.478 224.723L355.819 341.315L389.107 319.861L313.766 203.269Z" fill="white"/>
</mask>
<g mask="url(#mask7_100_4773)">
<path d="M313.372 209.168C312.396 209.441 311.567 210.088 311.066 210.968C310.566 211.848 310.435 212.889 310.702 213.863L310.717 213.887C310.442 212.912 309.791 212.086 308.905 211.591C308.019 211.097 306.971 210.974 305.992 211.25C305.014 211.526 304.184 212.178 303.686 213.063C303.188 213.948 303.063 214.994 303.337 215.969L308.507 234.563L296.315 219.592C295.682 218.804 294.759 218.3 293.751 218.191C292.743 218.082 291.732 218.377 290.94 219.012C290.149 219.646 289.641 220.567 289.53 221.573C289.418 222.579 289.712 223.587 290.346 224.375C289.712 223.587 288.789 223.083 287.781 222.974C286.773 222.865 285.762 223.161 284.971 223.795C284.179 224.429 283.671 225.351 283.56 226.356C283.448 227.362 283.742 228.37 284.376 229.158L285.961 231.144L296.742 244.451C298.612 246.752 301.11 248.465 303.935 249.383C306.761 250.301 309.794 250.386 312.671 249.626L312.677 249.689C314.758 249.094 316.7 248.092 318.391 246.742L318.36 246.695C320.65 244.799 322.34 242.283 323.227 239.452C324.113 236.62 324.157 233.595 323.354 230.743L318.729 214.238L318.058 211.797C317.928 211.314 317.703 210.863 317.396 210.468C317.089 210.074 316.707 209.745 316.27 209.5C315.834 209.255 315.353 209.1 314.855 209.043C314.358 208.986 313.854 209.028 313.372 209.168Z" fill="white"/>
<path d="M317.498 248.423C316.078 249.335 314.533 250.034 312.91 250.499C312.796 250.532 312.676 250.541 312.558 250.525C309.564 251.247 306.428 251.11 303.513 250.129C300.598 249.148 298.023 247.363 296.085 244.981L285.305 231.675L283.716 229.683C283.332 229.209 283.046 228.663 282.876 228.077C282.706 227.491 282.656 226.876 282.727 226.27C282.861 225.043 283.477 223.918 284.44 223.141C284.914 222.757 285.459 222.47 286.045 222.297C286.63 222.124 287.244 222.069 287.85 222.134C288.129 222.163 288.405 222.217 288.675 222.295C288.659 222.026 288.666 221.756 288.697 221.488C288.83 220.261 289.446 219.135 290.41 218.358C290.884 217.974 291.429 217.687 292.014 217.514C292.6 217.341 293.213 217.286 293.82 217.351C294.433 217.414 295.028 217.597 295.569 217.891C296.11 218.185 296.587 218.583 296.973 219.063L306.608 230.895L302.523 216.196C302.274 215.248 302.332 214.245 302.687 213.329C303.042 212.414 303.677 211.633 304.502 211.096C305.326 210.56 306.299 210.296 307.281 210.342C308.263 210.387 309.205 210.74 309.973 211.351C310.22 210.634 310.638 209.988 311.19 209.466C311.742 208.945 312.412 208.564 313.142 208.357C313.736 208.185 314.358 208.134 314.971 208.207C315.584 208.28 316.176 208.474 316.711 208.779C317.242 209.077 317.706 209.478 318.078 209.959C318.449 210.44 318.72 210.991 318.874 211.578L319.544 214.012L324.167 230.514C324.998 233.473 324.966 236.609 324.074 239.555C323.182 242.501 321.467 245.134 319.13 247.146C319.077 247.243 319.005 247.329 318.918 247.399C318.462 247.764 317.988 248.106 317.498 248.423ZM312.753 248.786C314.518 248.244 316.171 247.39 317.635 246.264C317.684 246.182 317.747 246.108 317.821 246.047C319.983 244.255 321.58 241.877 322.418 239.202C323.255 236.527 323.298 233.668 322.541 230.973L317.915 214.466L317.241 212.022C317.144 211.649 316.973 211.3 316.738 210.995C316.503 210.69 316.208 210.435 315.872 210.246C315.531 210.052 315.154 209.929 314.764 209.883C314.374 209.837 313.979 209.87 313.601 209.979C312.864 210.186 312.234 210.666 311.84 211.321C311.446 211.976 311.318 212.756 311.482 213.501C311.498 213.549 311.513 213.597 311.527 213.645C311.585 213.84 311.57 214.048 311.486 214.233C311.402 214.418 311.254 214.566 311.069 214.651C310.884 214.736 310.675 214.752 310.48 214.696C310.285 214.64 310.117 214.515 310.006 214.345L309.991 214.321C309.945 214.25 309.91 214.173 309.887 214.091C309.877 214.054 309.867 214.016 309.857 213.977C309.594 213.259 309.063 212.67 308.376 212.332C307.688 211.994 306.896 211.933 306.163 212.162C305.43 212.391 304.813 212.892 304.439 213.562C304.066 214.231 303.964 215.018 304.156 215.759L309.321 234.335C309.373 234.522 309.358 234.721 309.281 234.898C309.203 235.076 309.066 235.221 308.893 235.311C308.721 235.4 308.523 235.427 308.333 235.388C308.143 235.348 307.972 235.245 307.85 235.095L295.659 220.124C295.412 219.817 295.107 219.562 294.761 219.373C294.414 219.185 294.033 219.067 293.641 219.027C293.255 218.985 292.865 219.02 292.492 219.13C292.12 219.24 291.773 219.422 291.472 219.666C290.855 220.164 290.462 220.885 290.377 221.671C290.331 222.056 290.362 222.447 290.47 222.82C290.577 223.193 290.758 223.54 291.002 223.842L291.004 223.845C291.132 224.02 291.187 224.237 291.159 224.452C291.131 224.666 291.021 224.862 290.851 224.999C290.682 225.135 290.467 225.201 290.251 225.184C290.035 225.167 289.833 225.067 289.689 224.905L289.686 224.9C289.439 224.594 289.134 224.34 288.789 224.153C288.443 223.966 288.064 223.849 287.672 223.809C287.286 223.767 286.895 223.802 286.523 223.912C286.15 224.022 285.803 224.204 285.502 224.449C284.886 224.947 284.492 225.668 284.407 226.454C284.361 226.84 284.393 227.231 284.5 227.604C284.608 227.977 284.789 228.325 285.033 228.626L286.622 230.618L297.399 243.92C299.169 246.094 301.53 247.712 304.2 248.579C306.871 249.447 309.737 249.527 312.456 248.811C312.553 248.786 312.653 248.777 312.752 248.787L312.753 248.786Z" fill="#0A0A0A"/>
<path d="M361.762 337.479C361.739 337.494 361.715 337.508 361.691 337.52C361.592 337.571 361.484 337.602 361.373 337.612C361.263 337.621 361.151 337.609 361.046 337.576C360.94 337.542 360.842 337.488 360.757 337.417C360.672 337.345 360.603 337.258 360.552 337.16L311.166 241.535C311.064 241.337 311.045 241.106 311.113 240.892C311.181 240.679 311.332 240.502 311.531 240.399C311.73 240.296 311.962 240.277 312.176 240.344C312.389 240.412 312.567 240.562 312.669 240.76L362.057 336.383C362.153 336.569 362.176 336.785 362.121 336.987C362.067 337.19 361.939 337.365 361.762 337.479Z" fill="#0A0A0A"/>
<path d="M300.056 236.501C299.881 236.613 299.67 236.658 299.464 236.625C299.258 236.592 299.072 236.484 298.941 236.322L289.535 224.673C289.395 224.499 289.329 224.277 289.353 224.054C289.378 223.832 289.489 223.628 289.664 223.488C289.839 223.347 290.062 223.281 290.285 223.305C290.508 223.329 290.712 223.44 290.852 223.613L300.258 235.262C300.328 235.348 300.38 235.447 300.411 235.554C300.442 235.66 300.452 235.771 300.44 235.881C300.428 235.991 300.395 236.098 300.341 236.195C300.288 236.293 300.216 236.379 300.13 236.448C300.106 236.467 300.082 236.484 300.056 236.501Z" fill="#0A0A0A"/>
<path d="M315.137 228.719C315.026 228.79 314.9 228.835 314.768 228.849C314.637 228.863 314.504 228.846 314.38 228.8C314.257 228.754 314.146 228.679 314.057 228.582C313.967 228.485 313.902 228.368 313.866 228.241L309.81 213.812C309.75 213.597 309.777 213.366 309.887 213.171C309.997 212.976 310.18 212.832 310.396 212.771C310.612 212.71 310.843 212.738 311.038 212.847C311.234 212.956 311.377 213.138 311.438 213.353L315.494 227.782C315.543 227.956 315.534 228.14 315.47 228.309C315.406 228.477 315.289 228.621 315.137 228.719Z" fill="#0A0A0A"/>
</g>
</g>
<mask id="mask8_100_4773" style="mask-type:luminance" maskUnits="userSpaceOnUse" x="392" y="214" width="47" height="79">
<path d="M438.978 222.36L412.532 214.771L392.225 285.258L418.671 292.848L438.978 222.36Z" fill="white"/>
</mask>
<g mask="url(#mask8_100_4773)">
<mask id="mask9_100_4773" style="mask-type:luminance" maskUnits="userSpaceOnUse" x="379" y="214" width="60" height="123">
<path d="M438.978 222.359L412.538 214.771L379.544 329.308L405.984 336.896L438.978 222.359Z" fill="white"/>
</mask>
<g mask="url(#mask9_100_4773)">
<path d="M418.121 245.045C415.505 244.294 413.172 242.784 411.416 240.705C409.66 238.626 408.561 236.072 408.257 233.365C407.953 230.659 408.458 227.922 409.708 225.5C410.958 223.078 412.898 221.081 415.281 219.76C417.664 218.439 420.384 217.854 423.097 218.08C425.81 218.305 428.394 219.33 430.522 221.026C432.65 222.721 434.227 225.011 435.053 227.605C435.879 230.199 435.917 232.982 435.163 235.6C434.147 239.109 431.783 242.074 428.588 243.845C425.393 245.615 421.629 246.047 418.121 245.045ZM425.27 220.234C422.984 219.578 420.553 219.616 418.286 220.342C416.019 221.068 414.017 222.45 412.533 224.313C411.048 226.176 410.149 228.437 409.949 230.809C409.748 233.182 410.255 235.559 411.405 237.641C412.555 239.723 414.298 241.416 416.411 242.506C418.525 243.596 420.915 244.034 423.28 243.764C425.644 243.494 427.877 242.529 429.695 240.991C431.514 239.453 432.836 237.41 433.495 235.122C434.376 232.053 434.005 228.762 432.462 225.971C430.92 223.18 428.334 221.117 425.27 220.234Z" fill="#0A0A0A"/>
<path d="M418.121 245.045C415.505 244.294 413.172 242.784 411.416 240.705C409.66 238.626 408.561 236.072 408.257 233.365C407.953 230.659 408.458 227.922 409.708 225.5C410.958 223.078 412.898 221.081 415.281 219.76C417.664 218.439 420.384 217.854 423.097 218.08C425.81 218.305 428.394 219.33 430.522 221.026C432.65 222.721 434.227 225.011 435.053 227.605C435.879 230.199 435.917 232.982 435.163 235.6C434.147 239.109 431.783 242.074 428.588 243.845C425.393 245.615 421.629 246.047 418.121 245.045ZM425.27 220.234C422.984 219.578 420.553 219.616 418.286 220.342C416.019 221.068 414.017 222.45 412.533 224.313C411.048 226.176 410.149 228.437 409.949 230.809C409.748 233.182 410.255 235.559 411.405 237.641C412.555 239.723 414.298 241.416 416.411 242.506C418.525 243.596 420.915 244.034 423.28 243.764C425.644 243.494 427.877 242.529 429.695 240.991C431.514 239.453 432.836 237.41 433.495 235.122C434.376 232.053 434.005 228.762 432.462 225.971C430.92 223.18 428.334 221.117 425.27 220.234Z" fill="#0A0A0A"/>
<path d="M418.361 244.21C425.205 246.174 432.354 242.211 434.328 235.36C436.303 228.508 432.355 221.362 425.511 219.399C418.667 217.435 411.518 221.398 409.544 228.249C407.569 235.101 411.517 242.247 418.361 244.21Z" fill="white"/>
<path d="M418.122 245.046C415.506 244.295 413.172 242.785 411.417 240.706C409.661 238.627 408.562 236.073 408.258 233.367C407.954 230.66 408.459 227.923 409.709 225.501C410.96 223.079 412.899 221.081 415.282 219.76C417.665 218.439 420.385 217.854 423.098 218.079C425.811 218.305 428.395 219.33 430.522 221.025C432.65 222.721 434.227 225.011 435.053 227.605C435.879 230.199 435.917 232.982 435.162 235.6C434.147 239.11 431.782 242.075 428.588 243.846C425.393 245.616 421.629 246.048 418.122 245.046ZM425.271 220.234C422.985 219.578 420.554 219.616 418.287 220.342C416.02 221.068 414.018 222.45 412.534 224.313C411.05 226.177 410.15 228.438 409.95 230.81C409.749 233.183 410.256 235.561 411.406 237.643C412.556 239.725 414.298 241.418 416.412 242.508C418.525 243.597 420.915 244.035 423.28 243.765C425.644 243.496 427.876 242.53 429.695 240.992C431.513 239.453 432.836 237.411 433.495 235.122C434.376 232.053 434.004 228.762 432.462 225.971C430.921 223.18 428.334 221.117 425.271 220.234Z" fill="#0A0A0A"/>
<path d="M392.774 333.097C392.553 333.033 392.367 332.885 392.256 332.683C392.145 332.482 392.118 332.245 392.182 332.023L417.535 243.966C417.598 243.745 417.747 243.558 417.948 243.446C418.15 243.335 418.387 243.308 418.608 243.371C418.828 243.434 419.015 243.583 419.126 243.784C419.237 243.986 419.264 244.223 419.2 244.444L393.847 332.502C393.783 332.723 393.635 332.91 393.433 333.021C393.232 333.133 392.995 333.16 392.774 333.097Z" fill="#0A0A0A"/>
<path d="M421.134 234.588C418.613 233.86 416.353 232.426 414.622 230.455C412.89 228.483 411.758 226.057 411.359 223.461C411.34 223.348 411.343 223.231 411.37 223.119C411.396 223.007 411.444 222.901 411.512 222.808C411.579 222.715 411.665 222.636 411.763 222.575C411.861 222.515 411.97 222.475 412.084 222.458C412.198 222.44 412.314 222.446 412.425 222.474C412.537 222.501 412.642 222.551 412.734 222.62C412.826 222.689 412.904 222.775 412.962 222.874C413.021 222.973 413.059 223.083 413.074 223.197C413.423 225.465 414.412 227.585 415.925 229.307C417.438 231.03 419.412 232.283 421.615 232.919C423.818 233.547 426.156 233.533 428.354 232.881C430.552 232.229 432.521 230.965 434.03 229.237C434.181 229.064 434.395 228.958 434.624 228.942C434.853 228.926 435.079 229.002 435.252 229.152C435.425 229.303 435.532 229.516 435.548 229.745C435.564 229.974 435.489 230.201 435.339 230.375C433.612 232.353 431.36 233.799 428.845 234.545C426.329 235.291 423.655 235.306 421.134 234.588Z" fill="#0A0A0A"/>
<path d="M426.666 234.911C426.545 234.876 426.433 234.815 426.338 234.732C424.357 233.009 422.908 230.756 422.162 228.237C421.415 225.719 421.402 223.038 422.122 220.509C422.306 219.874 422.534 219.253 422.806 218.65C422.852 218.544 422.918 218.448 423.001 218.368C423.084 218.288 423.182 218.225 423.289 218.183C423.397 218.141 423.511 218.121 423.627 218.124C423.742 218.127 423.855 218.153 423.96 218.2C424.065 218.248 424.16 218.315 424.238 218.4C424.317 218.484 424.378 218.583 424.417 218.692C424.457 218.8 424.475 218.915 424.469 219.03C424.464 219.145 424.436 219.258 424.387 219.363C424.149 219.889 423.949 220.432 423.789 220.987C423.159 223.198 423.172 225.541 423.824 227.743C424.477 229.945 425.743 231.914 427.475 233.42C427.624 233.55 427.725 233.726 427.76 233.921C427.795 234.115 427.763 234.316 427.668 234.49C427.574 234.663 427.423 234.8 427.241 234.876C427.059 234.953 426.856 234.965 426.666 234.911Z" fill="#0A0A0A"/>
</g>
</g>
<mask id="mask10_100_4773" style="mask-type:luminance" maskUnits="userSpaceOnUse" x="372" y="236" width="31" height="53">
<path d="M402.586 236.25H372.548V288.333H402.586V236.25Z" fill="white"/>
</mask>
<g mask="url(#mask10_100_4773)">
<mask id="mask11_100_4773" style="mask-type:luminance" maskUnits="userSpaceOnUse" x="372" y="236" width="31" height="150">
<path d="M402.586 236.25H372.548V385.417H402.586V236.25Z" fill="white"/>
</mask>
<g mask="url(#mask11_100_4773)">
<path d="M387.575 385.417C387.12 385.417 386.751 385.044 386.751 384.585V258.851C386.751 258.391 387.12 258.019 387.575 258.019C388.03 258.019 388.399 258.391 388.399 258.851V384.585C388.399 385.044 388.03 385.417 387.575 385.417Z" fill="#0A0A0A"/>
<path d="M399.59 236.25C397.932 236.248 396.587 237.605 396.585 239.28C396.585 239.281 396.585 239.282 396.585 239.283C396.585 237.608 395.242 236.25 393.584 236.25C393.583 236.25 393.582 236.25 393.581 236.25C391.924 236.25 390.58 237.608 390.58 239.283C390.58 237.608 389.236 236.25 387.578 236.25C387.577 236.25 387.576 236.25 387.575 236.25C385.918 236.248 384.573 237.605 384.571 239.28C384.571 239.281 384.571 239.282 384.571 239.283C384.571 237.61 383.231 236.253 381.575 236.25C379.917 236.239 378.565 237.588 378.554 239.263C378.554 239.27 378.554 239.277 378.554 239.283C378.554 237.608 377.21 236.25 375.553 236.25C373.895 236.249 372.55 237.605 372.548 239.28C372.548 239.281 372.548 239.282 372.548 239.283V251.983C372.547 260.363 379.268 267.157 387.562 267.158C387.564 267.158 387.565 267.158 387.567 267.158C395.862 267.158 402.586 260.364 402.586 251.983V239.283C402.586 237.61 401.245 236.253 399.59 236.25Z" fill="#0A0A0A"/>
<path d="M396.642 251.649C396.187 251.649 395.819 251.277 395.819 250.817V238.885C395.819 238.425 396.187 238.053 396.642 238.053C397.097 238.053 397.466 238.425 397.466 238.885V250.817C397.466 251.277 397.097 251.649 396.642 251.649Z" fill="#0A0A0A"/>
<path d="M390.601 251.649C390.146 251.649 389.777 251.277 389.777 250.817V238.885C389.777 238.425 390.146 238.053 390.601 238.053C391.056 238.053 391.425 238.425 391.425 238.885V250.817C391.425 251.277 391.055 251.649 390.601 251.649Z" fill="#0A0A0A"/>
<path d="M384.559 251.649C384.104 251.649 383.735 251.277 383.735 250.817V238.885C383.735 238.425 384.104 238.053 384.559 238.053C385.014 238.053 385.383 238.425 385.383 238.885V250.817C385.383 251.277 385.014 251.649 384.559 251.649Z" fill="#0A0A0A"/>
<path d="M378.518 251.649C378.063 251.649 377.694 251.277 377.694 250.817V238.885C377.694 238.425 378.063 238.053 378.518 238.053C378.973 238.053 379.342 238.425 379.342 238.885V250.817C379.342 251.277 378.972 251.649 378.518 251.649Z" fill="#0A0A0A"/>
</g>
</g>
<mask id="mask12_100_4773" style="mask-type:luminance" maskUnits="userSpaceOnUse" x="350" y="263" width="22" height="27">
<path d="M371.714 263.333H350.855V289.166H371.714V263.333Z" fill="white"/>
</mask>
<g mask="url(#mask12_100_4773)">
<path d="M366.946 271.969C369.157 271.969 370.949 270.204 370.949 268.027C370.949 265.851 369.157 264.086 366.946 264.086C364.735 264.086 362.942 265.851 362.942 268.027C362.942 270.204 364.735 271.969 366.946 271.969Z" fill="white"/>
<path d="M366.946 272.722C366.002 272.722 365.08 272.447 364.296 271.931C363.512 271.415 362.901 270.682 362.54 269.824C362.179 268.966 362.085 268.022 362.269 267.112C362.453 266.201 362.907 265.365 363.574 264.708C364.241 264.051 365.09 263.604 366.015 263.423C366.94 263.242 367.899 263.335 368.77 263.69C369.642 264.046 370.387 264.647 370.911 265.419C371.435 266.192 371.714 267.099 371.714 268.028C371.713 269.272 371.21 270.466 370.316 271.346C369.422 272.226 368.21 272.721 366.946 272.722ZM366.946 264.839C366.305 264.839 365.679 265.026 365.146 265.377C364.614 265.727 364.199 266.225 363.954 266.808C363.708 267.39 363.644 268.031 363.769 268.65C363.894 269.268 364.203 269.836 364.656 270.282C365.109 270.728 365.686 271.032 366.314 271.155C366.942 271.278 367.593 271.215 368.185 270.973C368.777 270.732 369.282 270.323 369.638 269.799C369.994 269.275 370.184 268.658 370.184 268.028C370.183 267.182 369.842 266.372 369.235 265.774C368.627 265.176 367.804 264.84 366.946 264.839Z" fill="#0A0A0A"/>
<path d="M354.782 275.86C356.528 275.86 357.944 274.466 357.944 272.747C357.944 271.028 356.528 269.634 354.782 269.634C353.035 269.634 351.62 271.028 351.62 272.747C351.62 274.466 353.035 275.86 354.782 275.86Z" fill="white"/>
<path d="M354.782 276.613C354.005 276.613 353.246 276.387 352.6 275.962C351.954 275.537 351.451 274.933 351.154 274.227C350.856 273.52 350.779 272.743 350.93 271.993C351.082 271.243 351.456 270.554 352.005 270.013C352.554 269.473 353.254 269.104 354.016 268.955C354.777 268.806 355.567 268.883 356.285 269.175C357.002 269.468 357.616 269.963 358.047 270.599C358.479 271.235 358.709 271.982 358.709 272.747C358.708 273.772 358.294 274.755 357.557 275.48C356.821 276.204 355.823 276.612 354.782 276.613ZM354.782 270.387C354.308 270.387 353.844 270.526 353.45 270.785C353.056 271.044 352.749 271.413 352.567 271.844C352.386 272.275 352.338 272.75 352.431 273.207C352.523 273.665 352.752 274.086 353.087 274.416C353.422 274.746 353.849 274.971 354.314 275.062C354.779 275.153 355.261 275.106 355.699 274.927C356.137 274.749 356.511 274.446 356.775 274.058C357.038 273.67 357.179 273.214 357.179 272.747C357.178 272.121 356.925 271.522 356.476 271.079C356.027 270.637 355.417 270.388 354.782 270.387Z" fill="#0A0A0A"/>
<path d="M361.029 289.166C360.911 289.166 360.794 289.139 360.688 289.087C360.582 289.035 360.49 288.96 360.418 288.866C360.347 288.773 360.298 288.665 360.277 288.551C360.255 288.436 360.261 288.318 360.293 288.206L366.21 267.82C366.236 267.724 366.282 267.635 366.345 267.556C366.407 267.478 366.484 267.413 366.572 267.364C366.661 267.315 366.758 267.284 366.858 267.273C366.958 267.261 367.06 267.269 367.157 267.297C367.254 267.324 367.345 267.37 367.424 267.432C367.503 267.494 367.569 267.571 367.617 267.658C367.666 267.745 367.697 267.841 367.707 267.94C367.718 268.039 367.709 268.139 367.681 268.234L361.765 288.619C361.719 288.777 361.623 288.915 361.49 289.014C361.357 289.112 361.196 289.166 361.029 289.166Z" fill="#0A0A0A"/>
<path d="M361.029 289.166C360.876 289.166 360.726 289.121 360.599 289.036C360.472 288.951 360.374 288.83 360.317 288.689L354.07 273.024C353.995 272.838 353.999 272.63 354.08 272.447C354.161 272.264 354.313 272.12 354.501 272.047C354.69 271.973 354.901 271.977 355.087 272.057C355.273 272.136 355.419 272.285 355.494 272.471L361.741 288.137C361.787 288.251 361.804 288.375 361.79 288.497C361.776 288.619 361.732 288.736 361.662 288.837C361.592 288.939 361.498 289.022 361.387 289.079C361.277 289.136 361.154 289.166 361.029 289.166Z" fill="#0A0A0A"/>
</g>
<mask id="mask13_100_4773" style="mask-type:luminance" maskUnits="userSpaceOnUse" x="315" y="1" width="26" height="26">
<path d="M340.53 10.9043L325.145 1.69922L315.707 17.4294L331.091 26.6345L340.53 10.9043Z" fill="white"/>
</mask>
<g mask="url(#mask13_100_4773)">
<path d="M318.272 14.8957L319.905 12.0411C320.65 10.7372 322.31 10.2821 323.614 11.0245C323.981 11.2335 324.294 11.5253 324.528 11.8768L329.583 19.4502L320.483 18.956C318.982 18.8739 317.834 17.5919 317.918 16.092C317.942 15.6713 318.063 15.2619 318.272 14.8957Z" fill="white"/>
<path d="M318.812 19.2878C318.509 19.1064 318.231 18.8785 317.989 18.6077C317.357 17.9022 317.039 16.9926 317.092 16.0466C317.123 15.501 317.282 14.9611 317.553 14.4864L317.554 14.4859L319.186 11.6313C319.656 10.8091 320.418 10.218 321.332 9.96736C322.246 9.71683 323.202 9.83691 324.024 10.3054C324.503 10.5781 324.913 10.9612 325.217 11.4174L330.272 18.9897C330.446 19.2504 330.457 19.5871 330.302 19.8593C330.146 20.1316 329.85 20.2929 329.537 20.2759L320.437 19.7818C319.853 19.7501 319.299 19.5793 318.812 19.2878ZM318.991 15.3052C318.847 15.5584 318.762 15.846 318.746 16.1368C318.717 16.6417 318.887 17.1267 319.224 17.503C319.561 17.8795 320.025 18.1018 320.53 18.1295L327.976 18.534L323.839 12.3364C323.677 12.0931 323.46 11.8904 323.203 11.7432C322.765 11.4935 322.255 11.4295 321.768 11.5632C321.281 11.6966 320.874 12.0117 320.624 12.4502L318.991 15.3052Z" fill="#0A0A0A"/>
<path d="M334.165 8.14381L337.019 9.77077C338.321 10.5189 338.768 12.1809 338.017 13.4832C337.809 13.8456 337.519 14.1551 337.171 14.3878L329.583 19.4519L330.095 10.3501C330.183 8.85066 331.47 7.70439 332.971 7.78985C333.391 7.81383 333.8 7.93487 334.165 8.14381Z" fill="white"/>
<path d="M329.157 20.1621C328.894 20.0046 328.739 19.714 328.756 19.4069L329.269 10.3051C329.384 8.35067 331.066 6.85272 333.019 6.96401C333.564 6.99491 334.103 7.15447 334.577 7.42527L337.43 9.05224C339.128 10.0283 339.712 12.1997 338.735 13.8956C338.464 14.3659 338.082 14.7737 337.632 15.0755L330.042 20.1397C329.781 20.3139 329.444 20.3259 329.172 20.1708C329.167 20.168 329.162 20.165 329.157 20.1621ZM336.635 10.5055C336.625 10.4997 336.616 10.4939 336.606 10.4883L333.755 8.86274C333.754 8.8626 333.754 8.86246 333.754 8.86232C333.501 8.71779 333.214 8.63276 332.923 8.61622C331.881 8.55681 330.983 9.35586 330.922 10.3975L330.503 17.8446L336.713 13.7005C336.953 13.5399 337.156 13.3224 337.301 13.0715C337.816 12.1765 337.517 11.033 336.635 10.5055Z" fill="#0A0A0A"/>
</g>
<mask id="mask14_100_4773" style="mask-type:luminance" maskUnits="userSpaceOnUse" x="437" y="158" width="25" height="25">
<path d="M452.99 182.594L461.379 167.224L445.632 158.654L437.243 174.025L452.99 182.594Z" fill="white"/>
</mask>
<g mask="url(#mask14_100_4773)">
<path d="M448.207 161.053L451.061 162.529C452.365 163.203 452.875 164.804 452.201 166.105C452.012 166.471 451.739 166.788 451.405 167.03L444.203 172.263L444.327 163.372C444.347 161.906 445.555 160.735 447.024 160.756C447.436 160.762 447.841 160.864 448.207 161.053Z" fill="white"/>
<path d="M443.936 161.756C444.101 161.453 444.313 161.174 444.568 160.927C445.233 160.282 446.109 159.935 447.036 159.949C447.57 159.957 448.104 160.091 448.579 160.336L448.579 160.336L451.433 161.812C452.255 162.237 452.863 162.957 453.144 163.838C453.425 164.719 453.346 165.655 452.92 166.476C452.673 166.954 452.314 167.369 451.881 167.684L444.68 172.917C444.432 173.097 444.104 173.122 443.831 172.981C443.559 172.84 443.39 172.558 443.394 172.252L443.517 163.36C443.525 162.79 443.67 162.243 443.936 161.756ZM447.835 161.77C447.582 161.64 447.298 161.568 447.013 161.565C446.518 161.557 446.051 161.742 445.696 162.086C445.342 162.43 445.143 162.891 445.136 163.384L445.035 170.66L450.928 166.377C451.159 166.21 451.349 165.989 451.483 165.733C451.709 165.296 451.752 164.796 451.602 164.327C451.452 163.857 451.128 163.474 450.69 163.247L447.835 161.77Z" fill="#0A0A0A"/>
<path d="M455.44 176.277L453.962 179.125C453.283 180.425 451.676 180.928 450.373 180.249C450.01 180.06 449.696 179.79 449.455 179.46L444.205 172.264L453.122 172.397C454.592 172.423 455.763 173.632 455.739 175.098C455.732 175.509 455.63 175.913 455.44 176.277Z" fill="white"/>
<path d="M443.495 171.877C443.638 171.614 443.916 171.452 444.217 171.457L453.134 171.59C455.049 171.623 456.58 173.203 456.548 175.112C456.539 175.645 456.405 176.177 456.159 176.649L454.681 179.497C453.794 181.192 451.695 181.849 449.998 180.965C449.528 180.72 449.114 180.364 448.801 179.936L443.551 172.74C443.371 172.492 443.346 172.164 443.487 171.892C443.489 171.887 443.492 171.882 443.495 171.877ZM453.229 178.78C453.234 178.771 453.24 178.761 453.245 178.751L454.721 175.906C454.721 175.905 454.721 175.905 454.721 175.905C454.853 175.652 454.925 175.369 454.929 175.084C454.946 174.066 454.13 173.223 453.109 173.206L445.813 173.097L450.109 178.985C450.276 179.212 450.496 179.402 450.747 179.533C451.642 179.999 452.748 179.661 453.229 178.78Z" fill="#0A0A0A"/>
</g>
<mask id="mask15_100_4773" style="mask-type:luminance" maskUnits="userSpaceOnUse" x="108" y="35" width="52" height="41">
<path d="M159.783 35H108.469V75.4167H159.783V35Z" fill="white"/>
</mask>
<g mask="url(#mask15_100_4773)">
<path d="M143.202 35.8418C145.269 35.841 147.316 36.2476 149.226 37.0385C151.136 37.8294 152.871 38.989 154.333 40.4511C155.795 41.9132 156.954 43.649 157.745 45.5595C158.535 47.4699 158.942 49.5175 158.941 51.5852C158.947 55.4646 157.506 59.2069 154.901 62.0807C154.136 62.9149 153.715 64.0077 153.723 65.1396V73.6146C153.717 73.7524 153.685 73.8878 153.627 74.013C153.569 74.1382 153.487 74.2508 153.386 74.3443C153.291 74.4268 153.18 74.4895 153.061 74.5287C152.941 74.5678 152.815 74.5826 152.689 74.5721C152.564 74.5616 152.441 74.5262 152.33 74.4678C152.218 74.4094 152.12 74.3292 152.039 74.232L147.438 68.872C146.987 68.3536 146.425 67.9432 145.793 67.6712C145.162 67.3992 144.478 67.2725 143.791 67.3005C143.596 67.3238 143.399 67.3332 143.202 67.3285H125.05C122.983 67.3293 120.936 66.9227 119.026 66.1318C117.116 65.3409 115.38 64.1813 113.919 62.7192C112.457 61.2571 111.298 59.5213 110.507 57.6108C109.716 55.7004 109.31 53.6528 109.31 51.5852C109.31 49.5175 109.716 47.4699 110.507 45.5595C111.298 43.649 112.457 41.9132 113.919 40.4511C115.38 38.989 117.116 37.8294 119.026 37.0385C120.936 36.2476 122.983 35.841 125.05 35.8418H143.202Z" fill="white"/>
<path d="M152.758 75.4167C152.702 75.4167 152.647 75.414 152.592 75.4088C152.36 75.388 152.134 75.3208 151.928 75.2112C151.723 75.1017 151.541 74.952 151.394 74.7709L146.801 69.4207C146.436 69.0042 145.983 68.6735 145.475 68.4522C144.967 68.2309 144.417 68.1244 143.863 68.1405C143.644 68.1646 143.424 68.1746 143.204 68.1705H125.05C120.652 68.1705 116.435 66.4231 113.325 63.3128C110.216 60.2025 108.469 55.9839 108.469 51.5853C108.469 47.1866 110.216 42.968 113.325 39.8577C116.435 36.7474 120.652 35 125.05 35H143.202C147.598 35.0049 151.812 36.7538 154.921 39.8631C158.029 42.9724 159.778 47.1881 159.783 51.5853C159.795 55.6756 158.275 59.6222 155.523 62.648C154.899 63.3267 154.556 64.2175 154.564 65.1397V73.6147C154.559 73.8633 154.505 74.1084 154.405 74.3359C154.305 74.5633 154.161 74.7687 153.981 74.9402C153.965 74.955 153.95 74.9682 153.934 74.9834C153.606 75.2629 153.189 75.4165 152.758 75.4167ZM143.97 66.455C144.748 66.456 145.516 66.623 146.224 66.9449C146.932 67.2668 147.563 67.7361 148.075 68.3215L152.678 73.6838C152.685 73.6911 152.691 73.6987 152.697 73.7065C152.703 73.7145 152.711 73.7209 152.72 73.7254C152.729 73.7298 152.739 73.7322 152.749 73.7323C152.774 73.7349 152.798 73.7298 152.82 73.7177C152.849 73.6892 152.87 73.6537 152.881 73.6147V65.1397C152.872 63.7948 153.373 62.4963 154.284 61.5072C156.75 58.7925 158.111 55.2531 158.099 51.5853C158.095 47.6345 156.524 43.8468 153.731 41.0532C150.938 38.2596 147.152 36.6882 143.202 36.6838H125.05C121.099 36.6838 117.309 38.2538 114.516 41.0483C111.722 43.8429 110.152 47.6331 110.152 51.5853C110.152 55.5374 111.722 59.3276 114.516 62.1222C117.309 64.9168 121.099 66.4867 125.05 66.4867H143.202C143.359 66.4907 143.516 66.4842 143.672 66.4671C143.7 66.4632 143.728 66.4603 143.756 66.4592C143.828 66.4564 143.899 66.455 143.97 66.455Z" fill="#0A0A0A"/>
<path d="M140.817 54.1106C142.134 54.1106 143.202 53.0426 143.202 51.7252C143.202 50.4078 142.134 49.3398 140.817 49.3398C139.5 49.3398 138.432 50.4078 138.432 51.7252C138.432 53.0426 139.5 54.1106 140.817 54.1106Z" fill="#0A0A0A"/>
<path d="M134.112 54.1106C135.429 54.1106 136.497 53.0426 136.497 51.7252C136.497 50.4078 135.429 49.3398 134.112 49.3398C132.795 49.3398 131.727 50.4078 131.727 51.7252C131.727 53.0426 132.795 54.1106 134.112 54.1106Z" fill="#0A0A0A"/>
<path d="M127.491 54.1106C128.808 54.1106 129.875 53.0426 129.875 51.7252C129.875 50.4078 128.808 49.3398 127.491 49.3398C126.174 49.3398 125.106 50.4078 125.106 51.7252C125.106 53.0426 126.174 54.1106 127.491 54.1106Z" fill="#0A0A0A"/>
</g>
<mask id="mask16_100_4773" style="mask-type:luminance" maskUnits="userSpaceOnUse" x="50" y="286" width="444" height="4">
<path d="M493.533 286.667H50.0625V290H493.533V286.667Z" fill="white"/>
</mask>
<g mask="url(#mask16_100_4773)">
<path d="M492.715 289.24H50.8805C50.417 289.24 50.0625 288.86 50.0625 288.363C50.0625 287.865 50.417 287.485 50.8805 287.485H492.715C493.178 287.485 493.533 287.865 493.533 288.363C493.533 288.86 493.178 289.24 492.715 289.24Z" fill="#0A0A0A"/>
</g>
</svg>
