<svg width="16" height="8" viewBox="0 0 16 8" fill="none" xmlns="http://www.w3.org/2000/svg">
<path d="M9.47181 2.07178C10.0999 1.44072 10.8156 1.00977 11.7202 1.00977C12.5153 1.00977 13.2779 1.32562 13.8401 1.88783C14.4023 2.45005 14.7182 3.21259 14.7182 4.00768C14.7182 4.80278 14.4023 5.56531 13.8401 6.12753C13.2779 6.68975 12.5153 7.0056 11.7202 7.0056C8.34759 7.0056 7.59811 1.00977 4.22546 1.00977C3.43036 1.00977 2.66783 1.32562 2.10561 1.88783C1.54339 2.45005 1.22754 3.21259 1.22754 4.00768C1.22754 4.80278 1.54339 5.56531 2.10561 6.12753C2.66783 6.68975 3.43036 7.0056 4.22546 7.0056C5.13008 7.0056 5.84583 6.57465 6.47389 5.94359" stroke="white" stroke-width="1.12422" stroke-linecap="round" stroke-linejoin="round"/>
</svg>
