<svg width="16" height="18" viewBox="0 0 16 18" fill="none" xmlns="http://www.w3.org/2000/svg">
<path d="M5.1624 10.5188C5.1624 10.2083 5.41407 9.95664 5.72451 9.95664H10.2214C10.5318 9.95664 10.7835 10.2083 10.7835 10.5188C10.7835 10.8292 10.5318 11.0809 10.2214 11.0809H5.72451C5.41407 11.0809 5.1624 10.8292 5.1624 10.5188Z" fill="white"/>
<path fill-rule="evenodd" clip-rule="evenodd" d="M5.72451 0.962891C6.03496 0.962891 6.28662 1.21456 6.28662 1.525V2.4698C6.7882 2.46185 7.34551 2.46185 7.96466 2.46185H7.98124C8.60039 2.46185 9.1577 2.46185 9.65928 2.4698V1.525C9.65928 1.21456 9.91094 0.962891 10.2214 0.962891C10.5318 0.962891 10.7835 1.21456 10.7835 1.525V2.5095C11.9166 2.58054 12.7872 2.76415 13.5039 3.28489C13.8698 3.5507 14.1915 3.87244 14.4573 4.23829C15.0583 5.06546 15.2103 6.09748 15.2584 7.50159C15.2804 8.14405 15.2804 8.89157 15.2804 9.76102V9.77753C15.2804 10.647 15.2804 11.3945 15.2584 12.037C15.2103 13.4411 15.0583 14.4731 14.4573 15.3003C14.1915 15.6661 13.8698 15.9878 13.5039 16.2537C12.6768 16.8546 11.6447 17.0066 10.2406 17.0547C9.59813 17.0767 8.85056 17.0767 7.98104 17.0767H7.93902C6.56258 17.0767 5.48363 17.0767 4.62763 16.984C3.75409 16.8893 3.04629 16.6927 2.44197 16.2537C2.07611 15.9878 1.75438 15.6661 1.48857 15.3003C1.0495 14.6959 0.852902 13.9881 0.758259 13.1146C0.665516 12.2586 0.665521 11.1796 0.665527 9.80318L0.665528 9.76097C0.665527 8.89154 0.665527 8.14404 0.687538 7.50159C0.735645 6.09748 0.887595 5.06546 1.48857 4.23829C1.75438 3.87244 2.07612 3.5507 2.44197 3.28489C3.15871 2.76415 4.02925 2.58054 5.1624 2.5095V1.525C5.1624 1.21456 5.41407 0.962891 5.72451 0.962891ZM5.1624 3.63647C4.14157 3.70667 3.55235 3.86776 3.10277 4.1944C2.83235 4.39087 2.59455 4.62868 2.39808 4.89909C2.07144 5.34867 1.91035 5.93789 1.84015 6.95872H14.1057C14.0355 5.93789 13.8745 5.34867 13.5478 4.89909C13.3514 4.62868 13.1135 4.39087 12.8431 4.1944C12.3935 3.86776 11.8043 3.70667 10.7835 3.63647V3.77344C10.7835 4.08388 10.5318 4.33555 10.2214 4.33555C9.91094 4.33555 9.65928 4.08388 9.65928 3.77344V3.59415C9.16493 3.5861 8.60818 3.58607 7.97295 3.58607C7.33772 3.58607 6.78097 3.5861 6.28662 3.59415V3.77344C6.28662 4.08388 6.03496 4.33555 5.72451 4.33555C5.41407 4.33555 5.1624 4.08388 5.1624 3.77344V3.63647ZM14.1481 8.08294H1.79783C1.78978 8.57729 1.78975 9.13404 1.78975 9.76927C1.78975 11.187 1.79052 12.2051 1.87594 12.9935C1.96022 13.7714 2.12146 14.2587 2.39808 14.6395C2.59455 14.9099 2.83235 15.1477 3.10277 15.3441C3.48351 15.6208 3.97083 15.782 4.74872 15.8663C5.53714 15.9517 6.55526 15.9525 7.97295 15.9525C8.60877 15.9525 9.16596 15.9524 9.66064 15.9444C9.66392 15.5886 9.67499 15.3267 9.71233 15.0909C10.0044 13.2469 11.4506 11.8007 13.2946 11.5087C13.5304 11.4713 13.7923 11.4602 14.148 11.457C14.1561 10.9623 14.1562 10.4051 14.1562 9.76927C14.1562 9.13404 14.1561 8.57729 14.1481 8.08294ZM14.1056 12.5819C13.8021 12.5854 13.6242 12.5947 13.4705 12.619C12.1075 12.8349 11.0386 13.9039 10.8227 15.2668C10.7984 15.4205 10.7891 15.5984 10.7856 15.9019C11.8051 15.8316 12.3939 15.6706 12.8431 15.3441C13.1135 15.1477 13.3514 14.9099 13.5478 14.6395C13.8742 14.1902 14.0353 13.6015 14.1056 12.5819Z" fill="white"/>
</svg>
