<svg width="6" height="10" viewBox="0 0 6 10" fill="none" xmlns="http://www.w3.org/2000/svg">
<path d="M1.77322 0.389587C1.52805 0.146601 1.13233 0.148366 0.889343 0.393531C0.646357 0.638695 0.648122 1.03442 0.893286 1.27741L2.36243 2.73349C2.95867 3.32444 3.36767 3.73114 3.64442 4.07575C3.91326 4.4105 4.00548 4.62551 4.03003 4.81808C4.04544 4.93899 4.04544 5.06134 4.03003 5.18225C4.00548 5.37481 3.91326 5.58983 3.64442 5.92457C3.36767 6.26918 2.95867 6.67588 2.36243 7.26683L0.893286 8.72292C0.648122 8.96591 0.646357 9.36163 0.889343 9.6068C1.13233 9.85196 1.52805 9.85372 1.77322 9.61074L3.26883 8.12842C3.83214 7.57013 4.29253 7.11384 4.61904 6.70728C4.95856 6.28451 5.20434 5.85539 5.26999 5.3403C5.29878 5.11444 5.29878 4.88588 5.26999 4.66003C5.20434 4.14493 4.95856 3.71582 4.61904 3.29305C4.29253 2.88648 3.83214 2.4302 3.26882 1.87191L1.77322 0.389587Z" fill="#0A0A0A"/>
</svg>
