<svg width="19" height="19" viewBox="0 0 19 19" fill="none" xmlns="http://www.w3.org/2000/svg">
<path fill-rule="evenodd" clip-rule="evenodd" d="M8.16699 0.208252C3.67968 0.208252 0.0419922 3.84594 0.0419922 8.33325C0.0419922 12.8206 3.67968 16.4583 8.16699 16.4583C12.6543 16.4583 16.292 12.8206 16.292 8.33325C16.292 3.84594 12.6543 0.208252 8.16699 0.208252ZM1.29199 8.33325C1.29199 4.53629 4.37003 1.45825 8.16699 1.45825C11.9639 1.45825 15.042 4.53629 15.042 8.33325C15.042 12.1302 11.9639 15.2083 8.16699 15.2083C4.37003 15.2083 1.29199 12.1302 1.29199 8.33325Z" fill="#0A0A0A"/>
<path d="M15.2757 14.5581C15.0316 14.314 14.6359 14.314 14.3918 14.5581C14.1477 14.8021 14.1477 15.1979 14.3918 15.4419L17.725 18.7752C17.9691 19.0193 18.3648 19.0193 18.6089 18.7752C18.853 18.5312 18.853 18.1354 18.6089 17.8913L15.2757 14.5581Z" fill="#0A0A0A"/>
</svg>
