<svg width="56" height="56" viewBox="0 0 56 56" fill="none" xmlns="http://www.w3.org/2000/svg">
<rect width="56" height="56" rx="28" fill="#FFD700"/>
<path d="M26.2829 21.5455C25.9397 21.2053 25.3857 21.2078 25.0455 21.551C24.7053 21.8943 24.7078 22.4483 25.051 22.7885L27.1078 24.827C27.9426 25.6543 28.5152 26.2237 28.9026 26.7061C29.279 27.1748 29.4081 27.4758 29.4425 27.7454C29.4641 27.9147 29.4641 28.086 29.4425 28.2552C29.4081 28.5248 29.279 28.8259 28.9026 29.2945C28.5152 29.777 27.9426 30.3463 27.1078 31.1737L25.051 33.2122C24.7078 33.5524 24.7053 34.1064 25.0455 34.4496C25.3857 34.7928 25.9397 34.7953 26.2829 34.4551L28.3768 32.3799C29.1654 31.5983 29.81 30.9595 30.2671 30.3903C30.7424 29.7984 31.0865 29.1976 31.1784 28.4765C31.2187 28.1603 31.2187 27.8403 31.1784 27.5241C31.0865 26.803 30.7424 26.2022 30.2671 25.6104C29.81 25.0412 29.1654 24.4024 28.3768 23.6208L26.2829 21.5455Z" fill="#0A0A0A"/>
</svg>
