<svg width="18" height="18" viewBox="0 0 18 18" fill="none" xmlns="http://www.w3.org/2000/svg">
<path fill-rule="evenodd" clip-rule="evenodd" d="M9.53503 3.78613C9.53503 3.47569 9.28336 3.22402 8.97292 3.22402C8.66247 3.22402 8.41081 3.47569 8.41081 3.78613V4.01704C8.16592 4.07848 7.92561 4.17447 7.69681 4.30657C5.65683 5.48435 5.91611 8.50702 8.12685 9.32019L8.41081 9.42465V12.9443C8.00993 12.8313 7.65177 12.5678 7.42753 12.1794L7.14605 11.6918C6.99083 11.423 6.64705 11.3309 6.3782 11.4861C6.10934 11.6413 6.01723 11.9851 6.17245 12.2539L6.45393 12.7415C6.88747 13.4924 7.61836 13.9638 8.41081 14.0941V14.2788C8.41081 14.5893 8.66247 14.841 8.97292 14.841C9.28336 14.841 9.53503 14.5893 9.53503 14.2788V14.048C9.77997 13.9865 10.0203 13.8905 10.2492 13.7584C12.2892 12.5806 12.0299 9.55794 9.81913 8.74478L9.53503 8.6403L9.53503 5.12059C9.93596 5.23364 10.2942 5.49716 10.5185 5.88561L10.7999 6.37315C10.9552 6.642 11.2989 6.73412 11.5678 6.57889C11.8367 6.42367 11.9288 6.07989 11.7735 5.81104L11.4921 5.3235C11.0585 4.57254 10.3275 4.10115 9.53503 3.97088V3.78613ZM8.25892 5.28017C8.3088 5.25137 8.35949 5.22548 8.41081 5.20244L8.41081 8.22301C7.19142 7.68451 7.07721 5.96243 8.25892 5.28017ZM9.68708 12.7848C9.63714 12.8136 9.5864 12.8396 9.53503 12.8626V9.8419C10.7546 10.3803 10.8688 12.1025 9.68708 12.7848Z" fill="white"/>
<path fill-rule="evenodd" clip-rule="evenodd" d="M8.97292 0.975586C4.52321 0.975586 0.916016 4.58278 0.916016 9.03249C0.916016 13.4822 4.52321 17.0894 8.97292 17.0894C13.4226 17.0894 17.0298 13.4822 17.0298 9.03249C17.0298 4.58278 13.4226 0.975586 8.97292 0.975586ZM2.04023 9.03249C2.04023 5.20367 5.1441 2.0998 8.97292 2.0998C12.8017 2.0998 15.9056 5.20367 15.9056 9.03249C15.9056 12.8613 12.8017 15.9652 8.97292 15.9652C5.1441 15.9652 2.04023 12.8613 2.04023 9.03249Z" fill="white"/>
</svg>
