<svg width="18" height="18" viewBox="0 0 18 18" fill="none" xmlns="http://www.w3.org/2000/svg">
<path d="M7.53511 6.17344C7.91932 5.02083 9.43993 4.77407 10.1689 5.74603C10.5959 6.31539 10.5661 7.10593 10.0975 7.64154L9.40807 8.42943C8.78238 9.1445 8.4375 10.0624 8.4375 11.0125V11.25C8.4375 11.5607 8.68934 11.8125 9 11.8125C9.31066 11.8125 9.5625 11.5607 9.5625 11.25V11.0125C9.5625 10.3349 9.80847 9.68024 10.2547 9.17024L10.9441 8.38235C11.7628 7.44669 11.8149 6.06566 11.0689 5.07103C9.79543 3.37307 7.13902 3.80415 6.46784 5.81768L6.21637 6.57212C6.11813 6.86684 6.2774 7.18539 6.57212 7.28363C6.86684 7.38187 7.18539 7.2226 7.28363 6.92788L7.53511 6.17344Z" fill="#858585"/>
<path fill-rule="evenodd" clip-rule="evenodd" d="M9 0.9375C4.5472 0.9375 0.9375 4.5472 0.9375 9C0.9375 13.4528 4.5472 17.0625 9 17.0625C13.4528 17.0625 17.0625 13.4528 17.0625 9C17.0625 4.5472 13.4528 0.9375 9 0.9375ZM2.0625 9C2.0625 5.16852 5.16852 2.0625 9 2.0625C12.8315 2.0625 15.9375 5.16852 15.9375 9C15.9375 12.8315 12.8315 15.9375 9 15.9375C5.16852 15.9375 2.0625 12.8315 2.0625 9Z" fill="#858585"/>
<path d="M9.75 13.5C9.75 13.9142 9.41421 14.25 9 14.25C8.58579 14.25 8.25 13.9142 8.25 13.5C8.25 13.0858 8.58579 12.75 9 12.75C9.41421 12.75 9.75 13.0858 9.75 13.5Z" fill="#858585"/>
</svg>
