<svg width="20" height="20" viewBox="0 0 20 20" fill="none" xmlns="http://www.w3.org/2000/svg">
<path fill-rule="evenodd" clip-rule="evenodd" d="M10.75 3C10.75 2.58579 10.4142 2.25 10 2.25C9.58579 2.25 9.25 2.58579 9.25 3V3.30807C8.92323 3.39005 8.60258 3.51813 8.29728 3.69439C5.57541 5.26586 5.92137 9.29891 8.8711 10.3839L9.25005 10.5233L9.25001 15.2195C8.71511 15.0686 8.2372 14.717 7.93799 14.1988L7.56243 13.5483C7.35532 13.1895 6.89663 13.0666 6.53791 13.2737C6.17919 13.4808 6.05628 13.9395 6.26339 14.2983L6.63895 14.9488C7.21742 15.9507 8.19265 16.5796 9.25 16.7535L9.25 17C9.25 17.4142 9.58578 17.75 9.99999 17.75C10.4142 17.75 10.75 17.4142 10.75 17L10.75 16.692C11.0768 16.61 11.3975 16.4819 11.7028 16.3056C14.4247 14.7341 14.0787 10.7011 11.129 9.61613L10.75 9.47674L10.75 4.78053C11.2849 4.93138 11.7629 5.28298 12.0621 5.80125L12.4377 6.45175C12.6448 6.81047 13.1035 6.93337 13.4622 6.72626C13.8209 6.51916 13.9438 6.06047 13.7367 5.70175L13.3611 5.05125C12.7827 4.04928 11.8074 3.42033 10.75 3.2465V3ZM9.04728 4.99343C9.11386 4.95499 9.18152 4.92044 9.25001 4.88969L9.25004 8.91998C7.62296 8.20154 7.47054 5.90376 9.04728 4.99343ZM10.75 15.1103L10.75 11.08C12.3771 11.7984 12.5296 14.0962 10.9528 15.0066C10.8862 15.045 10.8185 15.0796 10.75 15.1103Z" fill="white"/>
<path fill-rule="evenodd" clip-rule="evenodd" d="M14.4635 0.373728C13.3214 0.249985 11.8818 0.249992 10.0452 0.25H9.95475C8.11821 0.249992 6.67861 0.249985 5.53648 0.373728C4.37094 0.500006 3.42656 0.762324 2.62024 1.34815C2.13209 1.70281 1.70281 2.13209 1.34815 2.62024C0.762324 3.42656 0.500006 4.37094 0.373728 5.53648C0.249985 6.67861 0.249992 8.11821 0.25 9.95475V10.0452C0.249992 11.8818 0.249985 13.3214 0.373728 14.4635C0.500006 15.6291 0.762324 16.5734 1.34815 17.3798C1.70281 17.8679 2.13209 18.2972 2.62024 18.6518C3.42656 19.2377 4.37094 19.5 5.53648 19.6263C6.67859 19.75 8.11817 19.75 9.95465 19.75H10.0453C11.8818 19.75 13.3214 19.75 14.4635 19.6263C15.6291 19.5 16.5734 19.2377 17.3798 18.6518C17.8679 18.2972 18.2972 17.8679 18.6518 17.3798C19.2377 16.5734 19.5 15.6291 19.6263 14.4635C19.75 13.3214 19.75 11.8818 19.75 10.0453V9.95473C19.75 8.11824 19.75 6.67859 19.6263 5.53648C19.5 4.37094 19.2377 3.42656 18.6518 2.62024C18.2972 2.13209 17.8679 1.70281 17.3798 1.34815C16.5734 0.762324 15.6291 0.500006 14.4635 0.373728ZM3.50191 2.56168C4.00992 2.19259 4.66013 1.97745 5.69804 1.865C6.74999 1.75103 8.10843 1.75 10 1.75C11.8916 1.75 13.25 1.75103 14.302 1.865C15.3399 1.97745 15.9901 2.19259 16.4981 2.56168C16.8589 2.82382 17.1762 3.14111 17.4383 3.50191C17.8074 4.00992 18.0225 4.66013 18.135 5.69804C18.249 6.74999 18.25 8.10843 18.25 10C18.25 11.8916 18.249 13.25 18.135 14.302C18.0225 15.3399 17.8074 15.9901 17.4383 16.4981C17.1762 16.8589 16.8589 17.1762 16.4981 17.4383C15.9901 17.8074 15.3399 18.0225 14.302 18.135C13.25 18.249 11.8916 18.25 10 18.25C8.10843 18.25 6.74999 18.249 5.69804 18.135C4.66013 18.0225 4.00992 17.8074 3.50191 17.4383C3.14111 17.1762 2.82382 16.8589 2.56168 16.4981C2.19259 15.9901 1.97745 15.3399 1.865 14.302C1.75103 13.25 1.75 11.8916 1.75 10C1.75 8.10843 1.75103 6.74999 1.865 5.69804C1.97745 4.66013 2.19259 4.00992 2.56168 3.50191C2.82382 3.14111 3.14111 2.82382 3.50191 2.56168Z" fill="white"/>
</svg>
