<svg width="19" height="19" viewBox="0 0 19 19" fill="none" xmlns="http://www.w3.org/2000/svg">
<g clip-path="url(#clip0_1355_2902)">
<path d="M13.4026 7.15638C13.6013 6.91789 13.5691 6.56345 13.3306 6.3647C13.0921 6.16596 12.7377 6.19818 12.5389 6.43667L9.94307 9.55171C9.66517 9.88519 9.49451 10.0879 9.35392 10.2148C9.28872 10.2737 9.25005 10.2972 9.23151 10.3061C9.22774 10.308 9.22506 10.3091 9.22336 10.3097C9.22336 10.3097 9.22337 10.3097 9.22336 10.3097C9.22167 10.3091 9.21898 10.308 9.21522 10.3061C9.19668 10.2972 9.15801 10.2737 9.09281 10.2148C8.95222 10.0879 8.78156 9.88519 8.50366 9.55171L7.40675 8.23542C7.20801 7.99694 6.85356 7.96471 6.61507 8.16345C6.37658 8.3622 6.34436 8.71664 6.5431 8.95513L7.66395 10.3002C7.91013 10.5956 8.13206 10.862 8.33936 11.0492C8.56491 11.2529 8.84901 11.4343 9.22336 11.4343C9.59772 11.4343 9.88182 11.2529 10.1074 11.0492C10.3147 10.862 10.5366 10.5956 10.7828 10.3002L13.4026 7.15638Z" fill="white"/>
<path fill-rule="evenodd" clip-rule="evenodd" d="M12.6443 2.11724C11.8773 -0.570331 8.06843 -0.570331 7.30143 2.11724C7.05649 2.97552 6.17472 3.48461 5.30896 3.2676C2.59796 2.58805 0.693546 5.88659 2.63756 7.89461C3.25837 8.53587 3.25837 9.55406 2.63755 10.1953C0.693545 12.2033 2.59796 15.5019 5.30896 14.8223C6.17472 14.6053 7.05649 15.1144 7.30143 15.9727C8.06843 18.6603 11.8773 18.6603 12.6443 15.9727C12.8892 15.1144 13.771 14.6053 14.6367 14.8223C17.3477 15.5019 19.2521 12.2033 17.3081 10.1953C16.6873 9.55406 16.6873 8.53587 17.3081 7.89461C19.2521 5.88658 17.3477 2.58805 14.6367 3.2676C13.771 3.48461 12.8892 2.97552 12.6443 2.11724ZM8.38249 2.42576C8.8391 0.825787 11.1066 0.825787 11.5632 2.42576C11.9746 3.86746 13.4558 4.72261 14.9101 4.35808C16.524 3.95353 17.6577 5.91722 16.5004 7.11265C15.4576 8.18982 15.4576 9.90012 16.5004 10.9773C17.6577 12.1727 16.524 14.1364 14.9101 13.7319C13.4558 13.3673 11.9746 14.2225 11.5632 15.6642C11.1066 17.2641 8.8391 17.2641 8.38249 15.6642C7.97105 14.2225 6.48989 13.3673 5.03562 13.7319C3.4217 14.1364 2.28795 12.1727 3.44527 10.9773C4.48809 9.90012 4.48809 8.18982 3.44527 7.11265C2.28795 5.91722 3.4217 3.95353 5.03562 4.35808C6.48989 4.72261 7.97105 3.86746 8.38249 2.42576Z" fill="white"/>
</g>
<defs>
<clipPath id="clip0_1355_2902">
<rect width="17.9875" height="17.9875" fill="white" transform="translate(0.979004 0.0507812)"/>
</clipPath>
</defs>
</svg>
