<svg width="300" height="300" viewBox="0 0 300 300" fill="none" xmlns="http://www.w3.org/2000/svg">
<path d="M59.3704 184.875C58.8604 184.785 58.2604 185.01 58.0804 185.58C57.7054 186.765 57.3004 187.875 56.5954 188.925C55.9354 189.915 55.0654 190.785 54.1204 191.505C51.9004 193.23 49.1704 194.13 46.4404 194.715C40.5304 195.975 34.0804 195.645 28.5904 198.435C25.8604 199.815 23.4904 202.515 24.0754 205.755C24.1654 206.22 24.5704 206.415 24.9754 206.4C24.9754 206.43 24.9754 206.445 24.9754 206.475C24.9304 207.63 26.7154 207.63 26.7754 206.475C26.9254 203.655 29.1454 201.525 31.6204 200.49C34.6204 199.23 37.8904 199.305 41.0854 199.05C46.7854 198.6 52.6954 197.25 56.9554 193.2C58.9954 191.265 61.0504 188.37 61.1104 185.445C61.1104 184.425 59.8954 184.23 59.3704 184.875Z" fill="#F1F2F4"/>
<path d="M134.43 180.345C131.325 178.92 127.8 178.56 124.5 179.505C121.425 180.39 118.815 182.31 116.91 184.86C116.565 185.325 116.835 186.06 117.3 186.33C117.48 186.435 117.675 186.48 117.855 186.48C118.095 186.975 118.8 187.29 119.34 186.81C123.345 183.3 128.61 181.71 133.875 182.34C134.94 182.46 135.375 180.765 134.43 180.345Z" fill="#F1F2F4"/>
<path d="M78.4203 146.415C75.5853 144.975 73.0953 143.235 70.9953 140.805C70.0053 139.665 69.1653 138.405 68.4003 137.1C67.5753 135.705 67.0503 134.19 66.3453 132.75C65.9253 131.895 64.3803 132.27 64.5003 133.245C64.8903 136.65 66.9453 139.95 69.1353 142.515C71.3703 145.14 74.2653 147.39 77.4603 148.725C78.7653 149.28 79.6953 147.06 78.4203 146.415Z" fill="#F1F2F4"/>
<path d="M152.865 49.3798C149.34 44.8648 143.265 42.3447 137.595 43.5597C134.88 44.1447 132.3 45.6898 130.68 47.9548C129.36 46.8748 127.545 46.2598 125.925 46.0648C123.69 45.8098 121.26 46.3798 119.475 47.7748C119.265 47.9398 119.085 48.5698 119.07 48.7048C118.785 53.0248 118.815 57.3898 118.695 61.7248C118.68 62.0398 118.875 62.3698 119.145 62.5048C121.305 63.6448 121.53 66.6298 122.595 68.6098C123 69.3748 123.78 68.8948 124.23 68.4748C128.535 66.0448 132.765 64.2748 137.61 63.8548C142.515 63.4348 147.33 64.4097 152.355 66.2847C153.03 66.5398 153.645 66.4048 153.885 65.9097C153.945 65.8498 153.99 65.7898 154.035 65.7148C157.17 60.7798 156.405 53.9098 152.865 49.3798ZM150.6 54.7048C149.505 50.9548 146.715 47.9998 142.845 47.0998C141.75 46.8448 142.215 45.1947 143.31 45.4347C147.57 46.3197 151.47 49.9048 152.265 54.2548C152.46 55.3348 150.915 55.7848 150.6 54.7048ZM152.82 58.9947C152.715 59.3847 152.355 59.6248 151.98 59.6398C151.635 59.6548 151.185 59.3547 151.14 58.9947C151.08 58.5897 151.125 58.2148 151.155 57.8098C151.185 57.3147 151.53 56.9398 152.04 56.9248C152.505 56.9098 152.955 57.3448 152.925 57.8098C152.91 58.1997 152.91 58.6197 152.82 58.9947Z" fill="#0A0A0A"/>
<path d="M117.69 47.3549C116.205 43.6499 112.29 40.9049 108.405 40.3199C105.48 39.8849 102.33 40.5449 99.8252 42.1499C99.7052 38.5799 98.2652 35.0249 95.9702 32.3099C92.1002 27.7349 85.7852 25.7099 79.9352 26.3249C73.9352 26.9549 68.4902 30.2549 64.6202 34.8149C60.5252 39.6149 57.5102 46.2299 59.5802 52.5749C61.8002 59.3699 68.0252 63.3599 74.1902 66.2549C71.9102 68.1599 70.0802 70.7849 68.7902 73.4249C67.3652 76.3199 66.4802 79.4699 66.2402 82.6949C65.7602 88.8899 67.9502 95.0549 71.8802 99.8399C74.0402 102.48 76.7852 104.67 79.8602 106.155C78.4502 113.655 76.2302 121.005 71.0552 126.81C69.5102 128.55 67.7402 130.095 65.7452 131.295C63.4952 132.66 61.0352 133.575 58.5152 134.31C53.6102 135.735 48.4952 136.455 43.7402 138.375C35.4602 141.72 28.7702 148.17 24.4052 155.895C19.7102 164.175 17.7752 173.67 18.3902 183.135C18.9752 192.225 21.6902 201.045 25.7252 209.19C25.9952 211.98 28.0052 214.785 30.9152 214.98C33.3452 222.45 37.1852 229.47 43.3652 234.45C47.4302 237.735 52.2752 240.03 57.5102 240.615C62.8202 241.2 68.1602 239.745 72.7352 237.045C82.7702 231.12 88.1102 220.38 92.1002 209.865C96.6152 197.97 100.125 185.7 102.63 173.235C103.875 167.04 104.865 160.8 105.615 154.515C105.99 151.32 106.305 148.125 106.545 144.93C106.665 143.37 106.755 141.825 106.845 140.265C106.92 138.885 107.025 137.37 106.125 136.215C105.42 135.315 104.235 134.775 103.11 135.165C102.975 135.21 102.87 135.285 102.78 135.36C102.705 135.39 102.63 135.435 102.555 135.48C102.495 134.07 102.33 132.63 101.91 131.295C101.445 129.81 100.605 128.43 99.2702 127.59C98.2952 126.975 97.1102 126.78 96.0152 127.035C96.1802 126.15 96.3302 125.265 96.4652 124.38C96.6602 123.12 96.8252 121.86 96.9752 120.6C97.1252 119.37 97.3802 118.02 96.8702 116.835C96.4502 115.86 95.5352 115.125 94.4252 115.185C93.3302 115.23 92.4302 115.995 91.6652 116.685C89.8202 118.365 88.2602 120.555 87.4802 122.94C87.1802 123.84 88.6352 124.5 89.0402 123.6C90.0602 121.35 91.3052 119.325 93.2102 117.705C93.5552 117.405 94.1252 116.88 94.6352 116.985C95.3102 117.105 95.3552 118.095 95.3402 118.605C95.3102 119.985 95.0552 121.38 94.8602 122.745C94.4552 125.52 93.9302 128.28 93.3002 131.01C92.6552 133.8 91.7852 136.5 91.0202 139.26C90.7202 140.37 92.3252 140.775 92.7152 139.725C93.6452 137.295 94.2902 134.715 94.9052 132.195C95.1602 131.16 95.3852 130.125 95.5952 129.09C95.6552 129.075 95.7152 129.045 95.7752 129.015C96.8252 128.415 98.0252 128.76 98.8652 129.57C99.8102 130.5 100.2 131.805 100.425 133.065C100.935 135.975 100.635 138.78 100.155 141.645C99.9752 142.74 101.49 143.19 101.835 142.11C102.195 140.955 102.405 139.74 102.495 138.525C102.585 138.435 102.675 138.315 102.72 138.15C102.93 137.535 103.125 137.04 103.77 136.845C103.785 136.845 103.785 136.83 103.8 136.83C104.955 136.65 105.075 138.525 105.045 139.32C105 140.805 104.865 142.305 104.76 143.79C104.535 146.805 104.25 149.82 103.92 152.82C103.245 158.835 102.33 164.835 101.19 170.775C98.9102 182.595 95.7302 194.25 91.6652 205.59C88.0202 215.745 83.6702 226.53 74.8502 233.325C70.8752 236.385 66.0602 238.56 61.0052 238.815C56.0552 239.07 51.2252 237.48 47.1002 234.81C37.9502 228.915 33.3602 218.58 31.0202 208.335C30.7202 207 30.4352 205.65 30.1802 204.3C30.1052 203.895 30.2252 203.49 30.5552 203.235C31.9202 202.2 33.5852 201.48 35.2052 201.03C42.1952 199.035 50.1002 199.875 56.3702 195.63C56.7752 195.36 57.1652 195.06 57.5402 194.76C58.4852 198.015 59.2652 201.285 59.6402 204.675C59.6552 204.84 59.7152 204.99 59.7902 205.11C59.4902 205.935 59.2052 206.76 58.9202 207.585C58.5302 208.68 60.2252 209.1 60.6302 208.065C64.6352 197.955 68.2052 187.635 71.8052 177.375C75.3902 167.145 78.8852 156.885 82.2602 146.595C84.1802 140.745 86.1002 134.895 87.9002 129C88.2302 127.905 86.5502 127.455 86.1902 128.535C82.7852 138.87 79.4402 149.235 75.9452 159.555C72.4652 169.815 68.8802 180.045 65.2052 190.245C63.8402 194.04 62.4302 197.835 61.0502 201.63C60.6152 198.93 59.9852 196.245 59.0402 193.68C59.0102 193.605 58.9802 193.53 58.9352 193.47C60.4952 191.775 61.6352 189.705 61.9652 187.395C62.1302 186.285 60.4502 185.79 60.2552 186.93C59.7152 190.275 57.4352 192.96 54.5702 194.64C51.1952 196.62 47.2352 197.265 43.4102 197.775C39.5552 198.3 35.5502 198.66 31.9652 200.295C29.4752 201.42 27.2702 203.37 26.2652 205.905C23.4302 199.68 21.3902 193.095 20.5802 186.3C19.4552 176.835 20.7602 167.175 25.1102 158.64C29.0852 150.84 35.4002 144.15 43.4852 140.58C48.1202 138.525 53.1902 137.775 58.0652 136.455C60.9902 135.66 63.7952 134.625 66.3602 133.14C66.8252 136.005 68.3702 138.855 70.0802 141.075C71.0702 142.365 72.2102 143.52 73.4852 144.525C74.7452 145.515 76.2302 146.58 77.8052 147C78.8102 147.27 79.3952 145.875 78.5102 145.32C77.2502 144.54 75.9302 143.97 74.7452 143.055C73.5602 142.155 72.4952 141.075 71.5502 139.92C70.6352 138.78 69.8702 137.52 69.2702 136.185C68.6702 134.865 68.3702 133.485 67.9952 132.105C69.0302 131.4 70.0352 130.605 70.9652 129.705C78.6152 122.37 81.0752 111.63 82.5002 101.52C82.6952 100.14 82.8752 98.7599 83.0552 97.3799C83.1602 96.4949 81.7952 96.2099 81.4052 96.8849C79.2602 97.0499 78.1052 94.6499 77.6552 92.8199C77.2052 90.9599 77.3852 88.9199 78.1502 87.1649C78.8702 85.4999 80.5202 83.2649 82.5752 83.3999C85.1552 83.5649 85.2302 87.0599 85.3052 88.9199C85.3352 89.6849 86.1152 89.9399 86.6402 89.6849C86.8802 89.6099 87.0752 89.4149 87.1202 89.0699C88.1102 82.9949 91.0802 77.4299 95.6402 73.3349C96.2702 73.3949 96.9152 73.4249 97.5152 73.4399C98.8202 73.4849 100.125 73.3799 101.415 73.1999C103.92 72.8249 106.35 71.9849 108.555 70.7399C110.535 69.6149 112.335 68.1599 113.85 66.4649C115.335 64.7849 116.805 62.7599 117.48 60.5999C117.54 60.4199 117.6 55.9499 117.645 53.9099C117.66 51.8249 117.765 47.5349 117.69 47.3549ZM72.3602 96.6749C71.9252 96.9299 71.4452 96.7499 71.1752 96.3599C70.8602 95.9249 70.6202 95.4299 70.3502 94.9649C70.1102 94.5299 70.2602 94.0199 70.6652 93.7649C71.0702 93.5099 71.6402 93.6899 71.8652 94.0799C72.1352 94.5449 72.4352 94.9949 72.6752 95.4899C72.8702 95.9099 72.7952 96.4199 72.3602 96.6749ZM73.6652 72.7949C72.3002 75.0449 71.1602 77.2499 70.5752 79.8449C70.0202 82.3949 70.0502 84.9749 70.4702 87.5399C70.6502 88.6199 69.0602 89.1149 68.7902 88.0049C68.1152 85.2299 68.1902 82.2599 68.7902 79.4849C69.3752 76.7699 70.5152 73.9199 72.3302 71.7749C72.9602 71.0249 74.1452 71.9999 73.6652 72.7949ZM68.2202 36.2399C67.7552 36.9299 67.2752 37.6049 66.7652 38.2649C66.4802 38.6249 66.0452 38.8199 65.5952 38.5649C65.2052 38.3399 65.0402 37.7849 65.2952 37.3949C65.7302 36.6899 66.2102 36.0149 66.6902 35.3249C66.9602 34.9349 67.4552 34.7549 67.9052 35.0099C68.2952 35.2499 68.5052 35.8499 68.2202 36.2399ZM89.1902 34.4099C86.7602 32.5649 84.2252 31.1699 81.1052 31.0049C77.9102 30.8399 75.1352 31.9199 72.4952 33.6299C71.6702 34.1699 70.6952 32.9099 71.4452 32.2649C74.0252 30.0449 77.7302 28.9799 81.1052 29.1449C84.3602 29.3249 87.9602 30.5999 90.2402 33.0299C90.9002 33.7199 90.0002 35.0249 89.1902 34.4099ZM109.995 65.0699C106.83 67.8149 102.555 69.6599 98.4152 70.2899C97.3652 70.4549 96.8852 68.9099 97.9652 68.6699C99.9452 68.2199 101.88 67.6349 103.725 66.7799C105.57 65.9249 107.235 64.8299 108.915 63.6899C109.755 63.1199 110.745 64.4249 109.995 65.0699ZM113.67 61.5599C113.34 61.9949 112.935 62.3999 112.485 62.7149C112.17 62.9399 111.705 62.8199 111.435 62.5799C111.18 62.3399 111.09 61.8299 111.3 61.5299C111.615 61.0799 112.02 60.6749 112.455 60.3449C112.83 60.0449 113.295 59.9999 113.67 60.3449C113.82 60.4949 113.925 60.7349 113.925 60.9449C113.925 61.1999 113.82 61.3649 113.67 61.5599Z" fill="#0A0A0A"/>
<path d="M140.445 64.6348C124.68 64.6348 111.9 77.4148 111.9 93.1798C111.9 96.4198 112.44 99.5248 113.43 102.42C111.99 103.53 110.205 103.8 108.39 102.945C107.385 102.465 106.515 103.875 107.505 104.46C109.575 105.66 112.185 105.51 114.105 104.22C115.155 106.74 116.565 109.065 118.26 111.15C117.015 115.215 115.305 119.265 111.78 121.86C109.86 123.27 107.505 124.125 105.12 124.23C102.615 124.35 100.32 123.63 98.1303 122.445C97.1403 121.905 96.3303 123.315 97.2603 123.945C99.7653 125.625 102.825 126.27 105.81 126C105.42 126.78 105.075 127.575 104.79 128.385C104.325 129.66 103.83 131.1 103.845 132.465C103.86 133.47 105.225 133.605 105.54 132.69C105.96 131.49 106.125 130.2 106.545 129C106.965 127.815 107.52 126.705 108.105 125.595C109.68 125.19 111.195 124.515 112.515 123.585C116.175 121.02 118.35 117 119.73 112.8C124.935 118.29 132.3 121.725 140.46 121.725C156.225 121.725 169.005 108.945 169.005 93.1798C168.99 77.4148 156.21 64.6348 140.445 64.6348ZM140.445 115.2C128.28 115.2 118.425 105.345 118.425 93.1798C118.425 81.0148 128.28 71.1598 140.445 71.1598C152.61 71.1598 162.465 81.0148 162.465 93.1798C162.465 105.33 152.61 115.2 140.445 115.2Z" fill="#0A0A0A"/>
<path d="M144.48 74.0249C144.435 72.9149 142.77 72.9149 142.755 74.0249C142.665 79.1699 142.245 84.2249 141.075 89.2499C139.935 94.1999 138.21 98.9999 135.945 103.545C134.655 106.14 133.155 108.63 131.595 111.075C130.995 112.02 132.435 112.815 133.065 111.93C139.14 103.47 142.755 93.1049 144.03 82.8299C144.39 79.9349 144.6 76.9649 144.48 74.0249Z" fill="#0A0A0A"/>
<path d="M129.645 87.7797C127.86 87.0747 125.445 87.8697 124.98 89.8797C124.725 90.9747 125.1 92.0397 125.835 92.7597C126.135 93.1947 126.54 93.5697 127.035 93.8097C128.625 94.5897 130.71 93.8997 131.445 92.2647C132.21 90.5397 131.4 88.4697 129.645 87.7797Z" fill="#0A0A0A"/>
<path d="M135.885 78.6898C134.82 76.9798 132.585 75.5999 130.545 75.5399C128.64 75.4949 126.645 77.3848 127.785 79.3198C128.25 80.0998 128.91 80.5949 129.78 81.1049C131.22 81.8549 132.51 82.6499 133.92 82.7099C136.125 82.7999 136.95 80.3848 135.885 78.6898Z" fill="#0A0A0A"/>
<path d="M102.66 87.6899C102.21 87.6149 101.685 87.7799 101.265 88.0799C100.305 88.5749 100.035 89.8799 100.875 90.6599C101.73 91.4549 103.155 91.1999 103.74 90.2099C104.325 89.2199 103.83 87.8699 102.66 87.6899Z" fill="#0A0A0A"/>
<path d="M106.485 77.4297C105.75 75.8847 103.89 76.7697 102.795 77.3247C101.385 78.0297 100.08 78.9297 98.9253 79.9947C98.5503 80.3397 98.5953 80.7597 98.8053 81.0597C98.7903 81.2997 98.8503 81.5547 98.9853 81.7947C99.1953 82.1697 99.6153 82.2897 100.005 82.2147C101.46 81.9447 102.87 81.4347 104.145 80.6847C105.21 80.0697 107.19 78.9297 106.485 77.4297Z" fill="#0A0A0A"/>
<path d="M113.985 111.24C112.425 110.01 109.995 109.905 108.18 110.595C106.425 111.27 104.985 112.665 104.31 114.435C103.965 115.365 105.48 116.01 105.915 115.11C106.53 113.85 107.415 112.815 108.765 112.305C109.455 112.05 110.19 111.945 110.925 112.005C111.72 112.065 112.395 112.41 113.145 112.665C113.94 112.935 114.66 111.78 113.985 111.24Z" fill="#0A0A0A"/>
<path d="M89.9401 115.905C89.3701 114.315 89.0851 112.83 89.0251 111.135C88.9801 109.995 87.4201 110.055 87.3001 111.135C87.0751 112.95 87.5101 114.96 88.3501 116.565C88.8001 117.435 90.2851 116.85 89.9401 115.905Z" fill="#0A0A0A"/>
<path d="M132.48 195.675C140.325 186.24 145.155 174.795 149.16 163.305C150.315 160.005 151.395 156.69 152.445 153.36C152.775 152.295 151.125 151.845 150.78 152.895C146.91 164.25 143.235 175.74 137.04 186.105C136.275 187.38 135.465 188.64 134.625 189.885C134.55 189.225 134.445 188.58 134.34 187.92C135.69 187.125 135.945 185.355 135.345 183.99C134.97 180.555 134.595 177.12 134.22 173.685C133.83 170.16 133.605 166.47 132.225 163.155C129.63 156.945 123.135 154.65 117.48 152.055C114.165 150.54 111.105 148.74 108.84 145.815C108.24 145.05 106.965 146.04 107.49 146.85C110.985 152.265 117.81 153.825 123.165 156.675C125.805 158.07 128.31 159.87 129.81 162.525C131.52 165.54 131.79 169.11 132.165 172.485C132.51 175.635 132.87 178.8 133.23 181.95C132.105 181.455 130.77 181.38 129.54 181.5C125.64 181.875 121.83 183.885 119.025 186.615C118.41 185.58 117.705 184.59 116.94 183.66C117.345 183.15 117.795 182.655 118.305 182.175C119.13 181.41 117.93 180.285 117.09 180.96C115.635 182.115 114.315 183.75 113.655 185.505C113.31 186.45 114.75 186.99 115.245 186.18C115.455 185.835 115.665 185.49 115.875 185.175C119.715 190.485 121.515 196.875 120.63 203.445C120.135 207.075 118.95 210.6 117.54 213.975C116.175 217.26 114.6 220.47 112.89 223.59C110.91 227.175 108.69 230.61 106.395 234C105.75 234.945 107.235 235.74 107.895 234.87C110.97 230.805 113.64 226.395 115.95 221.82C118.365 225.855 122.43 228.99 126.75 230.685C131.58 232.575 137.1 232.545 141.96 230.76C144.765 229.725 147.24 228.195 149.4 226.11C150.24 225.3 148.995 224.07 148.125 224.835C144.54 227.985 139.83 229.905 135.075 230.085C130.44 230.25 125.88 228.735 122.175 225.945C120.105 224.385 118.47 222.42 117.06 220.26C117 220.155 116.925 220.08 116.835 220.02C117.6 218.43 118.335 216.81 119.025 215.19C121.875 208.455 123.72 201.255 121.995 193.965C121.515 191.97 120.81 190.02 119.88 188.19C119.91 188.175 119.955 188.145 119.985 188.115C122.4 186.15 124.89 184.365 127.98 183.645C128.985 183.405 130.17 183.21 131.265 183.345C131.61 184.635 132.03 185.895 132.315 187.2C132.63 188.64 132.84 190.095 132.975 191.565C132.99 191.73 133.035 191.88 133.125 192C132.51 192.825 131.895 193.635 131.235 194.445C130.515 195.3 131.745 196.545 132.48 195.675Z" fill="#0A0A0A"/>
<path d="M166.65 134.745C162.36 136.305 158.73 140.1 156.675 144.105C155.64 146.115 154.695 148.515 154.635 150.81C154.605 152.025 155.01 153.3 156.105 153.945C157.08 154.515 158.205 154.455 159.03 153.69C159.855 152.925 158.655 151.8 157.815 152.475C157.575 152.67 157.14 152.475 156.945 152.325C156.585 152.055 156.465 151.62 156.435 151.185C156.36 150.225 156.66 149.205 156.93 148.29C157.425 146.55 158.19 144.915 159.165 143.4C160.14 141.885 161.325 140.52 162.69 139.32C164.085 138.09 165.675 137.205 167.295 136.32C168.165 135.87 167.595 134.415 166.65 134.745Z" fill="#0A0A0A"/>
<path d="M161.115 129.75C156.99 131.415 153.57 135 151.56 138.915C150.525 140.94 149.79 143.145 149.535 145.41C149.265 147.705 150.21 150.69 152.955 150.795C153.915 150.825 154.155 149.265 153.18 149.085C150.84 148.665 151.2 145.845 151.59 144.105C152.01 142.26 152.715 140.49 153.66 138.87C155.61 135.54 158.43 133.2 161.76 131.34C162.615 130.875 162.045 129.375 161.115 129.75Z" fill="#0A0A0A"/>
<path d="M173.16 124.035C171.57 122.01 169.545 120.24 166.965 119.685C164.385 119.13 161.655 119.655 159.21 120.525C154.86 122.085 151.095 124.98 148.41 128.73C146.865 130.875 145.59 133.425 145.065 136.02C144.51 138.81 145.245 141.93 148.11 143.085C149.04 143.46 149.73 141.855 148.8 141.45C146.445 140.445 146.46 137.67 147.075 135.555C147.66 133.545 148.62 131.64 149.82 129.915C152.115 126.615 155.445 123.945 159.195 122.49C161.31 121.665 163.68 121.05 165.96 121.365C168.33 121.695 170.115 123.285 171.57 125.1C174.375 128.61 176.295 132.855 177.42 137.19C178.695 142.155 178.8 147.36 177.885 152.4C177.675 153.54 179.355 154.035 179.64 152.88C182.055 143.01 179.43 132 173.16 124.035Z" fill="#0A0A0A"/>
<path d="M157.185 173.835C155.805 175.005 154.665 176.58 153.675 178.095C152.685 179.61 151.875 181.23 151.2 182.91C150.54 184.59 150.06 186.33 149.76 188.115C149.61 189 149.505 189.885 149.46 190.77C149.4 191.7 149.295 192.75 149.58 193.665C149.835 194.505 151.185 194.61 151.395 193.665C151.575 192.795 151.485 191.895 151.53 191.01C151.56 190.215 151.635 189.435 151.755 188.655C152.01 186.945 152.46 185.28 153.045 183.66C153.615 182.085 154.365 180.57 155.265 179.145C156.195 177.66 157.32 176.4 158.43 175.065C159.15 174.21 158.055 173.1 157.185 173.835Z" fill="#0A0A0A"/>
<path d="M239.82 135.87C238.5 135.285 236.97 135.045 235.56 134.805C234.105 134.565 232.635 134.385 231.165 134.31C228.285 134.16 225.15 134.19 222.345 134.94C221.46 135.18 221.595 136.695 222.57 136.605C223.95 136.485 225.33 136.245 226.71 136.155C228.105 136.065 229.5 136.05 230.88 136.125C232.275 136.2 233.685 136.335 235.065 136.575C236.43 136.815 237.78 137.28 239.145 137.475C240.03 137.61 240.825 136.32 239.82 135.87Z" fill="#0A0A0A"/>
<path d="M249.975 139.515C248.49 138.42 246.495 137.715 244.725 137.28C243.645 137.01 243.21 138.6 244.275 138.945C245.985 139.485 247.5 140.28 249.12 141C250.125 141.45 250.86 140.175 249.975 139.515Z" fill="#0A0A0A"/>
<path d="M256.35 237.48C255.42 238.905 254.625 240.39 253.605 241.755C252.585 243.12 251.415 244.365 250.29 245.625C249.525 246.465 250.665 247.56 251.52 246.855C252.93 245.7 254.115 244.29 255.195 242.835C256.26 241.395 257.31 239.835 257.955 238.155C258.315 237.18 256.86 236.685 256.35 237.48Z" fill="#0A0A0A"/>
<path d="M246.855 249.345C245.835 250.14 244.89 251.04 243.975 251.94C243.165 252.72 244.365 253.86 245.19 253.155C246.165 252.33 247.155 251.46 248.04 250.53C248.79 249.72 247.68 248.7 246.855 249.345Z" fill="#0A0A0A"/>
<path d="M264.9 197.235C263.22 187.455 258.495 178.005 251.07 171.33C247.935 168.51 244.32 166.185 240.435 164.475C238.605 163.575 236.715 162.81 234.765 162.21C231.975 161.355 229.065 160.725 226.155 160.56C226.065 160.56 225.975 160.56 225.9 160.59C225.555 160.56 225.21 160.545 224.865 160.545C214.02 160.29 203.58 166.275 196.68 174.345C192.975 178.68 190.08 183.765 188.43 189.225C188.385 189.36 188.385 189.495 188.4 189.6C187.71 191.88 187.365 194.28 187.41 196.695C187.44 198.285 187.62 199.905 187.98 201.495C187.92 201.525 187.935 201.525 187.875 201.555C187.395 200.97 187.005 200.295 186.69 199.605C186.27 198.675 185.985 197.685 185.79 196.68C185.445 194.895 185.415 193.08 185.64 191.28C186.39 185.175 188.565 179.325 192.075 174.18C192.99 172.845 193.98 171.57 195.06 170.355C198.705 166.605 202.98 163.47 207.63 161.055C214.89 157.29 223.02 155.475 231.195 155.82C239.64 156.165 247.935 158.745 255.09 163.245C255.99 163.815 256.875 164.415 257.745 165.045C258.495 165.585 260.865 164.715 259.2 162.66C252.66 154.62 242.595 150.27 232.455 149.25C222.15 148.215 211.425 150.27 202.17 154.905C193.41 159.3 185.955 166.26 181.635 175.125C177.465 183.675 175.89 194.28 179.325 203.355C180.9 207.525 183.72 211.515 187.935 213.3C191.625 214.86 196.485 214.845 199.725 212.265C200.385 211.74 200.94 211.125 201.435 210.45H201.45C201.54 210.45 201.615 210.435 201.705 210.42C201.3 211.02 200.865 211.59 200.37 212.13C197.715 215.025 194.055 216.6 190.14 216.645C186.165 216.69 182.175 215.28 179.04 212.835C175.785 210.3 173.445 206.64 172.125 202.755C169.095 193.845 171.42 184.155 175.68 176.055C179.76 168.285 185.67 161.625 192.285 155.91C199.62 149.58 207.855 144.375 216.09 139.32C217.125 138.69 218.145 138.06 219.18 137.43C219.225 137.4 219.27 137.37 219.3 137.34C220.155 136.935 219.66 135.48 218.625 135.69C206.295 138.165 194.28 143.16 184.215 150.765C174.165 158.355 166.335 168.54 162.315 180.54C158.43 192.165 158.25 205.35 163.425 216.615C165.975 222.165 170.055 227.265 175.59 230.055C180.84 232.695 187.02 233.235 192.69 231.735C198.315 230.25 203.13 226.68 206.19 221.745C209.205 216.87 210.435 210.96 209.61 205.29C209.52 204.69 209.4 204.09 209.265 203.505C211.485 205.125 212.25 208.2 212.34 210.93C212.46 214.485 211.635 218.085 210.06 221.28C206.925 227.685 201.18 232.275 194.745 235.08C187.905 238.065 179.775 239.46 172.65 236.7C166.605 234.36 161.895 229.32 158.745 223.77C154.455 216.225 152.835 207.555 151.2 199.14C151.005 198.165 149.715 198.39 149.49 199.185C149.4 199.305 149.34 199.47 149.31 199.65C148.395 209.925 149.37 220.695 154.35 229.905C156.57 234 159.57 237.63 163.26 240.465C166.77 243.15 170.85 245.07 175.11 246.195C183.765 248.46 192.93 247.305 200.85 243.18C208.755 239.055 215.475 232.11 219.09 223.92C221.07 219.435 222 214.38 220.575 209.58C219.27 205.215 215.91 201.495 211.395 200.415C211.005 200.325 210.615 200.25 210.225 200.205C212.595 199.485 215.67 200.625 217.635 202.035C220.53 204.105 222.225 207.42 223.02 210.78C224.73 217.98 222.975 226.53 220.335 233.46C218.1 239.325 214.29 244.605 209.415 248.565C203.94 253.005 197.16 255.33 190.155 255.6C181.14 255.945 172.38 253.08 164.385 249.105C163.68 248.76 163.05 249.375 163.08 249.96C163.05 250.14 163.095 250.32 163.23 250.5C166.26 254.49 170.73 257.655 175.215 259.8C178.71 261.48 183.735 262.575 185.79 263.1C194.565 265.32 203.88 263.655 211.86 259.5C220.005 255.255 226.425 248.265 230.535 240.12C234.78 231.705 236.775 222.15 236.49 212.745C236.22 203.295 232.71 192.72 223.755 188.1C219.63 185.97 214.545 185.34 210.165 187.095C206.31 188.64 203.115 191.925 201.99 195.96C201.87 196.395 201.78 196.83 201.705 197.265C201.39 195.51 201.645 193.74 202.305 192.12C205.455 187.68 210.465 184.62 215.985 184.2C219.615 183.93 223.275 184.695 226.47 186.435C229.53 188.115 232.02 190.65 233.88 193.605C237.87 199.92 239.34 207.75 239.46 215.13C239.595 223.14 237.945 231.195 234.54 238.47C231.03 245.955 225.795 252.6 219.45 257.895C218.805 258.435 219.435 259.5 220.14 259.455C220.335 259.515 220.56 259.5 220.785 259.395C222.045 258.81 223.26 258.165 224.445 257.46C232.425 253.44 239.055 247.125 243.84 239.58C249.12 231.255 252.09 221.37 251.835 211.485C251.565 201.3 247.695 191.22 239.97 184.38C232.605 177.84 222.12 175.035 212.595 178.095C203.655 180.975 196.83 189.03 196.23 198.525C196.185 199.35 196.185 200.175 196.26 201C195.24 198.66 194.88 196.035 195.135 193.485C195.555 189.375 197.685 185.565 200.475 182.58C205.905 176.79 213.855 173.97 221.7 174.015C229.605 174.075 237.165 177.105 243.18 182.205C249.255 187.365 253.695 194.31 256.14 201.885C259.05 210.9 259.215 220.53 257.79 229.845C257.61 231.015 257.43 232.185 257.205 233.34C257.145 233.64 257.22 233.88 257.355 234.075C257.325 234.165 257.31 234.27 257.28 234.36C257.025 235.455 258.555 235.845 258.945 234.825C259.605 233.1 260.145 231.315 260.67 229.545C265.065 219.405 266.775 208.125 264.9 197.235Z" fill="#0A0A0A"/>
<path d="M161.88 246.795C160.08 245.205 158.52 243.465 157.065 241.56C156.42 240.72 154.965 241.47 155.58 242.43C156.93 244.545 158.7 246.435 160.65 248.025C161.505 248.7 162.735 247.545 161.88 246.795Z" fill="#0A0A0A"/>
<path d="M154.23 238.845C153.765 238.23 153.285 237.6 152.775 237.015C152.145 236.295 150.9 237.24 151.44 238.05C151.875 238.695 152.355 239.31 152.835 239.925C153.105 240.27 153.69 240.24 154.005 240C154.305 239.745 154.5 239.205 154.23 238.845Z" fill="#0A0A0A"/>
<path d="M265.44 173.175C264.525 170.745 263.31 168.315 261.63 166.32C261 165.57 259.725 166.545 260.265 167.37C261.615 169.425 262.875 171.465 263.715 173.775C264.57 176.085 265.005 178.455 265.275 180.885C265.395 181.98 267.06 182.04 267.03 180.885C266.985 178.275 266.355 175.62 265.44 173.175Z" fill="#0A0A0A"/>
<path d="M215.985 260.76C214.305 261.72 212.67 262.71 210.945 263.565C209.205 264.435 207.42 265.17 205.62 265.92C204.615 266.34 204.99 267.96 206.085 267.6C209.82 266.355 213.615 264.495 216.84 262.215C217.71 261.6 216.945 260.205 215.985 260.76Z" fill="#0A0A0A"/>
<path d="M173.4 156.6C172.35 154.59 171.285 152.595 170.235 150.585C169.725 149.625 169.23 148.665 168.72 147.705C168.18 146.67 167.685 145.56 167.025 144.6C166.965 144.51 166.875 144.435 166.785 144.375C166.545 143.91 165.825 143.64 165.36 144.09C164.715 144.735 164.1 145.38 163.365 145.905C162.63 146.445 161.835 146.82 161.04 147.24C160.455 147.555 160.545 148.32 160.965 148.68C161.775 150.615 162.885 152.46 163.845 154.335C164.865 156.33 165.81 158.4 166.95 160.335C167.265 160.86 167.505 160.77 168.18 160.785C170.52 160.68 172.5 159.495 173.385 157.665C173.43 157.56 173.46 157.455 173.475 157.365C173.55 157.125 173.55 156.855 173.4 156.6Z" fill="#0A0A0A"/>
<path d="M156 117.93C155.94 117.945 155.88 117.96 155.82 117.99C154.605 118.59 153.48 119.385 152.265 120C151.05 120.6 149.745 121.02 148.515 121.605C148.02 121.845 147.975 122.31 148.185 122.7C148.2 122.775 148.215 122.85 148.23 122.925C148.44 123.51 148.65 124.095 148.86 124.665C149.085 125.295 149.865 125.58 150.375 125.07C152.46 122.97 154.875 121.23 157.635 120.15C158.1 119.955 157.56 117.015 156 117.93Z" fill="#0A0A0A"/>
<path d="M141.975 101.715C139.71 100.185 136.725 99.4647 134.055 99.1497C131.97 98.8947 128.355 98.5047 127.125 100.71C126.96 100.995 126.87 101.265 126.81 101.535C126.54 102.3 126.6 103.17 126.93 103.935C127.455 105.18 128.565 105.975 129.735 106.575C131.025 107.235 132.375 107.835 133.77 108.255C136.365 109.035 139.665 109.2 142.02 107.58C143.025 106.89 143.865 105.84 143.835 104.565C143.775 103.32 142.95 102.375 141.975 101.715Z" fill="#F1F2F4"/>
<path d="M102.045 100.11C101.88 97.5898 99.1503 96.6747 97.1103 96.0897C95.9403 95.7447 93.9903 95.1897 92.6853 95.6997C90.9003 95.7147 89.5803 97.8297 90.6303 99.5247C91.2153 100.455 92.2653 100.98 93.2253 101.445C94.3353 101.985 95.5053 102.405 96.7053 102.705C97.9203 103.005 99.2403 103.275 100.425 102.735C101.445 102.27 102.12 101.265 102.045 100.11ZM93.6903 97.6497C93.6453 97.7097 93.6003 97.7848 93.5703 97.8598C93.5553 97.8148 93.5403 97.7697 93.5553 97.7247C93.5553 97.6947 93.5703 97.6797 93.6003 97.6647C93.6153 97.6647 93.6453 97.6647 93.6903 97.6497Z" fill="#F1F2F4"/>
<path d="M98.88 42.2099C96.33 51.1349 90.12 59.1899 81.825 63.4949C80.505 64.1849 79.11 64.7399 77.655 65.0699C76.185 65.3999 74.79 65.3699 73.305 65.2649C72.315 65.2049 72.135 66.7349 73.08 66.9749C75.72 67.6499 78.675 66.9149 81.12 65.8799C83.58 64.8449 85.83 63.3899 87.93 61.7549C91.815 58.7249 95.13 54.8699 97.53 50.5499C98.91 48.0749 99.99 45.4499 100.77 42.7349C101.115 41.5199 99.225 41.0099 98.88 42.2099Z" fill="#F1F2F4"/>
<path d="M138.105 62.5949C136.185 60.2849 134.58 57.7199 133.425 54.9449C132.255 52.1399 131.67 49.2449 131.205 46.2749C131.055 45.2999 129.45 45.5249 129.495 46.4999C129.63 49.6649 130.56 52.8749 131.775 55.7849C133.02 58.7549 134.685 61.4999 136.755 63.9599C137.535 64.9199 138.885 63.5399 138.105 62.5949Z" fill="#F1F2F4"/>
<path d="M276.09 158.355C267.885 156.195 259.8 153.57 251.7 151.05C251.265 151.575 250.785 152.07 250.275 152.535C250.05 152.73 250.08 153.03 250.215 153.255C250.35 153.585 264.435 157.8 271.32 159.855C273.285 160.44 275.265 161.04 277.23 161.595C277.35 161.625 277.455 161.625 277.545 161.595C278.805 161.415 280.035 160.545 280.905 159.66C279.315 159.255 277.71 158.775 276.09 158.355Z" fill="#F1F2F4"/>
<path d="M282.99 153.825C280.875 153.21 278.745 152.685 276.615 152.16C269.01 150.3 261.42 148.365 253.875 146.265C253.785 146.745 253.68 147.225 253.545 147.675C253.275 148.62 252.855 149.46 252.33 150.24C253.71 150.675 255.105 151.11 256.485 151.545C261.075 152.985 265.68 154.425 270.3 155.76C272.595 156.42 274.905 157.05 277.2 157.665C278.685 158.07 280.155 158.49 281.64 158.865C282.27 158.01 282.72 157.035 282.915 156C283.035 155.265 283.065 154.53 282.99 153.825Z" fill="#F1F2F4"/>
<path d="M253.605 142.275C253.98 143.235 254.085 144.255 254.01 145.29C254.355 145.38 254.685 145.485 255.03 145.575C260.085 146.985 265.155 148.305 270.255 149.58C274.44 150.63 278.67 151.56 282.825 152.76C282.765 152.52 282.69 152.295 282.6 152.055C282.36 151.425 282.075 150.84 281.685 150.3C281.28 149.745 280.8 149.115 280.14 148.905C280.005 148.86 253.26 141.405 253.605 142.275Z" fill="#F1F2F4"/>
<path d="M248.28 143.895C248.295 145.65 247.47 147.525 246.45 148.905C246.135 149.265 246.075 149.49 246.375 149.775C247.185 150.555 248.055 151.47 248.91 152.22C249.24 152.535 249.465 152.73 249.795 152.4C252.015 150.15 253.845 146.325 252.9 143.055C252.45 141.525 249.3 142.845 248.775 143.055C248.13 143.31 248.28 143.775 248.28 143.895Z" fill="#F1F2F4"/>
<path d="M243.435 145.815C244.275 147.015 244.74 147.6 245.37 148.47C245.46 148.59 245.715 148.695 246.21 148.05C247.05 146.985 247.53 145.68 247.605 144.33C247.62 143.97 247.35 143.565 246.945 143.655C245.775 143.895 244.965 144.195 243.855 144.63C243.345 144.84 243.165 145.425 243.435 145.815Z" fill="#F1F2F4"/>
<path d="M241.41 190.59C240.18 188.76 238.665 187.14 236.535 186.42C236.145 186.285 235.845 186.42 235.65 186.66C235.41 186.84 235.89 191.775 233.955 196.155C232.71 198.96 230.49 201.165 228.48 203.46C228.135 203.85 228.225 204.33 228.48 204.645C229.44 208.62 229.62 212.805 228.96 216.84C228.285 220.965 226.77 224.79 224.67 228.39C224.19 229.215 225.15 229.935 225.825 229.59C226.005 229.545 226.17 229.425 226.305 229.245C228.615 226.065 231.105 223.05 233.955 220.335C235.23 219.12 236.565 217.995 237.945 216.915C239.475 216.045 241.05 215.205 242.475 214.2C242.64 214.17 242.82 214.095 242.97 213.915C248.88 207.195 245.82 197.205 241.41 190.59Z" fill="#F1F2F4"/>
<path d="M187.515 228.18C190.02 227.925 192.255 227.79 194.205 227.49C194.925 227.385 195.63 227.16 196.17 226.635C196.68 226.14 196.935 225.45 197.07 224.745C197.205 224.025 197.22 223.26 197.205 222.525C197.19 221.85 197.085 221.13 196.74 220.53C196.29 219.765 195.525 219.405 194.715 219.255C193.665 219.06 192.525 219 191.325 218.865C188.46 218.55 176.73 217.2 170.88 216.585C168.855 216.375 169.065 218.715 171.09 218.865C176.67 219.285 188.25 220.125 191.025 220.32C192.225 220.41 193.35 220.44 194.4 220.56C195.21 220.65 195.9 220.905 196.095 221.865C196.245 222.63 196.185 223.5 196.08 224.25C195.975 225.075 195.675 225.795 194.895 226.035C194.04 226.32 193.035 226.26 192.06 226.32C190.83 226.395 189.51 226.47 188.1 226.56C187.26 226.605 186.375 226.665 185.445 226.725C184.65 226.77 183.615 226.95 182.79 226.71C181.005 226.185 182.085 224.31 182.805 223.275C186.3 222.915 189.33 222.96 191.91 223.395C192.045 223.425 192.705 223.53 192.675 223.71C192.615 224.04 191.355 223.98 191.145 223.995C189.735 224.07 188.22 224.16 186.57 224.265C185.355 224.34 185.7 225.96 186.87 225.855C188.265 225.735 189.555 225.6 190.785 225.48C191.685 225.39 192.735 225.45 193.41 224.835C193.995 224.325 194.145 223.41 193.65 222.78C193.155 222.135 192.27 222 191.505 221.85C189.18 221.415 186.48 221.25 183.435 221.385C182.775 221.415 181.755 221.325 181.23 221.73C180.69 222.15 180.285 222.915 179.97 223.47C179.355 224.58 179.175 225.885 179.835 226.98C181.335 229.41 185.34 228.405 187.515 228.18Z" fill="#F1F2F4"/>
<path d="M66.765 267.42C62.94 267.42 59.835 264.315 59.835 260.49C59.835 256.665 62.94 253.56 66.765 253.56C70.59 253.56 73.695 256.665 73.695 260.49C73.695 264.315 70.59 267.42 66.765 267.42ZM66.765 256.65C64.65 256.65 62.925 258.375 62.925 260.49C62.925 262.605 64.65 264.33 66.765 264.33C68.88 264.33 70.605 262.605 70.605 260.49C70.605 258.375 68.895 256.65 66.765 256.65Z" fill="#F1F2F4"/>
<path d="M185.97 56.445C182.145 56.445 179.04 53.34 179.04 49.515C179.04 45.69 182.145 42.585 185.97 42.585C189.795 42.585 192.9 45.69 192.9 49.515C192.915 53.34 189.795 56.445 185.97 56.445ZM185.97 45.675C183.855 45.675 182.13 47.4 182.13 49.515C182.13 51.63 183.855 53.355 185.97 53.355C188.085 53.355 189.81 51.63 189.81 49.515C189.81 47.4 188.1 45.675 185.97 45.675Z" fill="#F1F2F4"/>
<path d="M238.86 192.495C238.26 191.505 236.715 192.405 237.315 193.395C239.535 197.115 240.495 201.3 240.435 205.62C240.42 206.73 242.07 206.7 242.145 205.62C242.49 201.06 241.215 196.395 238.86 192.495Z" fill="white"/>
<path d="M105.645 164.039C104.685 163.754 104.01 165.239 104.955 165.689C105.96 166.169 105.99 167.324 105.315 168.119C104.46 169.139 103.035 169.394 101.805 169.634C98.9103 170.174 95.9403 170.354 93.0003 170.234C87.1953 170.009 81.3003 168.644 75.9603 166.304C74.6553 165.734 73.2753 164.984 72.6603 163.619C72.1203 162.419 72.5403 160.934 73.9503 160.679C74.9103 160.514 74.7003 158.849 73.7103 158.954C72.1953 159.134 70.9953 160.244 70.6803 161.759C70.3503 163.304 71.0403 164.849 72.0903 165.944C73.2903 167.204 74.9703 167.864 76.5603 168.494C78.2553 169.169 79.9803 169.754 81.7353 170.249C85.3053 171.269 89.0103 171.914 92.7153 172.109C96.3153 172.304 100.17 172.154 103.665 171.194C105.345 170.729 107.025 169.709 107.565 167.954C108.075 166.364 107.295 164.534 105.645 164.039Z" fill="#FFD700"/>
<path d="M104.16 174.915C103.02 174.645 102.54 176.355 103.68 176.67C104.805 176.985 104.97 178.395 104.415 179.265C103.68 180.42 102.285 180.855 100.995 181.005C97.8304 181.365 94.4704 181.11 91.3054 180.795C88.0804 180.48 84.8704 179.91 81.7354 179.1C78.6454 178.305 75.5104 177.33 72.6154 175.965C71.1604 175.29 69.6454 174.345 69.0754 172.755C68.5954 171.435 69.1054 169.86 70.5604 169.515C71.6704 169.245 71.1904 167.64 70.0954 167.82C68.5354 168.09 67.3954 169.485 67.1254 171C66.8254 172.695 67.5904 174.375 68.7604 175.575C70.0804 176.94 71.8804 177.675 73.5904 178.365C75.4354 179.115 77.3104 179.76 79.2154 180.33C83.0704 181.47 87.0154 182.25 91.0054 182.67C93.0304 182.88 95.0554 183.015 97.0954 183.03C99.0604 183.045 101.22 183.165 103.095 182.505C104.745 181.92 106.275 180.645 106.575 178.845C106.89 177.15 105.885 175.335 104.16 174.915Z" fill="#FFD700"/>
<path d="M196.651 130.815C202.771 127.935 208.906 125.055 215.026 122.175C216.151 121.65 217.261 121.125 218.386 120.585C219.331 120.135 220.261 119.67 221.026 118.935C222.526 117.465 222.691 115.32 222.166 113.385C221.851 112.26 221.311 111.225 220.771 110.205C220.321 109.35 219.856 108.51 219.271 107.745C218.116 106.23 216.541 105.225 214.591 105.24C212.416 105.255 210.181 106.335 208.186 107.1C205.891 107.985 203.626 108.93 201.376 109.95C199.096 110.985 196.846 112.095 194.626 113.265C192.826 114.225 190.636 115.14 189.406 116.85C188.266 118.41 188.071 120.57 188.896 122.325C189.721 124.08 191.416 125.295 193.306 125.64C195.481 126.03 197.551 125.115 199.501 124.29C201.841 123.3 204.181 122.31 206.521 121.335C208.291 120.585 210.406 119.91 211.396 118.11C212.236 116.565 211.741 114.66 210.526 113.475C209.131 112.14 207.151 112.245 205.456 112.86C203.266 113.655 201.181 114.84 199.081 115.845C197.986 116.37 196.891 116.91 195.781 117.435C194.761 117.93 195.376 119.58 196.426 119.1C198.376 118.185 200.311 117.27 202.246 116.355C203.851 115.59 205.636 114.42 207.436 114.255C208.786 114.135 210.091 115.125 209.971 116.58C209.851 118.14 207.736 118.8 206.551 119.295L200.491 121.845C198.691 122.61 196.756 123.69 194.776 123.84C193.201 123.96 191.551 123.21 190.786 121.8C190.021 120.39 190.261 118.635 191.401 117.495C192.736 116.16 194.746 115.365 196.396 114.51C198.316 113.52 200.266 112.575 202.246 111.69C204.181 110.82 206.131 109.995 208.096 109.23C209.881 108.525 211.741 107.64 213.646 107.265C215.371 106.92 216.706 107.505 217.756 108.885C218.821 110.28 219.736 112.02 220.276 113.67C220.816 115.335 220.606 117.015 219.091 118.05C218.311 118.575 217.396 118.935 216.541 119.34C215.551 119.805 214.561 120.27 213.571 120.735C204.736 124.905 195.901 129.06 187.051 133.215C185.926 133.74 186.616 135.54 187.756 135.015C190.681 133.62 193.666 132.21 196.651 130.815Z" fill="#FFD700"/>
<path d="M135.675 255.749C146.07 257.684 156.33 260.204 166.635 262.604C167.13 261.914 167.67 261.254 168.27 260.624C168.525 260.354 168.465 259.979 168.27 259.724C168.075 259.319 150.195 255.359 141.45 253.454C138.945 252.899 136.455 252.344 133.935 251.834C133.785 251.804 133.65 251.819 133.545 251.864C132 252.209 130.545 253.394 129.555 254.579C131.595 254.924 133.635 255.374 135.675 255.749Z" fill="#FFD700"/>
<path d="M127.531 262.005C130.201 262.575 132.901 263.04 135.601 263.505C145.216 265.125 154.816 266.85 164.386 268.77C164.446 268.17 164.551 267.57 164.671 266.985C164.926 265.8 165.376 264.705 165.961 263.685C164.206 263.28 162.436 262.86 160.681 262.455C154.846 261.09 148.996 259.725 143.131 258.48C140.221 257.865 137.296 257.295 134.386 256.74C132.511 256.38 130.651 255.99 128.761 255.66C128.056 256.77 127.591 258.03 127.441 259.335C127.336 260.22 127.366 261.135 127.531 262.005Z" fill="#FFD700"/>
<path d="M165.09 273.675C164.535 272.52 164.31 271.26 164.31 269.97C163.875 269.88 163.455 269.79 163.02 269.715C156.615 268.425 150.195 267.24 143.745 266.115C138.45 265.2 133.11 264.42 127.845 263.325C127.935 263.61 128.055 263.895 128.175 264.18C128.52 264.93 128.94 265.65 129.48 266.28C130.02 266.925 130.68 267.675 131.535 267.885C131.7 267.9 165.585 274.725 165.09 273.675Z" fill="#FFD700"/>
<path d="M171.541 271.17C171.376 268.995 172.216 266.594 173.356 264.764C173.716 264.284 173.776 264 173.371 263.67C172.291 262.77 171.121 261.719 170.011 260.864C169.576 260.489 169.276 260.279 168.901 260.729C166.351 263.729 164.416 268.65 165.886 272.61C166.576 274.485 170.371 272.535 171.016 272.235C171.781 271.89 171.556 271.335 171.541 271.17Z" fill="#FFD700"/>
<path d="M177.39 268.35C176.25 266.94 175.605 266.265 174.735 265.23C174.615 265.095 174.285 264.99 173.73 265.815C172.785 267.225 172.305 268.875 172.335 270.57C172.335 271.005 172.725 271.485 173.22 271.35C174.645 270.945 175.62 270.495 176.955 269.85C177.6 269.565 177.765 268.815 177.39 268.35Z" fill="#FFD700"/>
<path d="M273.84 56.4298C262.98 65.1598 251.625 73.2748 240.375 81.5248C240.645 82.6048 240.84 83.7298 240.945 84.8698C240.99 85.3648 241.41 85.6198 241.845 85.6348C242.415 85.7998 261.735 71.2948 271.185 64.1698C273.885 62.1298 276.6 60.1198 279.27 58.0498C279.435 57.9298 279.525 57.7798 279.585 57.6298C280.575 55.7998 280.635 53.3248 280.305 51.2998C278.16 53.0398 275.97 54.7048 273.84 56.4298Z" fill="#FFD700"/>
<path d="M274.576 42.8848C271.711 45.0748 268.921 47.3698 266.146 49.6798C256.261 57.9148 246.286 66.0448 236.146 73.9648C236.701 74.5498 237.21 75.1648 237.69 75.7948C238.665 77.0698 239.37 78.4498 239.88 79.9048C241.8 78.4948 243.72 77.0848 245.655 75.6898C252.045 71.0248 258.436 66.3448 264.721 61.5448C267.841 59.1598 270.915 56.7298 273.99 54.2848C275.955 52.7248 277.966 51.1948 279.901 49.5898C279.391 47.9248 278.536 46.3798 277.351 45.1048C276.526 44.2348 275.596 43.4848 274.576 42.8848Z" fill="#FFD700"/>
<path d="M230.625 70.4547C232.26 70.8897 233.715 71.7597 235.005 72.8697C235.455 72.5097 235.92 72.1647 236.37 71.8047C243.165 66.4947 249.87 61.0947 256.53 55.6047C262.005 51.0897 267.36 46.4097 272.985 42.1047C272.61 41.9547 272.235 41.8197 271.845 41.7147C270.795 41.4147 269.715 41.2197 268.62 41.2047C267.51 41.1897 266.19 41.2047 265.26 41.8797C265.095 41.9997 229.14 70.0497 230.625 70.4547Z" fill="#FFD700"/>
<path d="M227.58 79.0646C229.905 80.7596 231.585 83.6846 232.425 86.3846C232.605 87.1646 232.83 87.4496 233.505 87.3446C235.335 87.0446 237.39 86.7746 239.19 86.3846C239.925 86.2646 240.405 86.1596 240.285 85.3796C239.46 80.2496 236.205 74.0846 230.985 72.1496C228.525 71.2346 227.205 76.7096 226.95 77.6096C226.65 78.6896 227.4 78.9446 227.58 79.0646Z" fill="#FFD700"/>
<path d="M225.375 87.3446C227.775 87.4196 229.005 87.3446 230.775 87.3746C231.015 87.3746 231.405 87.1346 231.045 85.8596C230.445 83.7146 229.2 81.8096 227.475 80.3846C227.025 80.0096 226.23 79.9796 225.93 80.5946C225.105 82.3646 224.715 83.7296 224.205 85.6196C223.995 86.5046 224.58 87.3146 225.375 87.3446Z" fill="#FFD700"/>
<path d="M273.975 251.205C270.15 251.205 267.045 248.1 267.045 244.275C267.045 240.45 270.15 237.345 273.975 237.345C277.8 237.345 280.905 240.45 280.905 244.275C280.905 248.1 277.8 251.205 273.975 251.205ZM273.975 240.435C271.86 240.435 270.135 242.16 270.135 244.275C270.135 246.39 271.86 248.115 273.975 248.115C276.09 248.115 277.815 246.39 277.815 244.275C277.815 242.16 276.09 240.435 273.975 240.435Z" fill="#FFD700"/>
<path d="M81.1355 95.5346C81.0605 95.5796 80.9704 95.6246 80.8954 95.6696C80.6104 95.7746 80.3554 95.9396 80.1454 96.1496C79.4854 96.8246 79.4254 97.8596 79.8754 98.6696C80.8954 100.5 83.7004 100.035 84.4054 98.1896C85.1554 96.1946 82.8905 94.6496 81.1355 95.5346Z" fill="#FFD700"/>
</svg>
